<svg width="66" height="65" viewBox="0 0 66 65" fill="none" xmlns="http://www.w3.org/2000/svg">
<path d="M50.3613 23.5715C48.46 23.5715 46.9217 25.131 46.9217 27.0559V39.4065C46.9217 40.3313 47.2841 41.2182 47.9291 41.8722C48.5742 42.5261 49.4491 42.8936 50.3613 42.8936C51.2734 42.8936 52.1483 42.5261 52.7934 41.8722C53.4385 41.2182 53.8008 40.3313 53.8008 39.4065V27.0559C53.8008 25.131 52.2625 23.5715 50.3613 23.5715ZM16.2403 23.5715C14.339 23.5715 12.8008 25.131 12.8008 27.0559V39.4065C12.8008 40.3313 13.1632 41.2182 13.8082 41.8722C14.4532 42.5261 15.3281 42.8936 16.2403 42.8936C17.1525 42.8936 18.0274 42.5261 18.6724 41.8722C19.3175 41.2182 19.6798 40.3313 19.6798 39.4065V27.0559C19.6802 26.5979 19.5914 26.1444 19.4187 25.7214C19.246 25.2982 18.9926 24.9139 18.6731 24.5903C18.3536 24.2666 17.9742 24.01 17.5568 23.8352C17.1393 23.6604 16.692 23.5708 16.2403 23.5715ZM40.1449 13.1866L42.2102 9.40238C42.2706 9.29459 42.3093 9.17581 42.324 9.05276C42.3386 8.92971 42.3291 8.80501 42.2957 8.68579C42.2625 8.56656 42.2062 8.45523 42.1301 8.35826C42.054 8.26129 41.9597 8.18061 41.8525 8.12092C41.7458 8.05988 41.6281 8.02095 41.5062 8.00643C41.3845 7.9919 41.2612 8.00206 41.1433 8.0363C41.0254 8.07055 40.9154 8.12821 40.8198 8.20592C40.7241 8.28363 40.6446 8.37986 40.5859 8.48899L38.4641 12.3605C36.8828 11.7198 35.1402 11.3572 33.3008 11.3572C31.4613 11.3572 29.7187 11.7171 28.1375 12.3578L26.0157 8.49171C25.957 8.38258 25.8775 8.28636 25.7818 8.20865C25.6861 8.13094 25.5761 8.07327 25.4583 8.03903C25.3405 8.00478 25.217 7.99462 25.0953 8.00916C24.9735 8.02368 24.8558 8.0626 24.749 8.12365C24.6424 8.18387 24.5487 8.26482 24.4729 8.36186C24.3973 8.4589 24.3413 8.57011 24.308 8.68914C24.2748 8.80817 24.2651 8.93271 24.2794 9.05549C24.2937 9.17836 24.3318 9.29714 24.3914 9.4051L26.4567 13.1894C22.7375 15.3378 20.2526 19.1793 20.2526 23.5715C20.2526 23.6015 20.2526 23.6288 20.258 23.6642C20.2526 23.6806 20.2526 23.6997 20.2526 23.716V23.7187H46.3462V23.5715C46.3489 19.1793 43.8641 15.3405 40.1449 13.1866ZM27.2769 18.5522C27.1545 18.5513 27.0335 18.5259 26.9209 18.4777C26.8081 18.4293 26.7059 18.359 26.62 18.2707C26.4465 18.0922 26.35 17.8512 26.3518 17.6007C26.3536 17.3501 26.4535 17.1106 26.6295 16.9346C26.8055 16.7588 27.0432 16.661 27.2904 16.6628C27.5375 16.6645 27.7738 16.7659 27.9473 16.9443C28.1208 17.1227 28.2172 17.3638 28.2154 17.6143C28.2137 17.8648 28.1138 18.1044 27.9377 18.2803C27.7618 18.4561 27.524 18.5539 27.2769 18.5522ZM39.3247 18.5522C39.0901 18.534 38.871 18.4268 38.7111 18.2519C38.5511 18.077 38.4623 17.8473 38.4623 17.6089C38.4623 17.3703 38.5511 17.1406 38.7111 16.9657C38.871 16.7909 39.0901 16.6836 39.3247 16.6655C39.5714 16.6655 39.8081 16.7649 39.9826 16.9418C40.1572 17.1187 40.2551 17.3587 40.2551 17.6089C40.2551 17.859 40.1572 18.099 39.9826 18.2758C39.8081 18.4528 39.5714 18.5522 39.3247 18.5522ZM20.2526 43.7742C20.2526 45.5355 21.6645 46.9668 23.4098 46.9668H24.9857V53.5129C24.9857 54.4377 25.3481 55.3246 25.9931 55.9786C26.6381 56.6326 27.513 57 28.4252 57C29.3375 57 30.2123 56.6326 30.8573 55.9786C31.5024 55.3246 31.8647 54.4377 31.8647 53.5129V46.9668H34.7315V53.5129C34.7315 55.4405 36.2697 56.9973 38.1656 56.9973C40.0723 56.9973 41.6105 55.4405 41.6105 53.5129V46.9668H43.1864C44.929 46.9668 46.3435 45.5382 46.3435 43.7742V24.4385H20.2526V43.7742Z" fill="#4BA9FF"/>
</svg>
