<svg width="175" height="175" viewBox="0 0 175 175" fill="none" xmlns="http://www.w3.org/2000/svg">
<path d="M22.9225 44C22.6588 44 22.4091 44 21.7109 41.2422C19.3514 40.7924 19.1457 40.5184 19.0763 40.4261C19.0106 40.3383 18.9819 40.1767 19.0119 40.0718C19.0545 39.9227 19.1528 39.5765 21.8476 38.5003C22.8144 36 23.1409 36 23.3581 36C23.4704 36 23.625 36.0797 23.6917 36.1691C23.8646 36.3992 24.0215 36.9975 24.2591 37.9559C24.334 38.2566 24.4242 38.6206 24.476 38.7794C24.6169 38.842 24.9297 38.9533 25.1892 39.0453C26.5737 39.5371 26.9305 39.7046 26.9949 40.0308C27.0187 40.1525 26.9562 40.3303 26.8628 40.4129C26.5822 40.663 25.2416 41.1561 24.5398 41.4039C23.3994 43.9758 23.1569 43.9887 22.9427 43.9997C22.9368 44 22.9287 44 22.9225 44ZM19.9761 40.1231C20.4462 40.2583 21.3111 40.4536 22.0654 40.593C22.2021 40.6184 22.3115 40.7201 22.3447 40.854C22.5374 41.6282 22.7897 42.5101 22.97 43.0093C23.2311 42.5443 23.6292 41.7153 23.9518 40.9815C23.9912 40.8921 24.0664 40.8227 24.1595 40.7904C24.8044 40.5658 25.5326 40.289 25.9822 40.0931C25.6658 39.9605 25.2315 39.8059 24.9506 39.7065C24.1605 39.4254 24.0121 39.3651 23.9108 39.2305C23.8226 39.1131 23.7673 38.9159 23.5706 38.1233C23.4961 37.8226 23.3812 37.3595 23.2796 37.0162C23.0439 37.4599 22.7132 38.2202 22.456 38.8933C22.4205 38.9862 22.3479 39.0589 22.2558 39.096C21.4189 39.4267 20.4693 39.8491 19.9761 40.1231Z" fill="#241726"/>
<path d="M91.9227 30C91.6587 30 91.4093 30 90.7108 27.242C88.3517 26.7921 88.1457 26.5181 88.0763 26.4258C88.0106 26.3381 87.9819 26.1764 88.0119 26.0715C88.0545 25.9224 88.1528 25.5761 90.8475 24.4998C91.8143 22 92.1408 22 92.3585 22C92.4705 22 92.6251 22.0804 92.6922 22.1691C92.8651 22.3992 93.0216 22.9969 93.2593 23.9551C93.3341 24.2558 93.4243 24.6202 93.4761 24.7787C93.617 24.8413 93.9298 24.9523 94.1893 25.0446C95.5737 25.5364 95.9305 25.7042 95.9949 26.0305C96.0187 26.1522 95.9562 26.33 95.8631 26.4123C95.5825 26.6624 94.242 27.1555 93.5405 27.4037C92.4002 29.9758 92.1577 29.9887 91.9435 29.9997C91.937 30 91.9292 30 91.9227 30ZM88.9761 26.1228C89.4461 26.258 90.311 26.4533 91.0652 26.5927C91.202 26.6182 91.3113 26.7198 91.3445 26.8538C91.5373 27.628 91.7895 28.5106 91.9702 29.0096C92.2313 28.5452 92.6294 27.7154 92.952 26.9816C92.9913 26.8922 93.0666 26.8228 93.1593 26.7905C93.8039 26.5659 94.532 26.289 94.9819 26.0934C94.6652 25.9608 94.2309 25.8062 93.9497 25.7068C93.16 25.4257 93.0112 25.3654 92.91 25.2308C92.8218 25.1133 92.7664 24.9155 92.5698 24.1229C92.4953 23.8221 92.3803 23.3596 92.2788 23.0163C92.0431 23.46 91.7124 24.2203 91.4552 24.8935C91.4197 24.9862 91.3471 25.0591 91.255 25.0962C90.4188 25.4264 89.4692 25.8488 88.9761 26.1228Z" fill="#241726"/>
<path d="M157.922 111C157.658 111 157.409 111 156.71 108.242C154.351 107.792 154.145 107.518 154.076 107.426C154.01 107.338 153.982 107.177 154.012 107.072C154.054 106.923 154.153 106.576 156.847 105.5C157.814 103 158.14 103 158.358 103C158.47 103 158.625 103.08 158.692 103.169C158.864 103.399 159.021 103.998 159.259 104.956C159.334 105.256 159.424 105.62 159.475 105.779C159.616 105.842 159.929 105.953 160.189 106.045C161.573 106.537 161.93 106.704 161.995 107.03C162.019 107.152 161.956 107.33 161.863 107.413C161.583 107.663 160.242 108.156 159.54 108.404C158.4 110.975 158.157 110.988 157.943 110.999C157.936 111 157.928 111 157.922 111ZM154.976 107.123C155.446 107.258 156.31 107.454 157.065 107.593C157.201 107.618 157.311 107.72 157.344 107.854C157.537 108.628 157.789 109.51 157.97 110.01C158.231 109.545 158.629 108.716 158.951 107.982C158.991 107.892 159.066 107.823 159.159 107.791C159.804 107.566 160.532 107.289 160.982 107.094C160.665 106.961 160.231 106.807 159.95 106.707C159.16 106.426 159.011 106.366 158.91 106.231C158.822 106.114 158.766 105.917 158.57 105.124C158.495 104.823 158.38 104.36 158.279 104.016C158.043 104.46 157.712 105.221 157.455 105.894C157.42 105.987 157.347 106.06 157.255 106.097C156.418 106.427 155.469 106.849 154.976 107.123Z" fill="#241726"/>
<path d="M48.5006 105C48.5 105 48.4893 105 48.4887 105C47.821 104.997 47.1943 104.735 46.7244 104.261C46.2544 103.786 45.9971 103.157 46 102.489C46.0059 101.117 47.1273 100 48.5003 100C49.8892 100.006 51.0058 101.133 51 102.511C50.9938 103.883 49.8727 105 48.5006 105ZM48.5074 100.706C47.5151 100.706 46.7098 101.507 46.7056 102.492C46.7037 102.972 46.8882 103.424 47.2257 103.764C47.563 104.104 48.0129 104.292 48.4919 104.294L48.501 104.647V104.294C49.4856 104.294 50.2902 103.493 50.2944 102.508C50.2986 101.519 49.4969 100.71 48.5074 100.706Z" fill="#241726"/>
<path d="M133.5 31H133.489C132.821 30.9971 132.194 30.7346 131.724 30.26C131.254 29.7858 130.997 29.1569 131 28.4895C131.006 27.117 132.127 26 133.5 26C134.179 26.0026 134.806 26.2654 135.276 26.7399C135.746 27.2142 136.003 27.8431 136 28.5105C135.994 29.8833 134.872 31 133.5 31ZM133.508 26.7056C132.515 26.7056 131.709 27.5068 131.705 28.4921C131.703 28.9715 131.888 29.423 132.225 29.7632C132.563 30.1034 133.013 30.2924 133.492 30.2944L133.499 30.6472V30.2944C134.484 30.2944 135.29 29.4929 135.294 28.5079C135.296 28.0285 135.111 27.577 134.774 27.2368C134.437 26.8963 133.987 26.7076 133.508 26.7056Z" fill="#241726"/>
<path d="M13.4401 31C13.4401 31 2.99396 26.8587 4.07904 21.9162C5.16411 16.9736 10.1838 18.3093 11.9477 21.5154C11.9477 21.5154 13.4401 15.7712 17.6458 17.2405C21.8511 18.7101 15.0679 30.8667 13.4401 31Z" fill="#E55D83"/>
<path d="M110.663 167.999C110.663 167.999 101.366 162.289 103.253 157.728C105.139 153.167 109.718 155.283 110.858 158.652C110.858 158.652 113.272 153.39 117.049 155.499C120.825 157.608 112.245 168.141 110.663 167.999Z" fill="#E55D83"/>
<path d="M136.891 87.0605C136.891 87.0605 136.182 81.8072 141.364 83.5071C146.546 85.207 144.857 90.0167 142.882 88.3707C140.906 86.7248 144.613 81.1426 148.579 83.6281C152.544 86.114 151.657 90.9372 148.844 91.293C146.031 91.6489 150.547 85.677 154.09 89.3652C157.634 93.0535 149.897 99.7778 146.734 97.3054C143.57 94.833 146.046 90.8428 146.805 93.2748C147.564 95.7067 145.517 98.0914 139.905 97.9973C134.294 97.9029 136.848 89.479 138.81 91.931C140.771 94.3831 137.515 97.1508 133.556 94.262C129.598 91.373 134.113 85.4011 136.891 87.0605Z" fill="white"/>
<path d="M140.69 99L140.362 98.9973C138.501 98.9658 137.189 98.0282 136.726 96.4127C135.748 96.2893 134.717 95.8448 133.727 95.1166C132.156 93.9607 131.623 92.2058 132.267 90.302C132.926 88.3526 134.682 86.8256 136.265 86.8256C136.49 86.8256 136.707 86.8547 136.916 86.9127C136.91 86.1648 137.03 84.902 137.796 84.0428C138.657 83.0766 140.073 82.8896 141.961 83.5148C142.687 83.7545 143.322 84.0656 143.856 84.4417C145.37 82.8748 147.524 82.5315 149.338 83.6767C151.07 84.7719 152.123 86.4555 152.212 88.2379C153.228 88.2684 154.159 88.7203 154.981 89.5829C156.098 90.7552 156.305 92.3308 155.561 94.0184C154.432 96.5843 151.347 98.8351 148.959 98.8351H148.959C148.211 98.8351 147.565 98.6252 147.04 98.2122C146.792 98.0161 146.566 97.8046 146.368 97.5799C145.114 98.5099 143.163 99 140.69 99ZM137.514 96.4405C137.839 97.3366 138.607 98.2367 140.375 98.2665L140.69 98.2692C143.534 98.2692 145.091 97.6148 145.928 96.9913C145.132 95.719 145.194 94.3295 145.638 93.4676C145.897 92.9674 146.272 92.6805 146.669 92.6805C146.934 92.6805 147.422 92.8146 147.7 93.7117C148.084 94.9534 147.8 96.1679 146.922 97.0925C147.093 97.2866 147.288 97.4707 147.504 97.6413C147.895 97.949 148.384 98.1046 148.959 98.1046C151.05 98.1046 153.872 96.0188 154.88 93.7281C155.318 92.7348 155.596 91.2963 154.439 90.0824C153.76 89.3693 153.005 88.9949 152.194 88.9684C152.021 90.6811 150.93 91.9718 149.454 92.1602C148.491 92.2836 148.165 91.7847 148.145 91.3231C148.104 90.3127 149.581 88.6164 151.472 88.2912C151.4 86.7377 150.471 85.2607 148.937 84.2915C147.43 83.3374 145.702 83.6187 144.431 84.908C145.666 86.0683 145.895 87.4947 145.549 88.4474C145.163 89.5142 144.035 89.8504 143.136 89.0961C142.032 88.1692 142.386 86.3603 143.38 85.0052C142.915 84.6848 142.36 84.4172 141.725 84.2067C140.147 83.6858 139.015 83.7857 138.356 84.5228C137.452 85.5346 137.687 87.4163 137.689 87.4357C137.707 87.5748 137.643 87.7126 137.523 87.789C137.403 87.8655 137.249 87.8682 137.127 87.7947C136.865 87.6362 136.575 87.5564 136.265 87.5564C135.004 87.5564 133.527 88.8916 132.972 90.5326C132.719 91.2832 132.328 93.1743 134.172 94.5316C134.976 95.1223 135.798 95.5035 136.578 95.65C136.44 94.3969 136.765 93.0197 137.419 92.2212C137.737 91.8323 138.109 91.6268 138.495 91.6268C138.762 91.6268 139.163 91.7304 139.554 92.2235C140.261 93.1143 140.421 94.119 139.994 94.9795C139.573 95.8253 138.637 96.3728 137.514 96.4405ZM146.668 93.4113C146.604 93.4113 146.446 93.5169 146.3 93.7988C145.977 94.4247 145.923 95.4857 146.483 96.479C147.101 95.7613 147.281 94.8686 146.989 93.9245C146.859 93.5055 146.71 93.4113 146.668 93.4113ZM138.495 92.3573C138.344 92.3573 138.167 92.4716 137.997 92.6798C137.515 93.2685 137.161 94.5266 137.335 95.716C138.249 95.6996 139.009 95.2973 139.326 94.6587C139.624 94.0586 139.493 93.3349 138.968 92.6728C138.854 92.5286 138.679 92.3573 138.495 92.3573ZM151.437 89.0421C149.924 89.3784 148.865 90.7441 148.887 91.2943C148.89 91.3593 148.894 91.4485 149.176 91.4485C149.232 91.4485 149.293 91.4441 149.358 91.4357C150.442 91.2969 151.255 90.3378 151.437 89.0421ZM143.954 85.4705C143.102 86.6429 142.939 87.9694 143.619 88.541C144.131 88.9697 144.627 88.8142 144.85 88.2014C145.11 87.4856 144.918 86.3975 143.954 85.4705Z" fill="#241726"/>
<path d="M87.8907 4.06076C87.8907 4.06076 87.1816 -1.19243 92.3638 0.50711C97.5461 2.20665 95.8575 7.01655 93.8818 5.37061C91.9061 3.72467 95.6132 -1.85739 99.5787 0.62813C103.544 3.11365 102.657 7.93703 99.8443 8.29318C97.0314 8.64901 101.547 2.67725 105.091 6.36541C108.634 10.0536 100.898 16.7778 97.7334 14.3054C94.5694 11.8334 97.0456 7.84297 97.8046 10.2749C98.5636 12.7068 96.5168 15.0914 90.9055 14.9973C85.2939 14.9029 87.8482 6.47919 89.8098 8.93117C91.7713 11.3831 88.5149 14.1508 84.5564 11.2621C80.5976 8.37342 85.1132 2.40167 87.8907 4.06076Z" fill="white"/>
<path d="M91.6925 16L91.3623 15.9973C89.5008 15.9658 88.1899 15.0282 87.7265 13.4127C86.7479 13.29 85.7171 12.8455 84.7272 12.1167C83.1557 10.9608 82.6234 9.20592 83.2671 7.30215C83.9261 5.35346 85.682 3.82616 87.2648 3.82616C87.4893 3.82616 87.7067 3.85533 87.9156 3.91332C87.9102 3.16543 88.0298 1.90262 88.7961 1.04276C89.6572 0.0769607 91.072 -0.110768 92.9611 0.514434C93.6865 0.754458 94.322 1.06555 94.856 1.44168C96.3699 -0.125182 98.5238 -0.468457 100.338 0.676685C102.07 1.77188 103.123 3.4554 103.212 5.23781C104.228 5.26865 105.159 5.7202 105.981 6.58275C107.098 7.75571 107.305 9.33129 106.561 11.0198C105.432 13.5843 102.347 15.8351 99.9594 15.8351C99.2107 15.8351 98.565 15.6252 98.0399 15.2122C97.7915 15.0161 97.5666 14.8049 97.3683 14.58C96.1147 15.5102 94.1639 16 91.6925 16ZM88.5143 13.4402C88.8394 14.3366 89.6074 15.2363 91.3752 15.2662L91.6921 15.2692C94.5357 15.2692 96.0912 14.6148 96.9277 13.992C96.1314 12.7188 96.1931 11.3296 96.6381 10.4677C96.8964 9.96756 97.2715 9.6806 97.6685 9.6806C97.9343 9.6806 98.4219 9.81469 98.6996 10.7118C99.084 11.9535 98.8001 13.168 97.922 14.0925C98.0927 14.2873 98.288 14.4707 98.5044 14.6413C98.8945 14.9487 99.3842 15.1043 99.9597 15.1043C102.05 15.1043 104.872 13.0185 105.88 10.7285C106.318 9.73524 106.596 8.29677 105.439 7.08224C104.759 6.36954 104.005 5.99476 103.194 5.96827C103.021 7.68096 101.93 8.97159 100.454 9.15999C99.4902 9.28268 99.1644 8.7852 99.1453 8.32292C99.1041 7.31254 100.581 5.61628 102.471 5.29078C102.4 3.73733 101.471 2.26031 99.9372 1.29116C98.4304 0.337769 96.7032 0.619361 95.4312 1.90765C96.6664 3.06787 96.8957 4.49427 96.5498 5.44699C96.1621 6.51302 95.0349 6.84926 94.137 6.09566C93.0326 5.16875 93.3863 3.35986 94.3806 2.00486C93.9159 1.68438 93.3604 1.41687 92.7249 1.20635C91.1452 0.684396 90.0133 0.784629 89.3546 1.52381C88.4475 2.54123 88.6864 4.4165 88.6888 4.43527C88.7075 4.57506 88.6431 4.71284 88.5232 4.78927C88.4032 4.86638 88.2485 4.86839 88.1269 4.79497C87.8645 4.63641 87.5745 4.55663 87.2648 4.55663C86.0037 4.55663 84.5265 5.89184 83.9718 7.53279C83.7183 8.28269 83.3274 10.1737 85.1719 11.5311C85.9757 12.1227 86.798 12.5036 87.5779 12.6491C87.4392 11.396 87.7647 10.0188 88.4186 9.22033C88.7375 8.83146 89.1092 8.62597 89.4946 8.62597C89.7618 8.62597 90.1625 8.72956 90.5537 9.22268C91.2601 10.113 91.4206 11.1181 90.9936 11.9786C90.5735 12.8261 89.6364 13.3725 88.5143 13.4402ZM97.6685 10.4111C97.6031 10.4111 97.4457 10.5167 97.3005 10.7986C96.9775 11.4251 96.9233 12.4855 97.4838 13.4787C98.1009 12.761 98.2808 11.8683 97.9885 10.9243C97.8593 10.5053 97.7104 10.4111 97.6685 10.4111ZM89.4946 9.3571C89.344 9.3571 89.1672 9.47142 88.9971 9.67959C88.515 10.2683 88.161 11.5264 88.3351 12.7158C89.2496 12.6993 90.0092 12.2977 90.3261 11.6581C90.6239 11.0581 90.4937 10.3343 89.9686 9.67222C89.8541 9.52841 89.6793 9.3571 89.4946 9.3571ZM102.438 6.04202C100.924 6.37792 99.865 7.74398 99.8875 8.29409C99.8902 8.35913 99.8939 8.4483 100.176 8.4483C100.232 8.4483 100.293 8.44394 100.358 8.43556C101.442 8.29745 102.256 7.33869 102.438 6.04202ZM94.9541 2.4705C94.1022 3.64279 93.9394 4.96929 94.6195 5.54086C95.1303 5.96894 95.6278 5.81474 95.8503 5.20127C96.1103 4.48556 95.9181 3.3974 94.9541 2.4705Z" fill="#241726"/>
<path d="M28.8906 121.061C28.8906 121.061 28.1815 115.808 33.3637 117.507C38.546 119.207 36.8574 124.017 34.8817 122.371C32.906 120.725 36.6131 115.143 40.5786 117.628C44.5441 120.114 43.6571 124.937 40.8442 125.293C38.0313 125.649 42.5469 119.677 46.0904 123.365C49.634 127.053 41.8974 133.778 38.7337 131.305C35.5696 128.833 38.0458 124.843 38.8048 127.275C39.5638 129.707 37.517 132.091 31.9054 131.997C26.2938 131.903 28.8482 123.479 30.8097 125.931C32.7712 128.383 29.5148 131.151 25.5564 128.262C21.5976 125.374 26.1135 119.402 28.8906 121.061Z" fill="white"/>
<path d="M32.69 133L32.3622 132.997C30.5007 132.965 29.1895 132.028 28.7261 130.412C27.7475 130.289 26.7171 129.845 25.7272 129.117C24.1557 127.961 23.6235 126.206 24.2671 124.302C24.9261 122.353 26.682 120.826 28.2651 120.826C28.4896 120.826 28.7067 120.855 28.9155 120.913C28.9101 120.165 29.0297 118.902 29.7957 118.043C30.6567 117.077 32.0722 116.89 33.9613 117.515C34.6867 117.755 35.3222 118.066 35.8561 118.442C37.3711 116.874 39.5243 116.531 41.3377 117.677C43.0704 118.772 44.1233 120.456 44.2122 122.238C45.2283 122.269 46.1592 122.721 46.9807 123.583C48.0984 124.755 48.3045 126.331 47.5614 128.018C46.4321 130.584 43.3471 132.835 40.9591 132.835C40.2108 132.835 39.5651 132.625 39.0401 132.212C38.7917 132.016 38.5664 131.805 38.3681 131.58C37.1138 132.51 35.1624 133 32.69 133ZM29.5142 130.441C29.8393 131.337 30.6073 132.237 32.3751 132.267L32.69 132.27C35.5345 132.27 37.0907 131.615 37.9275 130.992C37.1316 129.72 37.1936 128.33 37.6382 127.468C37.8965 126.968 38.2717 126.681 38.6686 126.681C38.9344 126.681 39.422 126.815 39.6997 127.712C40.0841 128.954 39.8003 130.168 38.9222 131.093C39.0929 131.287 39.2881 131.471 39.5045 131.642C39.8946 131.949 40.3843 132.105 40.9595 132.105C43.0499 132.105 45.872 130.019 46.8802 127.728C47.3177 126.735 47.5961 125.297 46.4393 124.083C45.7595 123.37 45.0051 122.995 44.1945 122.969C44.0207 124.682 42.93 125.972 41.4542 126.161C40.4886 126.286 40.1642 125.786 40.1454 125.324C40.1042 124.313 41.5813 122.617 43.4718 122.292C43.4002 120.738 42.471 119.261 40.9373 118.292C39.4292 117.338 37.703 117.619 36.4313 118.909C37.6665 120.069 37.8958 121.495 37.5496 122.448C37.1632 123.514 36.0354 123.851 35.1368 123.097C34.0328 122.17 34.3865 120.361 35.3805 119.006C34.9157 118.686 34.3606 118.418 33.7255 118.208C32.1478 117.687 31.0159 117.787 30.3565 118.524C29.4522 119.535 29.6873 121.417 29.6897 121.436C29.7081 121.575 29.6437 121.713 29.5234 121.79C29.4031 121.866 29.2491 121.868 29.1275 121.795C28.8655 121.637 28.5755 121.557 28.2657 121.557C27.0043 121.557 25.5275 122.892 24.9725 124.533C24.7189 125.284 24.3281 127.175 26.1726 128.532C26.976 129.123 27.7982 129.504 28.5785 129.65C28.4399 128.397 28.7653 127.02 29.4192 126.222C29.7374 125.833 30.1095 125.627 30.4952 125.627C30.7624 125.627 31.1631 125.731 31.5543 126.224C32.261 127.114 32.4215 128.119 31.9942 128.98C31.5733 129.826 30.6366 130.373 29.5142 130.441ZM38.6683 127.412C38.6036 127.412 38.4461 127.517 38.3003 127.799C37.9773 128.425 37.9231 129.486 38.4833 130.479C39.101 129.761 39.2806 128.869 38.9886 127.924C38.8591 127.506 38.7099 127.412 38.6683 127.412ZM30.4942 126.358C30.3436 126.358 30.1668 126.472 29.9967 126.68C29.5142 127.269 29.1605 128.527 29.3347 129.716C30.2492 129.7 31.0091 129.297 31.326 128.659C31.6238 128.059 31.4933 127.335 30.9682 126.673C30.8537 126.529 30.6789 126.358 30.4942 126.358ZM43.437 123.043C41.9238 123.379 40.8644 124.745 40.8869 125.295C40.8896 125.36 40.8934 125.449 41.1755 125.449C41.2314 125.449 41.2924 125.445 41.3578 125.436C42.4417 125.297 43.2551 124.338 43.437 123.043ZM35.9533 119.471C35.1014 120.644 34.9385 121.97 35.6186 122.542C36.1304 122.97 36.6272 122.815 36.8498 122.202C37.1097 121.486 36.9176 120.398 35.9533 119.471Z" fill="#241726"/>
<path d="M9.00786 49.6194C9.00786 49.6194 45.0866 45.3819 50.3115 50.6163C55.5368 55.8508 53.2974 77.5362 54.7902 80.5274C56.283 83.5186 63.25 86.7588 60.2641 89.0021C57.2782 91.2454 14.4814 92.2424 8.50992 88.5036C2.5388 84.7646 2.28983 48.8715 9.00786 49.6194Z" fill="#EF9A36"/>
<path d="M36.7484 5.04496C36.7484 5.04496 58.5609 0.0524917 67.6963 5.66885C76.8317 11.2852 67.7303 26.0266 71.0017 28.7097C74.2734 31.3928 82.2649 30.7449 77.5447 34.0756C72.8245 37.4063 51.3524 36.7515 39.2126 36.9985C27.0734 37.2452 27.6484 6.05912 36.7484 5.04496Z" fill="#F5D450"/>
<path d="M33.9359 164C33.8129 164 33.6895 163.998 33.5651 163.994C33.3602 163.988 33.1987 163.817 33.2048 163.613C33.2109 163.409 33.3929 163.264 33.5876 163.254C34.0678 163.27 34.5474 163.253 35.0222 163.205C35.2203 163.178 35.4081 163.332 35.4296 163.535C35.4503 163.738 35.3021 163.921 35.0976 163.941C34.7134 163.981 34.3225 164 33.9359 164ZM32.0997 163.843C32.0786 163.843 32.0575 163.842 32.0357 163.837C31.537 163.752 31.0356 163.628 30.5447 163.471C30.3494 163.409 30.2421 163.2 30.3051 163.005C30.3678 162.811 30.5758 162.705 30.7728 162.767C31.2306 162.913 31.6985 163.028 32.1638 163.109C32.3659 163.144 32.5013 163.335 32.4662 163.537C32.4341 163.717 32.2773 163.843 32.0997 163.843ZM36.5251 163.704C36.3553 163.704 36.2023 163.587 36.1631 163.416C36.1181 163.216 36.2435 163.018 36.4436 162.973C36.9014 162.87 37.3683 162.737 37.8322 162.578C38.0248 162.512 38.2375 162.614 38.3047 162.807C38.3718 163 38.2689 163.211 38.0746 163.277C37.5851 163.446 37.0916 163.586 36.6075 163.695C36.5796 163.701 36.5523 163.704 36.5251 163.704ZM29.2788 162.942C29.2256 162.942 29.1711 162.93 29.1196 162.906C28.668 162.692 28.2177 162.444 27.7818 162.171C27.6079 162.062 27.5561 161.833 27.6659 161.661C27.7756 161.487 28.0054 161.436 28.1782 161.545C28.5896 161.803 29.014 162.037 29.4394 162.238C29.6248 162.326 29.7035 162.547 29.6152 162.731C29.5508 162.864 29.4179 162.942 29.2788 162.942ZM39.3324 162.746C39.1916 162.746 39.0569 162.666 38.9942 162.53C38.9087 162.345 38.9905 162.126 39.1769 162.041C39.6122 161.842 40.0475 161.62 40.4715 161.381C40.6498 161.278 40.8768 161.342 40.978 161.519C41.0792 161.697 41.0165 161.923 40.8379 162.024C40.3958 162.273 39.9411 162.506 39.4864 162.713C39.437 162.735 39.3838 162.746 39.3324 162.746ZM26.7684 161.372C26.688 161.372 26.6065 161.346 26.5383 161.292C26.1481 160.985 25.7622 160.651 25.3917 160.3C25.2431 160.159 25.2366 159.925 25.3784 159.777C25.5195 159.629 25.755 159.624 25.9033 159.764C26.2581 160.1 26.627 160.419 26.9992 160.713C27.1604 160.839 27.1873 161.072 27.0602 161.232C26.9869 161.324 26.8785 161.372 26.7684 161.372ZM41.9198 161.291C41.8005 161.291 41.6832 161.234 41.6113 161.129C41.4968 160.959 41.5414 160.729 41.7115 160.615C42.1103 160.347 42.5071 160.059 42.8905 159.758C43.0518 159.632 43.2853 159.659 43.4121 159.819C43.5392 159.98 43.5116 160.212 43.3504 160.339C42.9526 160.651 42.5408 160.95 42.127 161.228C42.0633 161.271 41.9914 161.291 41.9198 161.291ZM44.2526 159.455C44.1534 159.455 44.0539 159.416 43.9806 159.337C43.8409 159.188 43.8494 158.954 43.9993 158.815C44.2308 158.601 44.3555 158.471 44.36 158.466C44.5007 158.318 44.7356 158.313 44.8849 158.454C45.0332 158.594 45.039 158.828 44.8978 158.976C44.8978 158.976 44.7618 159.119 44.5055 159.356C44.4343 159.423 44.3433 159.455 44.2526 159.455ZM24.604 159.35C24.5048 159.35 24.4059 159.311 24.333 159.233C23.9782 158.856 23.6448 158.484 23.3319 158.114C23.2 157.958 23.2198 157.725 23.3766 157.592C23.5337 157.462 23.7682 157.481 23.9001 157.637C24.2048 157.997 24.5297 158.361 24.875 158.728C25.0154 158.877 25.0075 159.11 24.8579 159.251C24.7863 159.317 24.695 159.35 24.604 159.35ZM22.6931 157.087C22.5796 157.087 22.4678 157.035 22.3949 156.938C22.0854 156.524 21.796 156.108 21.5342 155.7C21.4241 155.528 21.4746 155.3 21.6471 155.19C21.8202 155.078 22.0496 155.13 22.1604 155.302C22.4126 155.695 22.6918 156.096 22.9904 156.496C23.1131 156.66 23.079 156.891 22.914 157.014C22.8479 157.063 22.7702 157.087 22.6931 157.087ZM21.0986 154.594C20.965 154.594 20.8358 154.522 20.7697 154.397C20.5273 153.939 20.3106 153.476 20.1258 153.024C20.0484 152.835 20.1401 152.619 20.33 152.543C20.5209 152.464 20.7366 152.556 20.8143 152.745C20.9899 153.176 21.1961 153.615 21.4272 154.052C21.523 154.232 21.4534 154.456 21.2714 154.551C21.2162 154.58 21.1572 154.594 21.0986 154.594ZM19.9925 151.855C19.8293 151.855 19.6796 151.747 19.6346 151.583C19.4966 151.077 19.3964 150.571 19.3371 150.08C19.3129 149.877 19.4581 149.692 19.6622 149.669C19.8657 149.639 20.0508 149.789 20.075 149.992C20.1296 150.447 20.2226 150.918 20.3515 151.388C20.4057 151.585 20.2887 151.789 20.0907 151.842C20.058 151.851 20.0249 151.855 19.9925 151.855ZM19.6578 148.929C19.6507 148.929 19.6432 148.929 19.6357 148.928C19.4311 148.917 19.2747 148.742 19.2866 148.537C19.3173 148.007 19.4018 147.491 19.5375 147.003C19.5924 146.807 19.7986 146.69 19.9946 146.746C20.1923 146.8 20.3085 147.004 20.2536 147.201C20.1319 147.638 20.0559 148.102 20.028 148.581C20.0171 148.777 19.8531 148.929 19.6578 148.929ZM19.4329 146.151C19.4308 146.151 19.4281 146.151 19.4257 146.151C18.9165 146.141 18.4038 146.101 17.9021 146.033C17.6989 146.005 17.5568 145.819 17.5844 145.616C17.6123 145.415 17.7978 145.275 18.003 145.301C18.4764 145.365 18.9601 145.402 19.4404 145.412C19.6452 145.416 19.8085 145.585 19.8047 145.789C19.8003 145.991 19.635 146.151 19.4329 146.151ZM20.4578 146.108C20.3961 146.108 20.3334 146.093 20.2758 146.06C20.0968 145.96 20.0338 145.735 20.1347 145.556C20.3968 145.093 20.7165 144.67 21.0846 144.3C21.2288 144.155 21.4637 144.153 21.6099 144.297C21.7558 144.441 21.7571 144.675 21.613 144.82C21.4548 144.98 21.3069 145.15 21.1695 145.331C21.554 145.287 21.9371 145.225 22.3114 145.148C22.5132 145.1 22.7092 145.234 22.7511 145.435C22.7927 145.635 22.6635 145.831 22.4631 145.872C21.9681 145.974 21.4596 146.05 20.9517 146.096C20.8556 146.103 20.7656 146.077 20.694 146.023C20.6276 146.078 20.5434 146.108 20.4578 146.108ZM16.4964 145.749C16.465 145.749 16.4337 145.745 16.402 145.736C15.9101 145.608 15.421 145.448 14.9479 145.26C14.7573 145.184 14.6646 144.969 14.7406 144.779C14.8166 144.589 15.0331 144.498 15.2236 144.573C15.6681 144.75 16.1276 144.901 16.5898 145.021C16.7882 145.073 16.9071 145.275 16.8553 145.473C16.8113 145.639 16.661 145.749 16.4964 145.749ZM23.8214 145.495C23.6666 145.495 23.5218 145.397 23.4696 145.244C23.4038 145.05 23.5081 144.84 23.7024 144.775C24.1892 144.611 24.6299 144.425 25.0127 144.221C25.1926 144.123 25.4186 144.193 25.5154 144.372C25.6122 144.552 25.5441 144.776 25.3631 144.872C24.9445 145.096 24.4659 145.299 23.9403 145.475C23.9008 145.488 23.8609 145.495 23.8214 145.495ZM13.744 144.654C13.683 144.654 13.6213 144.638 13.5643 144.607C13.1219 144.363 12.688 144.088 12.2742 143.789C12.1082 143.669 12.0711 143.438 12.1914 143.272C12.3114 143.107 12.5438 143.069 12.7102 143.191C13.0994 143.472 13.5078 143.73 13.9239 143.96C14.1036 144.059 14.1683 144.284 14.0691 144.463C14.0013 144.585 13.8745 144.654 13.744 144.654ZM22.5244 144.034C22.3952 144.034 22.2701 143.966 22.2016 143.847C22.0997 143.669 22.1617 143.443 22.34 143.342C22.7971 143.083 23.2907 142.886 23.8084 142.756C24.0068 142.71 24.2093 142.827 24.2594 143.025C24.3095 143.223 24.1885 143.424 23.9898 143.474C23.5374 143.587 23.1063 143.759 22.7085 143.985C22.6498 144.018 22.5868 144.034 22.5244 144.034ZM26.3328 143.998C26.2714 143.998 26.2091 143.983 26.1515 143.951C25.9725 143.851 25.9088 143.626 26.0093 143.448C26.0216 143.425 26.0274 143.41 26.0308 143.401C26.0117 143.4 25.845 143.319 25.3654 143.312C25.1603 143.309 24.9963 143.142 24.9987 142.937C25.0011 142.734 25.195 142.572 25.375 142.572C26.5942 142.588 26.7762 143.093 26.7762 143.393C26.7762 143.529 26.7364 143.669 26.6573 143.809C26.5895 143.93 26.463 143.998 26.3328 143.998ZM11.344 142.924C11.254 142.924 11.164 142.891 11.0925 142.826C10.7257 142.49 10.3678 142.125 10.028 141.741C9.8923 141.587 9.90764 141.353 10.0617 141.218C10.2158 141.084 10.4503 141.099 10.5859 141.252C10.9081 141.618 11.2475 141.964 11.5952 142.282C11.7462 142.419 11.7564 142.653 11.6174 142.804C11.5444 142.883 11.4442 142.924 11.344 142.924ZM9.3834 140.71C9.2682 140.71 9.15469 140.657 9.08209 140.557C8.79406 140.16 8.51388 139.735 8.24904 139.295C8.14371 139.119 8.20132 138.892 8.3772 138.788C8.55308 138.681 8.78111 138.74 8.88678 138.915C9.14037 139.337 9.40897 139.744 9.68404 140.124C9.80402 140.29 9.76687 140.521 9.60019 140.64C9.53474 140.688 9.45839 140.71 9.3834 140.71ZM7.85501 138.176C7.71901 138.176 7.58812 138.102 7.52267 137.973C7.39281 137.715 7.26635 137.45 7.14262 137.177C7.05638 136.986 6.97253 136.797 6.89209 136.608C6.81199 136.42 6.90027 136.203 7.0891 136.124C7.27657 136.043 7.49575 136.131 7.57619 136.319C7.65458 136.503 7.73537 136.687 7.81956 136.872C7.93886 137.136 8.06123 137.392 8.18666 137.64C8.27869 137.823 8.20473 138.045 8.02169 138.136C7.96783 138.164 7.91091 138.176 7.85501 138.176ZM6.69201 135.457C6.53965 135.457 6.39683 135.363 6.34229 135.212C6.16811 134.729 6.01302 134.253 5.87532 133.784C5.81805 133.588 5.93122 133.383 6.12823 133.325C6.32491 133.271 6.53146 133.381 6.58873 133.577C6.722 134.032 6.87266 134.494 7.04173 134.963C7.11092 135.155 7.01037 135.366 6.81744 135.436C6.7762 135.45 6.73359 135.457 6.69201 135.457ZM5.86236 132.617C5.69194 132.617 5.53855 132.5 5.50004 132.328C5.39062 131.834 5.29757 131.336 5.22428 130.849C5.19429 130.647 5.3337 130.458 5.53685 130.428C5.74341 130.4 5.92917 130.538 5.95917 130.739C6.02938 131.211 6.11903 131.691 6.22538 132.167C6.26969 132.367 6.14323 132.565 5.94281 132.609C5.91588 132.614 5.88861 132.617 5.86236 132.617ZM5.42573 129.694C5.23315 129.694 5.07022 129.546 5.05556 129.352C5.01841 128.863 5 128.368 5 127.879C5 127.674 5.16634 127.492 5.37153 127.492C5.57673 127.492 5.74307 127.642 5.74307 127.846V127.879C5.74307 128.349 5.76113 128.827 5.79624 129.297C5.81158 129.5 5.65853 129.677 5.45368 129.693C5.44482 129.694 5.43527 129.694 5.42573 129.694ZM5.43255 126.74C5.42266 126.74 5.41244 126.739 5.40255 126.738C5.19838 126.722 5.04567 126.544 5.06204 126.34C5.10192 125.843 5.16293 125.339 5.24269 124.843C5.27507 124.641 5.46425 124.507 5.66808 124.536C5.87089 124.568 6.00859 124.758 5.97621 124.96C5.89952 125.436 5.84123 125.92 5.80272 126.399C5.7867 126.593 5.62411 126.74 5.43255 126.74ZM5.90225 123.822C5.87327 123.822 5.84396 123.819 5.81465 123.812C5.61524 123.764 5.49288 123.564 5.54128 123.365C5.65921 122.88 5.79828 122.392 5.95405 121.915C6.01745 121.72 6.22742 121.616 6.42239 121.678C6.6177 121.741 6.72405 121.95 6.66065 122.144C6.51033 122.603 6.37672 123.072 6.26321 123.54C6.22163 123.709 6.06995 123.822 5.90225 123.822ZM6.81983 121.011C6.77279 121.011 6.72473 121.002 6.67837 120.983C6.48852 120.905 6.39819 120.69 6.47625 120.5C6.66678 120.04 6.87743 119.579 7.10274 119.129C7.19443 118.948 7.41735 118.872 7.60073 118.964C7.78411 119.055 7.8591 119.277 7.76741 119.46C7.54994 119.893 7.34679 120.337 7.16341 120.782C7.10444 120.925 6.96571 121.011 6.81983 121.011ZM8.14508 118.365C8.08099 118.365 8.01589 118.348 7.95692 118.314C7.78036 118.211 7.72139 117.984 7.82569 117.808C8.07793 117.382 8.35095 116.954 8.63761 116.538C8.7535 116.369 8.98528 116.327 9.15435 116.442C9.32341 116.558 9.36636 116.788 9.25081 116.956C8.97336 117.359 8.70919 117.771 8.46582 118.183C8.39629 118.3 8.27256 118.365 8.14508 118.365ZM9.82379 115.925C9.74369 115.925 9.66222 115.898 9.59439 115.845C9.43283 115.72 9.40522 115.487 9.53202 115.326C9.86674 114.902 10.1946 114.517 10.5045 114.174C10.6415 114.022 10.8777 114.01 11.0291 114.146C11.1818 114.283 11.1944 114.517 11.0573 114.668C10.7571 115.001 10.4401 115.373 10.1159 115.784C10.043 115.876 9.93355 115.925 9.82379 115.925ZM11.813 113.724C11.7162 113.724 11.6191 113.686 11.5465 113.611C11.4037 113.464 11.4071 113.23 11.5547 113.088C12.2353 112.431 12.6863 112.089 12.705 112.075C12.8687 111.952 13.1011 111.984 13.2252 112.146C13.3493 112.308 13.3176 112.54 13.1543 112.664C13.1499 112.667 12.7166 112.997 12.0711 113.62C11.9995 113.689 11.9061 113.724 11.813 113.724Z" fill="#241726"/>
<path d="M21.0978 113C21.0696 113 21.0238 112.995 20.9967 112.988C20.7058 112.919 19.9336 112.736 20.2876 105.989C20.2951 105.85 20.3766 105.726 20.4998 105.666C23.7903 104.08 28.6618 101.668 30.9999 100.383C28.3034 101.024 22.6499 102.61 18.7138 103.757C18.6147 103.786 18.5081 103.771 18.4199 103.716C17.8731 103.374 15.1382 101.602 15.0031 100.378C14.9872 100.236 15.033 100.096 15.1314 99.9824C15.9463 99.0473 24.554 99 26.271 99C29.9956 99 32.1682 99.1333 32.7387 99.3965C32.7424 99.3979 32.7458 99.3993 32.7496 99.4017C32.7703 99.4108 32.7896 99.4216 32.8086 99.4352C32.8198 99.4425 32.83 99.4501 32.8388 99.4575C32.8588 99.4745 32.8765 99.4923 32.8918 99.5125C32.8931 99.5139 32.8945 99.5163 32.8962 99.5177C32.8979 99.5198 32.8999 99.5222 32.902 99.525C32.9247 99.5508 32.944 99.5814 32.959 99.6148C32.959 99.6148 32.9593 99.6155 32.9597 99.6162C33.0628 99.8453 32.9597 100.088 32.7465 100.431C31.7582 102.017 22.3264 113 21.0978 113ZM21.015 106.257C20.8972 108.704 20.9332 111.454 21.1871 112.166C22.5219 111.259 29.103 104.014 31.4439 100.986C29.9318 101.852 26.9386 103.398 21.015 106.257ZM15.7786 100.441C16.0488 101.094 17.5385 102.256 18.6683 102.982C20.0714 102.574 26.4892 100.717 30.1188 99.831C29.1678 99.7889 27.8974 99.7593 26.2703 99.7593C20.6213 99.7589 16.5796 100.102 15.7786 100.441Z" fill="#241726"/>
<path d="M18.56 110C18.5192 110 18.4806 109.996 18.4442 109.988C18.2615 109.947 18.1594 109.823 18.106 109.726C17.7984 109.169 18.2184 105.937 18.6252 103.323C18.6588 103.107 18.825 102.967 19.0018 103.007C19.1763 103.049 19.2905 103.257 19.2566 103.474C18.8962 105.792 18.5744 108.516 18.6349 109.201C18.9407 109.143 19.7549 108.607 20.4937 107.967C20.6389 107.839 20.8399 107.884 20.9418 108.064C21.0436 108.245 21.0085 108.493 20.8627 108.619C20.3679 109.049 19.1987 110 18.56 110Z" fill="#241726"/>
<path d="M105.514 33C105.451 33 105.266 32.9993 105.128 32.8632H105.127C105.106 32.8419 105.088 32.8192 105.073 32.7945C105.052 32.7639 105.034 32.7302 105.021 32.6948C105.019 32.6869 105.016 32.6779 105.014 32.6683C105.007 32.6425 105.002 32.6164 105 32.5906C104.999 32.57 105 32.5504 105.002 32.5305C105.019 30.7188 109.665 18.7572 111.253 16.5537C111.45 16.2801 111.694 16 112.005 16C112.064 16 112.17 16.0247 112.223 16.0505C113.332 16.5963 114.032 19.7986 114.16 20.4352C114.181 20.5376 114.157 20.6438 114.095 20.7287C111.697 23.9698 108.172 28.8319 106.583 31.2316C108.636 29.4334 112.611 25.6502 115.262 23.0755C115.362 22.9782 115.508 22.9408 115.642 22.9841C122.134 24.9418 122.028 25.7671 121.994 26.0386C121.962 26.2881 121.895 26.8082 114.249 29.9372C111.469 31.0749 106.502 32.9997 105.516 32.9997C105.514 33 105.514 33 105.514 33ZM115.635 23.7664C110.788 28.4707 108.272 30.7724 106.946 31.8974C110.657 30.7164 119.815 26.9291 121.151 25.9406C120.573 25.4577 117.988 24.4868 115.635 23.7664ZM112.012 16.8146C111.179 17.8192 107.482 26.3521 106.192 30.47C107.794 28.041 110.745 23.9836 113.379 20.4221C113.097 19.105 112.531 17.3002 112.012 16.8146Z" fill="#241726"/>
<path d="M118.372 24C118.243 24 118.116 23.9467 118.036 23.8487C117.907 23.6883 117.952 23.4671 118.138 23.3557C119.09 22.7819 119.974 22.0964 120.151 21.8038C119.6 21.5577 116.778 21.0462 114.344 20.7033C114.12 20.6721 113.969 20.4903 114.005 20.2974C114.042 20.1052 114.248 19.9717 114.476 20.0051C117.176 20.3848 120.48 20.9397 120.883 21.4268C120.954 21.5126 121.029 21.6558 120.989 21.8568C120.856 22.5212 119.278 23.5324 118.607 23.936C118.535 23.9792 118.453 24 118.372 24Z" fill="#241726"/>
<path d="M162.457 37.3346C162.457 37.3346 137.275 31.2532 126.587 38.7208C115.899 46.1884 126.175 65.173 122.335 68.7198C118.495 72.2665 109.247 71.5736 114.655 75.8136C120.064 80.0537 144.955 78.8033 159.017 78.8985C173.078 78.9936 172.983 38.4829 162.457 37.3346Z" fill="#00AACF"/>
<path d="M144.934 54.4441C144.934 54.4441 135.336 47.3026 134.803 48.1734C134.27 49.0443 136.225 58.6246 136.759 59.8439C137.292 61.0633 130.182 57.9278 130.004 60.5407C129.827 63.1535 134.981 73.4306 148.667 70.4692C162.353 67.5081 157.065 53.9208 156.665 52.8765C156.132 51.4831 156.665 50.0896 156.31 48.522C155.963 46.9917 151.866 43.2966 147.956 45.9091C144.046 48.5216 144.934 54.4441 144.934 54.4441Z" fill="#FDFFFF"/>
<path d="M151.862 53C151.117 53.0006 150.277 52.0981 149.044 50.0001C148.942 49.8271 149.024 49.6175 149.227 49.5308C149.431 49.4432 149.677 49.5151 149.779 49.6871C151.28 52.2387 151.847 52.2974 151.871 52.299C152.129 52.1447 152.252 50.7517 152.102 49.3813C152.081 49.1893 152.247 49.0186 152.474 49.0006C152.71 48.9897 152.9 49.1242 152.922 49.3168C153.06 50.5733 153.133 52.7182 152.083 52.9737C152.01 52.991 151.936 53 151.862 53Z" fill="#241726"/>
<path d="M146.065 60C145.463 60 144.741 59.8962 143.962 59.5701C141.927 58.7153 140.265 56.673 139.025 53.4979C138.952 53.3117 139.042 53.1001 139.227 53.0263C139.41 52.9509 139.62 53.0433 139.692 53.2309C140.858 56.2154 142.387 58.1216 144.237 58.8982C146.034 59.6505 147.484 59.0331 147.498 59.0261C147.68 58.945 147.892 59.0311 147.971 59.215C148.049 59.3996 147.966 59.6135 147.784 59.6939C147.74 59.713 147.069 60 146.065 60Z" fill="#241726"/>
<path d="M143.46 64C142.95 64 142.47 63.9132 142.021 63.7397C139.54 62.7797 139.025 59.5471 139.004 59.41C138.974 59.2141 139.115 59.033 139.317 59.0041C139.523 58.9742 139.708 59.1106 139.738 59.3065C139.742 59.3357 140.215 62.2713 142.3 63.0758C143.831 63.6664 145.884 63.0025 148.401 61.1009C148.562 60.9787 148.794 61.006 148.921 61.1617C149.048 61.3178 149.019 61.543 148.858 61.6646C146.802 63.2188 144.993 64 143.46 64Z" fill="#241726"/>
<path d="M156.332 54C156.199 54 156.077 53.9812 155.97 53.9451C154.653 53.4947 155.012 50.3083 155.153 49.3428C155.185 49.1272 155.38 48.9739 155.591 49.0037C156.316 49.101 159.974 49.6155 160.755 50.2158C160.98 50.3891 161.056 50.6725 160.958 50.9728C160.609 52.0482 157.626 54 156.332 54ZM155.877 49.8543C155.702 51.3885 155.787 53.0363 156.218 53.1829C156.233 53.1885 156.268 53.197 156.332 53.197C157.38 53.197 159.863 51.4328 160.186 50.7981C159.584 50.4834 157.472 50.0846 155.877 49.8543Z" fill="#241726"/>
<path d="M43.5211 21.4305C43.8938 19.8161 42.8872 18.2052 41.2728 17.8325C39.6584 17.4598 38.0476 18.4664 37.6749 20.0808C37.3021 21.6952 38.3087 23.306 39.9231 23.6788C41.5375 24.0515 43.1484 23.0449 43.5211 21.4305Z" fill="white"/>
<path d="M40.5 24C38.57 24 37 22.43 37 20.5C37 18.57 38.57 17 40.5 17C42.43 17 44 18.57 44 20.5C44 22.43 42.43 24 40.5 24ZM40.5 17.7779C38.9992 17.7779 37.7779 18.9992 37.7779 20.5C37.7779 22.0008 38.9992 23.2221 40.5 23.2221C42.0008 23.2221 43.2221 22.0008 43.2221 20.5C43.2221 18.9992 42.0008 17.7779 40.5 17.7779Z" fill="#241726"/>
<path d="M50 23C51.6569 23 53 21.6569 53 20C53 18.3431 51.6569 17 50 17C48.3431 17 47 18.3431 47 20C47 21.6569 48.3431 23 50 23Z" fill="white"/>
<path d="M50.5 24C48.57 24 47 22.4299 47 20.5002C47 18.5701 48.57 17 50.5 17C52.43 17 54 18.5701 54 20.5002C53.9996 22.4303 52.43 24 50.5 24ZM50.5 17.7779C48.9992 17.7779 47.7779 18.9993 47.7779 20.5002C47.7779 22.001 48.9992 23.2225 50.5 23.2225C52.0008 23.2225 53.2221 22.001 53.2221 20.5002C53.2221 18.9993 52.0008 17.7779 50.5 17.7779Z" fill="#241726"/>
<path d="M62.1059 23.3508C63.631 22.7035 64.3426 20.9423 63.6952 19.4171C63.0478 17.892 61.2867 17.1804 59.7615 17.8278C58.2364 18.4752 57.5248 20.2364 58.1722 21.7615C58.8196 23.2867 60.5808 23.9982 62.1059 23.3508Z" fill="white"/>
<path d="M61.5 25C59.57 25 58 23.43 58 21.5C58 19.57 59.57 18 61.5 18C63.43 18 65 19.57 65 21.5C65 23.43 63.4297 25 61.5 25ZM61.5 18.7782C59.9992 18.7782 58.7779 19.9996 58.7779 21.5004C58.7779 23.0011 59.9992 24.2225 61.5 24.2225C63.0008 24.2225 64.2221 23.0011 64.2221 21.5004C64.2218 19.9992 63.0008 18.7782 61.5 18.7782Z" fill="#241726"/>
<path d="M21.6531 66.9554C21.6531 66.9554 28.0534 62.5567 29.1242 59.6498C30.1946 56.7425 28.0537 51.6551 30.9083 52.0185C33.7632 52.3818 34.3425 58.4812 35.7702 59.935C37.1975 61.3884 42.5788 59.1208 43.6492 60.938C44.7197 62.7548 47.3235 73.4589 46.9667 76.3658C46.6099 79.2731 37.7398 78.6567 33.9645 79.6597C30.707 80.525 28.3048 82 27.2344 82C26.1635 81.9997 18.7982 69.8623 21.6531 66.9554Z" fill="#FDFFFF"/>
<path d="M14.3217 67.2348C14.3217 67.2348 21.9126 62.9878 23.293 64.2264C24.6731 65.4651 31.0566 81.5689 29.8488 82.2765C28.641 82.9845 21.5677 86.1698 20.5325 85.9929C19.4974 85.8157 12.4241 68.1197 14.3217 67.2348Z" fill="#9D5580"/>
<path d="M44.6075 64C44.5366 64 44.4646 63.9865 44.3999 63.9577C42.5907 63.1563 39.5376 63.8052 39.507 63.8115C39.303 63.8592 39.0817 63.7745 39.0173 63.6274C38.9539 63.4807 39.0702 63.3257 39.2771 63.2805C39.4156 63.2497 42.7011 62.5488 44.8158 63.4864C44.9993 63.5677 45.0551 63.7394 44.9403 63.8692C44.8662 63.9538 44.7381 64 44.6075 64Z" fill="#241726"/>
<path d="M45.6075 69C45.5366 69 45.4646 68.9865 45.3999 68.9577C43.5906 68.1558 40.5378 68.8051 40.5069 68.8115C40.3043 68.8582 40.0816 68.774 40.0171 68.6274C39.9542 68.4807 40.07 68.3254 40.2769 68.2805C40.4151 68.2497 43.7011 67.5488 45.8158 68.4864C45.9993 68.5677 46.0551 68.7394 45.9403 68.8692C45.8662 68.9538 45.7381 69 45.6075 69Z" fill="#241726"/>
<path d="M46.6071 75C46.5362 75 46.4643 74.9865 46.3995 74.9577C44.59 74.1556 41.5376 74.8051 41.507 74.8115C41.3044 74.8587 41.081 74.774 41.0173 74.6273C40.9539 74.4806 41.0702 74.3253 41.2771 74.2804C41.4156 74.2495 44.7011 73.549 46.8158 74.4862C46.9993 74.5676 47.0551 74.7393 46.9403 74.8691C46.8658 74.9538 46.7377 75 46.6071 75Z" fill="#241726"/>
<path d="M52.0594 151.507C52.0594 151.507 51.4994 146.523 48.4192 136.001C45.3389 125.479 60.1805 103.328 62.1407 93.3598C64.101 83.3918 71.3818 92.8061 70.5415 98.8975C69.7015 104.989 66.0609 125.202 73.0617 129.355C80.0625 133.509 88.7432 134.893 90.7035 140.154C92.6638 145.415 84.2627 148.46 84.2627 154.275C84.2627 160.09 85.663 173.935 82.8624 174.765C80.0622 175.596 58.7798 173.935 54.5796 174.211C50.3791 174.489 54.8596 159.537 52.0594 151.507Z" fill="#F5D450"/>
<path d="M59.4681 42.6008C59.4681 42.6008 58.0345 136.275 60.1848 138.598C62.335 140.92 118.242 140.146 119.675 137.824C121.108 135.501 117.371 41.7783 116.808 41.0528C114.608 38.2156 58.7515 37.9558 59.4681 42.6008Z" fill="#9D5580"/>
<path d="M68.3301 53.8436C68.3301 53.8436 67.3191 121.317 68.8358 122.99C70.3524 124.663 109.783 124.105 110.794 122.432C111.805 120.759 108.772 52.7286 108.772 52.7286C106.244 52.7282 67.8248 50.4978 68.3301 53.8436Z" fill="#E55D83"/>
<path d="M56.8985 119.713C56.8985 119.713 68.4295 92.7961 70.6795 98.9011C72.9294 105.006 72.0855 116.383 67.5859 120.268C67.5859 120.268 74.617 122.21 79.1169 129.703C83.6168 137.195 69.5546 146.907 67.5859 149.682C65.6168 152.457 49.5862 136.639 56.8985 119.713Z" fill="#F5D450"/>
<path d="M121.484 145.17C121.484 145.17 116.202 142.702 104.526 142.702C92.8498 142.702 102.432 134.715 108.14 134.203C114.256 133.655 120.094 133.929 121.484 130.64C122.874 127.35 108.732 109.58 105.082 101.58C102.58 96.0967 105.915 92.2585 112.31 97.4673C118.704 102.676 126.21 113.642 128.156 115.287C130.102 116.932 144.28 106.788 150.674 111.997C157.069 117.206 169.023 150.104 171.803 156.41C174.583 162.715 147.061 174.778 145.949 169.843C144.836 164.908 138.999 152.846 134.55 150.927C134.55 150.927 128.434 148.734 121.484 145.17Z" fill="#F5D450"/>
<path d="M113.572 105C111.74 105 108.797 102.667 108.136 102.123C107.975 101.991 107.954 101.754 108.089 101.595C108.225 101.437 108.466 101.415 108.627 101.549C110.375 102.986 113.19 104.742 113.98 104.146C114.303 103.901 114.787 102.767 112.294 97.5347C112.204 97.3471 112.287 97.1238 112.478 97.0357C112.668 96.9472 112.896 97.0291 112.985 97.2167C115.048 101.545 115.512 103.935 114.446 104.741C114.205 104.922 113.906 105 113.572 105Z" fill="#241726"/>
<path d="M133.61 122C133.394 122 133.22 121.841 133.22 121.644C133.22 118.741 128.282 116.701 128.231 116.681C128.035 116.601 127.946 116.39 128.034 116.211C128.121 116.031 128.352 115.951 128.549 116.031C128.771 116.121 134 118.279 134 121.644C134 121.841 133.826 122 133.61 122Z" fill="#241726"/>
<path d="M140.658 119C140.48 119 140.33 118.846 140.318 118.644C140.08 114.669 136.244 112.75 136.205 112.731C136.032 112.647 135.953 112.422 136.029 112.229C136.104 112.036 136.305 111.947 136.478 112.032C136.652 112.117 140.734 114.16 140.999 118.593C141.011 118.803 140.869 118.985 140.681 118.999C140.674 119 140.666 119 140.658 119Z" fill="#241726"/>
<path d="M148.658 118C148.48 118 148.33 117.846 148.318 117.644C148.08 113.669 144.244 111.75 144.205 111.731C144.032 111.647 143.953 111.422 144.029 111.229C144.104 111.036 144.306 110.947 144.479 111.032C144.653 111.117 148.734 113.16 148.999 117.593C149.011 117.803 148.869 117.985 148.681 117.999C148.674 118 148.666 118 148.658 118Z" fill="#241726"/>
<path d="M107.56 142C107.463 142 107.367 141.967 107.294 141.9C107.147 141.766 107.147 141.549 107.294 141.415C107.834 140.923 108.429 140.234 108.198 139.748C107.784 138.881 105.031 138.633 103.388 138.691C103.191 138.679 103.007 138.549 103 138.36C102.993 138.171 103.155 138.012 103.362 138.006C103.849 137.991 108.137 137.902 108.886 139.476C109.206 140.149 108.85 140.965 107.825 141.9C107.751 141.967 107.656 142 107.56 142Z" fill="#241726"/>
<path d="M117.355 115C117.192 115 117.045 114.891 117.009 114.731C116.966 114.547 117.087 114.363 117.278 114.322C118.541 114.051 121.904 112.973 122.297 111.268C122.339 111.083 122.531 110.969 122.721 111.008C122.913 111.049 123.034 111.232 122.992 111.417C122.42 113.896 117.637 114.948 117.433 114.992C117.406 114.997 117.381 115 117.355 115Z" fill="#241726"/>
<path d="M118.355 117C118.192 117 118.045 116.891 118.009 116.731C117.966 116.546 118.087 116.363 118.278 116.322C119.541 116.051 122.904 114.973 123.297 113.268C123.339 113.083 123.53 112.97 123.721 113.007C123.913 113.049 124.034 113.231 123.992 113.416C123.42 115.896 118.637 116.949 118.433 116.992C118.407 116.997 118.381 117 118.355 117Z" fill="#241726"/>
<path d="M66.9307 107C65.4184 107 64.1168 104.983 64.058 104.891C63.9481 104.717 63.9989 104.488 64.1721 104.377C64.3448 104.267 64.5746 104.318 64.6856 104.491C65.0397 105.045 66.1638 106.44 67.1233 106.235C67.6679 106.118 68.6708 105.325 69.2598 101.318C69.2895 101.114 69.4728 100.979 69.6822 101.003C69.8857 101.033 70.026 101.222 69.9959 101.425C69.4896 104.869 68.6004 106.681 67.2776 106.964C67.1608 106.988 67.0451 107 66.9307 107Z" fill="#241726"/>
<path d="M80.4471 75.735C80.4471 75.735 78.9444 97.188 81.4489 99.6827C83.9537 102.177 104.492 89.2055 103.991 87.21C103.49 85.2145 79.9462 71.7438 80.4471 75.735Z" fill="#FDFFFF"/>
<path d="M97.631 46.9998C97.6138 46.9998 97.5961 46.9984 97.5785 46.996C94.2055 46.4927 82.5024 46.9938 82.3848 46.9998C82.1819 47.0058 82.0091 46.844 82.0003 46.6305C81.9919 46.4185 82.1501 46.2386 82.3537 46.2294C82.8378 46.2093 94.2431 45.7209 97.6829 46.2333C97.8848 46.2634 98.025 46.4581 97.9963 46.6687C97.9702 46.8613 97.8119 46.9998 97.631 46.9998Z" fill="#241726"/>
<path d="M81.37 135C81.2667 135 81.1676 134.953 81.0976 134.87C81.0253 134.784 80.9906 134.668 81.0022 134.552L81.4956 129.71C81.5157 129.515 81.6627 129.363 81.8431 129.352C81.9011 129.348 87.7144 129 92.6405 129C99.4373 129 100 129.612 100 130.292V134.058C100 134.277 99.8404 134.455 99.64 134.462L81.3805 135C81.3764 135 81.373 135 81.37 135ZM82.1966 130.139L81.785 134.18L99.2596 133.665V130.375C99.062 130.232 98.0211 129.806 92.6405 129.806C88.3875 129.807 83.4688 130.068 82.1966 130.139Z" fill="#241726"/>
<path d="M162.623 25C162.419 25 162.252 24.8361 162.247 24.6298C162.247 24.6238 162.232 24.0493 162.143 23.1293C162.123 22.9201 162.274 22.7347 162.481 22.7137C162.687 22.704 162.873 22.8473 162.892 23.055C162.984 24.0057 162.999 24.5865 163 24.6113C163.005 24.8205 162.84 24.9951 162.633 25C162.63 25 162.626 25 162.623 25ZM162.337 21.9583C162.153 21.9583 161.992 21.8216 161.965 21.6323C161.9 21.17 161.819 20.6712 161.721 20.1451C161.682 19.9387 161.817 19.74 162.021 19.7013C162.226 19.6626 162.423 19.7979 162.461 20.0039C162.561 20.5418 162.644 21.0526 162.711 21.5239C162.74 21.7317 162.597 21.9245 162.391 21.9541C162.373 21.9569 162.355 21.9583 162.337 21.9583ZM121.376 20.06C121.319 20.06 121.261 20.0464 121.206 20.0186C121.021 19.9237 120.947 19.695 121.041 19.5078C121.277 19.0389 121.526 18.584 121.781 18.1552C121.888 17.9756 122.119 17.9185 122.297 18.0251C122.476 18.1336 122.533 18.3664 122.426 18.5467C122.18 18.9594 121.94 19.3987 121.712 19.8519C121.646 19.9844 121.513 20.06 121.376 20.06ZM138.998 19.4381C138.968 19.4381 138.937 19.4343 138.906 19.4269C138.328 19.2809 137.846 18.9096 137.512 18.3553C137.404 18.1757 137.46 17.9418 137.638 17.8327C137.816 17.725 138.047 17.7822 138.155 17.9603C138.384 18.341 138.707 18.5923 139.089 18.6889C139.29 18.7402 139.413 18.9465 139.363 19.1498C139.32 19.3231 139.166 19.4381 138.998 19.4381ZM140.464 19.2547C140.32 19.2547 140.184 19.1725 140.121 19.032C140.035 18.8413 140.118 18.6157 140.307 18.5289C140.477 18.4508 140.649 18.3507 140.82 18.2298C141.032 18.0799 141.199 17.9129 141.319 17.7326C141.435 17.559 141.669 17.513 141.841 17.6281C142.014 17.7445 142.06 17.9805 141.945 18.1555C141.773 18.4145 141.54 18.6492 141.252 18.8524C141.043 18.9992 140.831 19.1233 140.619 19.2206C140.569 19.2439 140.515 19.2547 140.464 19.2547ZM161.775 18.9654C161.604 18.9654 161.45 18.8482 161.409 18.6736C161.296 18.1994 161.169 17.7135 161.024 17.2219C160.965 17.0201 161.079 16.8095 161.278 16.7492C161.478 16.6906 161.688 16.805 161.746 17.0051C161.895 17.5095 162.026 18.0091 162.141 18.4968C162.19 18.7008 162.065 18.9058 161.863 18.9546C161.833 18.9626 161.804 18.9654 161.775 18.9654ZM122.931 17.4621C122.855 17.4621 122.778 17.4391 122.711 17.39C122.543 17.2676 122.505 17.0302 122.626 16.86C122.931 16.4326 123.254 16.023 123.583 15.6423C123.72 15.4833 123.958 15.468 124.115 15.6068C124.271 15.7448 124.287 15.9843 124.15 16.1426C123.836 16.5055 123.529 16.896 123.237 17.3038C123.163 17.407 123.048 17.4621 122.931 17.4621ZM137.431 17.0908C137.23 17.0908 137.063 16.9305 137.055 16.7265L137.051 16.5477C137.051 16.0809 137.124 15.5949 137.27 15.102C137.329 14.9008 137.537 14.7889 137.738 14.8468C137.938 14.9067 138.051 15.119 137.991 15.3202C137.867 15.741 137.803 16.1544 137.804 16.5477L137.807 16.6955C137.815 16.9054 137.653 17.0821 137.446 17.0912C137.441 17.0908 137.435 17.0908 137.431 17.0908ZM141.867 16.8705C141.696 16.8705 141.541 16.7523 141.5 16.5766C141.412 16.1966 141.207 15.7943 140.889 15.3819C140.761 15.2163 140.79 14.9782 140.954 14.8492C141.119 14.7202 141.355 14.7505 141.482 14.9161C141.868 15.4154 142.12 15.9163 142.233 16.4047C142.28 16.6087 142.155 16.813 141.952 16.8611C141.924 16.8677 141.895 16.8705 141.867 16.8705ZM160.912 16.0492C160.758 16.0492 160.614 15.9533 160.558 15.7999C160.384 15.3184 160.196 14.8523 160.001 14.4159C159.915 14.2245 160 13.9996 160.189 13.9128C160.378 13.8246 160.602 13.9121 160.687 14.1028C160.89 14.5571 161.085 15.0399 161.266 15.5388C161.337 15.7361 161.237 15.9543 161.042 16.0261C160.999 16.0418 160.955 16.0492 160.912 16.0492ZM124.915 15.1832C124.813 15.1832 124.713 15.1424 124.639 15.0615C124.497 14.9081 124.506 14.6676 124.659 14.525C125.039 14.1687 125.441 13.8347 125.855 13.5307C126.023 13.4077 126.258 13.4439 126.381 13.6147C126.503 13.7838 126.466 14.0212 126.298 14.1453C125.908 14.4319 125.529 14.7464 125.171 15.0817C125.098 15.1497 125.006 15.1832 124.915 15.1832ZM140.124 14.4553C140.041 14.4553 139.957 14.4277 139.887 14.3705C139.564 14.1056 139.203 13.8532 138.814 13.6196C138.725 13.7524 138.641 13.8853 138.563 14.0195C138.457 14.2004 138.226 14.2593 138.048 14.1537C137.868 14.0474 137.809 13.8145 137.914 13.6336C138.17 13.195 138.481 12.7624 138.838 12.3489C138.975 12.1917 139.213 12.1739 139.369 12.3119C139.526 12.45 139.542 12.6895 139.405 12.8478C139.359 12.9011 139.314 12.9555 139.269 13.0095C139.663 13.2501 140.03 13.5081 140.361 13.7796C140.523 13.9125 140.548 14.1513 140.417 14.3148C140.342 14.4068 140.234 14.4553 140.124 14.4553ZM127.346 13.4028C127.213 13.4028 127.084 13.3317 127.016 13.2062C126.915 13.0221 126.982 12.7913 127.164 12.6898C127.62 12.4374 128.094 12.214 128.573 12.0271C128.768 11.9494 128.985 12.048 129.06 12.244C129.135 12.4399 129.039 12.6595 128.845 12.7352C128.397 12.9112 127.953 13.1197 127.527 13.3564C127.47 13.3881 127.408 13.4028 127.346 13.4028ZM159.669 13.2797C159.538 13.2797 159.409 13.21 159.34 13.0852C159.095 12.6421 158.832 12.2199 158.561 11.8305C158.441 11.6583 158.482 11.4216 158.652 11.3006C158.822 11.1796 159.057 11.2218 159.176 11.3926C159.463 11.8036 159.74 12.2481 159.998 12.7142C160.1 12.8976 160.034 13.1291 159.853 13.2316C159.795 13.264 159.731 13.2797 159.669 13.2797ZM137.529 12.9307C137.481 12.9307 137.433 12.9217 137.386 12.9018C136.942 12.7177 136.477 12.5574 136.004 12.4245C135.803 12.3688 135.686 12.1596 135.742 11.957C135.798 11.7545 136.005 11.6349 136.205 11.6928C136.708 11.8329 137.201 12.0038 137.672 12.1997C137.865 12.2792 137.956 12.5009 137.877 12.6954C137.817 12.8425 137.677 12.9307 137.529 12.9307ZM130.145 12.3091C129.975 12.3091 129.82 12.1927 129.779 12.0184C129.73 11.8141 129.854 11.6095 130.056 11.5596C130.555 11.4386 131.07 11.3497 131.589 11.2954C131.798 11.2717 131.981 11.425 132.002 11.6339C132.024 11.843 131.873 12.0292 131.666 12.0508C131.181 12.1014 130.699 12.185 130.233 12.2987C130.204 12.3053 130.174 12.3091 130.145 12.3091ZM134.632 12.1251C134.613 12.1251 134.594 12.1237 134.576 12.1205C134.093 12.0487 133.604 12.0055 133.123 11.9936C132.915 11.9884 132.75 11.8141 132.755 11.6039C132.76 11.3947 132.942 11.2298 133.141 11.2337C133.654 11.2462 134.173 11.2922 134.687 11.3693C134.892 11.3996 135.034 11.5934 135.004 11.8005C134.976 11.9898 134.815 12.1251 134.632 12.1251ZM140.192 11.9121C140.086 11.9121 139.98 11.8667 139.906 11.7792C139.771 11.6196 139.79 11.3801 139.947 11.2434C140.327 10.9154 140.742 10.5978 141.18 10.2993C141.352 10.1829 141.587 10.2282 141.703 10.4025C141.819 10.5762 141.773 10.8129 141.601 10.9304C141.187 11.2117 140.795 11.5115 140.437 11.8207C140.366 11.8824 140.279 11.9121 140.192 11.9121ZM157.928 10.8048C157.826 10.8048 157.724 10.7634 157.649 10.6811C157.316 10.3109 156.963 9.97304 156.601 9.67567C156.439 9.54354 156.415 9.30404 156.546 9.14123C156.678 8.97947 156.915 8.95437 157.076 9.08615C157.467 9.40688 157.847 9.77119 158.206 10.169C158.347 10.3241 158.336 10.5646 158.182 10.7062C158.109 10.7721 158.018 10.8048 157.928 10.8048ZM142.679 10.2091C142.545 10.2091 142.416 10.1372 142.348 10.01C142.248 9.82522 142.316 9.59444 142.499 9.49508C142.94 9.25383 143.404 9.02444 143.877 8.81248C144.068 8.72637 144.289 8.81318 144.374 9.00527C144.458 9.19736 144.373 9.42152 144.182 9.50693C143.727 9.71088 143.282 9.93155 142.858 10.163C142.801 10.1941 142.74 10.2091 142.679 10.2091ZM145.425 8.97041C145.272 8.97041 145.128 8.87453 145.072 8.72114C145 8.52382 145.101 8.30559 145.296 8.23342C145.755 8.06434 146.238 7.90084 146.744 7.74605C146.943 7.68609 147.153 7.79869 147.213 7.99915C147.273 8.2003 147.161 8.41261 146.962 8.47327C146.47 8.62388 146.001 8.78285 145.555 8.9474C145.512 8.96308 145.468 8.97041 145.425 8.97041ZM155.6 8.90452C155.538 8.90452 155.474 8.88883 155.415 8.85466C155.002 8.61865 154.563 8.4161 154.111 8.25364C153.916 8.18322 153.814 7.96638 153.883 7.76836C153.953 7.57104 154.166 7.46471 154.364 7.53827C154.857 7.71502 155.335 7.93605 155.787 8.19438C155.968 8.29757 156.031 8.52975 155.929 8.71243C155.859 8.83549 155.732 8.90452 155.6 8.90452ZM148.306 8.09467C148.134 8.09467 147.979 7.97509 147.939 7.79869C147.893 7.59405 148.021 7.39046 148.224 7.34444C148.739 7.2266 149.252 7.13736 149.748 7.08018C149.949 7.05717 150.141 7.20638 150.164 7.41486C150.188 7.62333 150.04 7.81194 149.833 7.83564C149.364 7.88898 148.879 7.9737 148.39 8.08491C148.362 8.09188 148.334 8.09467 148.306 8.09467ZM152.788 7.89735C152.766 7.89735 152.745 7.89596 152.724 7.89212C152.264 7.81264 151.78 7.76801 151.287 7.75999C151.078 7.75616 150.913 7.58324 150.916 7.37337C150.92 7.1642 151.087 7.00523 151.299 7C151.831 7.00872 152.353 7.05717 152.85 7.14259C153.056 7.17814 153.193 7.37407 153.158 7.58115C153.127 7.76697 152.968 7.89735 152.788 7.89735Z" fill="#241726"/>
</svg>
