<svg width="56" height="56" viewBox="0 0 56 56" fill="none" xmlns="http://www.w3.org/2000/svg">
<g clip-path="url(#clip0_19_41486)">
<path d="M44.8 0H11.2C5.01441 0 0 5.01441 0 11.2V44.8C0 50.9856 5.01441 56 11.2 56H44.8C50.9856 56 56 50.9856 56 44.8V11.2C56 5.01441 50.9856 0 44.8 0Z" fill="#FFEBEB"/>
<path d="M28 44C28 44 42 37.4 42 27.5V15.95L28 11L14 15.95V27.5C14 37.4 28 44 28 44Z" stroke="#F45757" stroke-width="3" stroke-linecap="round" stroke-linejoin="round"/>
<path d="M33.9205 22.0609C33.5784 21.7246 33.1722 21.4578 32.7252 21.2757C32.2782 21.0937 31.799 21 31.3151 21C30.8312 21 30.3521 21.0937 29.905 21.2757C29.458 21.4578 29.0518 21.7246 28.7098 22.0609L27.9998 22.7586L27.2899 22.0609C26.5989 21.3818 25.6617 21.0004 24.6845 21.0004C23.7073 21.0004 22.7702 21.3818 22.0792 22.0609C21.3882 22.7399 21 23.6609 21 24.6212C21 25.5816 21.3882 26.5026 22.0792 27.1816L22.7891 27.8793L27.9998 33L33.2105 27.8793L33.9205 27.1816C34.2627 26.8454 34.5342 26.4463 34.7194 26.007C34.9047 25.5677 35 25.0968 35 24.6212C35 24.1457 34.9047 23.6748 34.7194 23.2355C34.5342 22.7962 34.2627 22.3971 33.9205 22.0609Z" stroke="#F45757" stroke-width="3" stroke-linecap="round" stroke-linejoin="round"/>
</g>
<defs>
<clipPath id="clip0_19_41486">
<rect width="56" height="56" fill="white"/>
</clipPath>
</defs>
</svg>
