<svg width="24" height="24" viewBox="0 0 24 24" fill="none" xmlns="http://www.w3.org/2000/svg">
<path fill-rule="evenodd" clip-rule="evenodd" d="M3 11C3 6.02944 7.02944 2 12 2C16.9706 2 21 6.02944 21 11C21 15.9706 16.9706 20 12 20C7.02944 20 3 15.9706 3 11ZM12 0C5.92487 0 1 4.92487 1 11C1 17.0751 5.92487 22 12 22C18.0751 22 23 17.0751 23 11C23 4.92487 18.0751 0 12 0ZM11.9308 14.6931L17.7203 8.69307L16.281 7.30433L11.1155 12.6577L7.61434 9.93643L6.38696 11.5155L10.5975 14.7882L11.3069 15.3397L11.9308 14.6931Z" fill="#2B9B5B"/>
</svg>
