<svg width="56" height="56" viewBox="0 0 56 56" fill="none" xmlns="http://www.w3.org/2000/svg">
<g clip-path="url(#clip0_19_41496)">
<path d="M44.8 0H11.2C5.01441 0 0 5.01441 0 11.2V44.8C0 50.9856 5.01441 56 11.2 56H44.8C50.9856 56 56 50.9856 56 44.8V11.2C56 5.01441 50.9856 0 44.8 0Z" fill="#DCF2EF"/>
<path d="M43 34.806C41.9403 37.3181 40.2828 39.5316 38.1724 41.2532C36.0621 42.9748 33.563 44.152 30.894 44.6819C28.2248 45.2117 25.4668 45.0782 22.8611 44.2929C20.2555 43.5075 17.8813 42.0943 15.9464 40.1768C14.0114 38.2594 12.5745 35.8959 11.7614 33.2932C10.9481 30.6905 10.7834 27.9278 11.2815 25.2465C11.7797 22.5653 12.9254 20.0471 14.6188 17.9123C16.3121 15.7774 18.5014 14.0909 20.9953 13" stroke="#129981" stroke-width="3" stroke-linecap="round" stroke-linejoin="round"/>
<path d="M45 28C45 25.7675 44.5603 23.5569 43.7059 21.4944C42.8516 19.4318 41.5994 17.5578 40.0208 15.9792C38.4422 14.4006 36.5682 13.1484 34.5057 12.2941C32.4431 11.4397 30.2325 11 28 11V28H45Z" stroke="#129981" stroke-width="3" stroke-linecap="round" stroke-linejoin="round"/>
</g>
<defs>
<clipPath id="clip0_19_41496">
<rect width="56" height="56" fill="white"/>
</clipPath>
</defs>
</svg>
