<svg width="20" height="20" viewBox="0 0 20 20" fill="none" xmlns="http://www.w3.org/2000/svg">
<path d="M18 9.08336C18.0029 10.1832 17.7459 11.2683 17.25 12.25C16.662 13.4265 15.7581 14.416 14.6395 15.1078C13.521 15.7995 12.2319 16.1662 10.9167 16.1667C9.81678 16.1696 8.73176 15.9126 7.75 15.4167L3 17L4.58333 12.25C4.08744 11.2683 3.83047 10.1832 3.83333 9.08336C3.83384 7.76815 4.20051 6.47907 4.89227 5.36048C5.58402 4.2419 6.57355 3.338 7.75 2.75002C8.73176 2.25413 9.81678 1.99716 10.9167 2.00002H11.3333C13.0703 2.09585 14.7109 2.82899 15.941 4.05907C17.171 5.28915 17.9042 6.92973 18 8.66669V9.08336Z" stroke="white" stroke-width="2" stroke-linecap="round" stroke-linejoin="round"/>
</svg>
