<svg width="49" height="50" viewBox="0 0 49 50" fill="none" xmlns="http://www.w3.org/2000/svg">
<rect y="11" width="40" height="40" rx="10" transform="rotate(-15 0 11)" fill="#4BA9FF"/>
<g clip-path="url(#clip0_19_32861)">
<path d="M28.5528 16.6702L17.2837 19.6897C16.3946 19.928 15.867 20.8419 16.1052 21.731L19.1247 33.0001C19.363 33.8892 20.2769 34.4169 21.166 34.1786L32.4351 31.1591C33.3242 30.9208 33.8519 30.0069 33.6136 29.1178L30.5941 17.8487C30.3558 16.9596 29.442 16.4319 28.5528 16.6702Z" stroke="white" stroke-width="2" stroke-linecap="round" stroke-linejoin="round"/>
<path d="M21.573 24.7517C22.3732 24.5373 22.8481 23.7148 22.6337 22.9146C22.4192 22.1144 21.5967 21.6395 20.7965 21.854C19.9963 22.0684 19.5215 22.8909 19.7359 23.6911C19.9503 24.4913 20.7728 24.9661 21.573 24.7517Z" stroke="white" stroke-width="2" stroke-linecap="round" stroke-linejoin="round"/>
<path d="M31.5494 25.2783L26.5666 22.3782L20.263 33.3847" stroke="white" stroke-width="2" stroke-linecap="round" stroke-linejoin="round"/>
</g>
<defs>
<clipPath id="clip0_19_32861">
<rect width="20" height="20" fill="white" transform="translate(12 18) rotate(-15)"/>
</clipPath>
</defs>
</svg>
