<svg width="378" height="234" viewBox="0 0 378 234" fill="none" xmlns="http://www.w3.org/2000/svg">
<g clip-path="url(#clip0_18_31789)">
<path d="M0 0H378V235H0V0Z" fill="#4BA9FF"/>
<path d="M219.087 47H114.913C109.438 47 105 51.4706 105 56.9854V195.015C105 200.529 109.438 205 114.913 205H219.087C224.562 205 229 200.529 229 195.015V56.9854C229 51.4706 224.562 47 219.087 47Z" stroke="#1C1F23" stroke-linecap="round"/>
<path d="M235.087 30H130.913C125.438 30 121 34.4706 121 39.9854V178.015C121 183.529 125.438 188 130.913 188H235.087C240.562 188 245 183.529 245 178.015V39.9854C245 34.4706 240.562 30 235.087 30Z" fill="white"/>
<path d="M157.016 134H136.984C135.336 134 134 135.331 134 136.973V157.027C134 158.669 135.336 160 136.984 160H157.016C158.664 160 160 158.669 160 157.027V136.973C160 135.331 158.664 134 157.016 134Z" fill="#4BA9FF"/>
<path d="M194.016 134H173.984C172.336 134 171 135.331 171 136.973V157.027C171 158.669 172.336 160 173.984 160H194.016C195.664 160 197 158.669 197 157.027V136.973C197 135.331 195.664 134 194.016 134Z" fill="#4BA9FF"/>
<path d="M230.016 134H209.984C208.336 134 207 135.331 207 136.973V157.027C207 158.669 208.336 160 209.984 160H230.016C231.664 160 233 158.669 233 157.027V136.973C233 135.331 231.664 134 230.016 134Z" fill="#4BA9FF"/>
<path d="M226.012 43H141.988C137.576 43 134 46.5814 134 50.9993V102.001C134 106.419 137.576 110 141.988 110H226.012C230.424 110 234 106.419 234 102.001V50.9993C234 46.5814 230.424 43 226.012 43Z" fill="#EFF3FA"/>
<path d="M169.589 62.9109C171.772 59.0297 177.228 59.0297 179.411 62.9109L194.232 89.2673C196.415 93.1484 193.686 98 189.321 98H159.679C155.314 98 152.585 93.1485 154.768 89.2673L169.589 62.9109Z" fill="white"/>
<path d="M193.687 75.6165C195.965 72.1278 201.035 72.1278 203.313 75.6165L212.039 88.9781C214.565 92.8473 211.816 98 207.226 98H189.774C185.183 98 182.434 92.8473 184.962 88.9781L193.687 75.6165Z" fill="white"/>
<path d="M194 66C197.314 66 200 63.3137 200 60C200 56.6863 197.314 54 194 54C190.686 54 188 56.6863 188 60C188 63.3137 190.686 66 194 66Z" fill="white"/>
<path d="M237.583 148H225.214C224.627 148 224.064 147.767 223.648 147.352C223.233 146.936 223 146.373 223 145.786V133.416C222.999 133.129 223.055 132.844 223.164 132.578C223.274 132.313 223.433 132.071 223.637 131.867L256.843 98.6605C257.049 98.4513 257.294 98.2851 257.565 98.1718C257.837 98.0584 258.127 98 258.421 98C258.714 98 259.005 98.0584 259.275 98.1718C259.546 98.2851 259.792 98.4513 259.997 98.6605L272.34 111.003C272.549 111.208 272.714 111.454 272.827 111.725C272.941 111.995 273 112.286 273 112.579C273 112.873 272.941 113.163 272.827 113.435C272.714 113.706 272.549 113.951 272.34 114.157L239.133 147.364C238.929 147.566 238.687 147.726 238.421 147.836C238.156 147.945 237.871 148.001 237.583 148Z" stroke="#1C1F23" stroke-linecap="round" stroke-linejoin="round"/>
<path d="M134 118H222" stroke="#1C1F23" stroke-linecap="round"/>
<path d="M134 166H160" stroke="#1C1F23" stroke-linecap="round"/>
<path d="M171 166H197" stroke="#1C1F23" stroke-linecap="round"/>
<path d="M207 166H233" stroke="#1C1F23" stroke-linecap="round"/>
<path d="M207 171H220H233" stroke="#1C1F23" stroke-linecap="round"/>
<path d="M134 124H188" stroke="#1C1F23" stroke-linecap="round"/>
<path d="M134 171H160" stroke="#1C1F23" stroke-linecap="round"/>
<path d="M171 171H197" stroke="#1C1F23" stroke-linecap="round"/>
</g>
<defs>
<clipPath id="clip0_18_31789">
<rect width="378" height="235" fill="white"/>
</clipPath>
</defs>
</svg>
