<svg width="64" height="64" viewBox="0 0 64 64" fill="none" xmlns="http://www.w3.org/2000/svg">
<path d="M54 12.002H50C49.4696 12.002 48.9609 12.2127 48.5858 12.5877C48.2107 12.9628 48 13.4715 48 14.0019V16.0018H28.7568L26.3184 8.33411C25.7954 6.76856 24.6828 5.46847 23.2169 4.70982C21.7509 3.95118 20.047 3.79372 18.4668 4.27088C17.6666 4.50363 16.9213 4.89471 16.2751 5.42091C15.6289 5.94711 15.095 6.59772 14.705 7.33415C14.3264 8.04314 14.0942 8.82096 14.022 9.62143C13.9499 10.4219 14.0393 11.2287 14.285 11.994L15.56 16.0018H6C5.46957 16.0018 4.96086 16.2125 4.58579 16.5876C4.21071 16.9626 4 17.4713 4 18.0017V58.0001C4 58.5305 4.21071 59.0392 4.58579 59.4142C4.96086 59.7893 5.46957 60 6 60H54C55.5908 59.9983 57.1159 59.3656 58.2407 58.2408C59.3656 57.116 59.9983 55.5909 60 54.0002V18.0017C59.9983 16.411 59.3656 14.886 58.2407 13.7612C57.1159 12.6364 55.5908 12.0037 54 12.002ZM29.834 32.5919L28.334 35.334L25.434 33.8477L19.98 16.6994L24.3654 15.3938L29.834 32.5919ZM18.24 9.20528C18.3828 8.93983 18.5773 8.70571 18.8121 8.51678C19.047 8.32785 19.3173 8.18793 19.6072 8.10532C20.183 7.92112 20.808 7.96875 21.3492 8.2381C21.8905 8.50744 22.3053 8.97725 22.5056 9.54766L23.1528 11.582L18.7674 12.8875L18.0976 10.782C18.0143 10.5231 17.984 10.25 18.0084 9.97916C18.0329 9.70827 18.1116 9.44508 18.24 9.20528V9.20528ZM54 56.0002H8V20.0016H16.8316L21.873 35.8546C21.9532 36.1061 22.0823 36.3393 22.2529 36.5407C22.4235 36.7422 22.6323 36.9079 22.8672 37.0283L28.2422 39.7808C28.5238 39.9255 28.8358 40.0009 29.1524 40.0008H35C35.7956 40.0008 36.5587 40.3169 37.1213 40.8795C37.6839 41.442 38 42.2051 38 43.0007C38 43.7963 37.6839 44.5593 37.1213 45.1219C36.5587 45.6845 35.7956 46.0006 35 46.0006H14V50.0004H35C36.8565 50.0004 38.637 49.2629 39.9497 47.9502C41.2625 46.6375 42 44.8571 42 43.0007C42 41.1443 41.2625 39.3638 39.9497 38.0511C38.637 36.7384 36.8565 36.001 35 36.001H32.528L33.754 33.7611C33.8844 33.524 33.9651 33.2629 33.9913 32.9936C34.0175 32.7243 33.9886 32.4525 33.9064 32.1947L30.0288 20.0016H48V50.0004C48 50.5308 48.2107 51.0395 48.5858 51.4146C48.9609 51.7896 49.4696 52.0003 50 52.0003H54C54.5304 52.0003 55.0391 52.211 55.4142 52.5861C55.7893 52.9611 56 53.4698 56 54.0002C56 54.5307 55.7893 55.0393 55.4142 55.4144C55.0391 55.7895 54.5304 56.0002 54 56.0002ZM56 48.3433C55.3578 48.1158 54.6813 47.9999 54 48.0005H52V16.0018H54C54.5303 16.0023 55.0387 16.2132 55.4136 16.5881C55.7886 16.9631 55.9995 17.4715 56 18.0017V48.3433Z" fill="#FF872E"/>
</svg>
