<svg width="378" height="234" viewBox="0 0 378 234" fill="none" xmlns="http://www.w3.org/2000/svg">
<g clip-path="url(#clip0_18_31820)">
<path d="M0 0H378V235H0V0Z" fill="#4BA9FF"/>
<path d="M241 155.065V48.9353C241 43.4482 236.536 39 231.028 39L86.9717 39C81.4645 39 77 43.4482 77 48.9353V155.065C77 160.552 81.4645 165 86.9717 165H231.028C236.536 165 241 160.552 241 155.065Z" stroke="#1C1F23" stroke-linecap="round"/>
<path d="M267 176.077V68.9233C267 63.4428 262.543 59 257.044 59L107.956 59C102.457 59 98 63.4428 98 68.9233V176.077C98 181.557 102.457 186 107.956 186H257.044C262.543 186 267 181.557 267 176.077Z" fill="white"/>
<path d="M113 76C114.657 76 116 74.6569 116 73C116 71.3431 114.657 70 113 70C111.343 70 110 71.3431 110 73C110 74.6569 111.343 76 113 76Z" fill="#DFE5EE"/>
<path d="M122 76C123.657 76 125 74.6569 125 73C125 71.3431 123.657 70 122 70C120.343 70 119 71.3431 119 73C119 74.6569 120.343 76 122 76Z" fill="#DFE5EE"/>
<path d="M131 76C132.657 76 134 74.6569 134 73C134 71.3431 132.657 70 131 70C129.343 70 128 71.3431 128 73C128 74.6569 129.343 76 131 76Z" fill="#DFE5EE"/>
<path d="M110 92H181" stroke="#1C1F23" stroke-linecap="round"/>
<path d="M117 110H172" stroke="#4BA9FF" stroke-linecap="round"/>
<path d="M180 110H235" stroke="#1C1F23" stroke-linecap="round"/>
<path d="M189 92H226" stroke="#4BA9FF" stroke-linecap="round"/>
<path d="M232 92H250" stroke="#1C1F23" stroke-linecap="round"/>
<path d="M124 101H213" stroke="#1C1F23" stroke-linecap="round"/>
<path d="M221 101H257" stroke="#1C1F23" stroke-linecap="round"/>
<path d="M241 119H186" stroke="#1C1F23" stroke-linecap="round"/>
<path d="M229 137H195" stroke="#1C1F23" stroke-linecap="round"/>
<path d="M188 137H142" stroke="#1C1F23" stroke-linecap="round"/>
<path d="M179 119H142" stroke="#1C1F23" stroke-linecap="round"/>
<path d="M136 119H118" stroke="#1C1F23" stroke-linecap="round"/>
<path d="M217 128H155" stroke="#4BA9FF" stroke-linecap="round"/>
<path d="M146 128H110" stroke="#1C1F23" stroke-linecap="round"/>
<path d="M267.501 180C276.06 180 283 173.061 283 164.5C283 155.94 276.06 149 267.501 149C258.94 149 252 155.94 252 164.5C252 173.061 258.94 180 267.501 180Z" stroke="#1C1F23" stroke-linecap="round" stroke-linejoin="round"/>
<path d="M289.843 149.726C290.619 150.839 291.297 152.016 291.872 153.245L300.211 157.896C301.252 162.573 301.263 167.421 300.243 172.103L291.872 176.754C291.297 177.983 290.619 179.16 289.843 180.273L290.005 189.863C286.471 193.093 282.288 195.527 277.738 197L269.528 192.059C268.178 192.156 266.822 192.156 265.471 192.059L257.293 196.967C252.729 195.521 248.533 193.097 244.995 189.863L245.156 180.305C244.387 179.176 243.709 177.99 243.127 176.754L234.789 172.103C233.748 167.426 233.737 162.578 234.757 157.896L243.127 153.245C243.703 152.016 244.381 150.839 245.156 149.726L244.995 140.136C248.529 136.906 252.711 134.472 257.261 133L265.471 137.94C266.822 137.843 268.178 137.843 269.528 137.94L277.706 133.032C282.271 134.478 286.467 136.902 290.005 140.136L289.843 149.726Z" stroke="#1C1F23" stroke-linecap="round" stroke-linejoin="round"/>
</g>
<defs>
<clipPath id="clip0_18_31820">
<rect width="378" height="235" fill="white"/>
</clipPath>
</defs>
</svg>
