<svg width="21" height="20" viewBox="0 0 21 20" fill="none" xmlns="http://www.w3.org/2000/svg">
<g clip-path="url(#clip0_12_39021)">
<path d="M20.666 10C20.666 4.47715 16.1889 0 10.666 0C5.14316 0 0.666016 4.47715 0.666016 10C0.666016 14.9912 4.32285 19.1283 9.10352 19.8785V12.8906H6.56445V10H9.10352V7.79688C9.10352 5.29063 10.5965 3.90625 12.8807 3.90625C13.9744 3.90625 15.1191 4.10156 15.1191 4.10156V6.5625H13.8582C12.616 6.5625 12.2285 7.3334 12.2285 8.125V10H15.002L14.5586 12.8906H12.2285V19.8785C17.0092 19.1283 20.666 14.9912 20.666 10Z" fill="#272D37"/>
<path d="M14.5586 12.8906L15.002 10H12.2285V8.125C12.2285 7.33418 12.616 6.5625 13.8582 6.5625H15.1191V4.10156C15.1191 4.10156 13.9748 3.90625 12.8807 3.90625C10.5965 3.90625 9.10352 5.29063 9.10352 7.79688V10H6.56445V12.8906H9.10352V19.8785C10.1389 20.0405 11.1931 20.0405 12.2285 19.8785V12.8906H14.5586Z" fill="white"/>
</g>
<defs>
<clipPath id="clip0_12_39021">
<rect width="20" height="20" fill="white" transform="translate(0.666016)"/>
</clipPath>
</defs>
</svg>
