<svg width="25" height="24" viewBox="0 0 25 24" fill="none" xmlns="http://www.w3.org/2000/svg">
<g filter="url(#filter0_d_354_49680)">
<path d="M12.0749 0C8.73495 0 7.75815 0.00344645 7.56828 0.0192016C6.88287 0.0761911 6.45636 0.184139 5.99171 0.415543C5.63363 0.593404 5.35122 0.799575 5.0725 1.08858C4.5649 1.61564 4.25727 2.26407 4.14591 3.03484C4.09176 3.40903 4.07601 3.48534 4.07281 5.39664C4.07158 6.03374 4.07281 6.87221 4.07281 7.99686C4.07281 11.335 4.0765 12.3111 4.0925 12.5006C4.14788 13.1678 4.25247 13.5875 4.47397 14.0466C4.89727 14.9254 5.70574 15.5852 6.65817 15.8314C6.98796 15.9163 7.3522 15.9631 7.8198 15.9852C8.01792 15.9938 10.0372 16 12.0578 16C14.0783 16 16.0989 15.9975 16.2921 15.9877C16.8335 15.9622 17.1479 15.92 17.4955 15.8301C17.9678 15.709 18.4079 15.4862 18.7852 15.1773C19.1624 14.8684 19.4677 14.4808 19.6797 14.0417C19.8969 13.5936 20.007 13.1579 20.0569 12.5256C20.0677 12.3878 20.0723 10.1898 20.0723 7.99477C20.0723 5.79938 20.0673 3.60547 20.0565 3.46762C20.0061 2.8251 19.8959 2.39306 19.6717 1.93641C19.4878 1.56259 19.2835 1.28343 18.9869 0.997992C18.4578 0.492349 17.8105 0.184631 17.0391 0.0733601C16.6654 0.0193247 16.591 0.00332336 14.6787 0H12.0749Z" fill="url(#paint0_radial_354_49680)"/>
<path d="M12.0749 0C8.73495 0 7.75815 0.00344645 7.56828 0.0192016C6.88287 0.0761911 6.45636 0.184139 5.99171 0.415543C5.63363 0.593404 5.35122 0.799575 5.0725 1.08858C4.5649 1.61564 4.25727 2.26407 4.14591 3.03484C4.09176 3.40903 4.07601 3.48534 4.07281 5.39664C4.07158 6.03374 4.07281 6.87221 4.07281 7.99686C4.07281 11.335 4.0765 12.3111 4.0925 12.5006C4.14788 13.1678 4.25247 13.5875 4.47397 14.0466C4.89727 14.9254 5.70574 15.5852 6.65817 15.8314C6.98796 15.9163 7.3522 15.9631 7.8198 15.9852C8.01792 15.9938 10.0372 16 12.0578 16C14.0783 16 16.0989 15.9975 16.2921 15.9877C16.8335 15.9622 17.1479 15.92 17.4955 15.8301C17.9678 15.709 18.4079 15.4862 18.7852 15.1773C19.1624 14.8684 19.4677 14.4808 19.6797 14.0417C19.8969 13.5936 20.007 13.1579 20.0569 12.5256C20.0677 12.3878 20.0723 10.1898 20.0723 7.99477C20.0723 5.79938 20.0673 3.60547 20.0565 3.46762C20.0061 2.8251 19.8959 2.39306 19.6717 1.93641C19.4878 1.56259 19.2835 1.28343 18.9869 0.997992C18.4578 0.492349 17.8105 0.184631 17.0391 0.0733601C16.6654 0.0193247 16.591 0.00332336 14.6787 0H12.0749Z" fill="url(#paint1_radial_354_49680)"/>
<path d="M12.071 2.09375C10.4669 2.09375 10.2656 2.10077 9.63553 2.12945C9.00673 2.15825 8.57752 2.25783 8.20196 2.40393C7.81348 2.55484 7.48394 2.7567 7.15563 3.08522C6.82708 3.41362 6.62527 3.74324 6.47391 4.13171C6.32748 4.50749 6.2278 4.93694 6.1995 5.56567C6.17145 6.19588 6.16406 6.39738 6.16406 8.00194C6.16406 9.60651 6.1712 9.80726 6.19975 10.4375C6.22867 11.0664 6.32822 11.4958 6.47416 11.8714C6.62515 12.26 6.82695 12.5897 7.15538 12.9181C7.48357 13.2467 7.81311 13.449 8.20134 13.6C8.57715 13.7461 9.00648 13.8456 9.63516 13.8744C10.2652 13.9031 10.4664 13.9101 12.0704 13.9101C13.6747 13.9101 13.8754 13.9031 14.5054 13.8744C15.1342 13.8456 15.5639 13.7461 15.9397 13.6C16.3281 13.449 16.6571 13.2467 16.9853 12.9181C17.3138 12.5897 17.5157 12.26 17.667 11.8716C17.8122 11.4958 17.9119 11.0663 17.9414 10.4376C17.9697 9.80739 17.9771 9.60651 17.9771 8.00194C17.9771 6.39738 17.9697 6.196 17.9414 5.5658C17.9119 4.93682 17.8122 4.50749 17.667 4.13183C17.5157 3.74324 17.3138 3.41362 16.9853 3.08522C16.6567 2.75658 16.3282 2.55471 15.9393 2.40393C15.5628 2.25783 15.1333 2.15825 14.5045 2.12945C13.8745 2.10077 13.6739 2.09375 12.0693 2.09375H12.071ZM11.5411 3.15846C11.6984 3.15821 11.8739 3.15846 12.071 3.15846C13.6481 3.15846 13.835 3.16412 14.4578 3.19243C15.0337 3.21877 15.3462 3.31502 15.5544 3.39589C15.8301 3.50298 16.0266 3.63099 16.2332 3.83777C16.4399 4.04456 16.5679 4.2415 16.6752 4.51722C16.756 4.72523 16.8524 5.03788 16.8786 5.61392C16.9069 6.23675 16.9131 6.42384 16.9131 8.00059C16.9131 9.57734 16.9069 9.76443 16.8786 10.3873C16.8523 10.9633 16.756 11.2759 16.6752 11.484C16.5681 11.7597 16.4399 11.956 16.2332 12.1627C16.0265 12.3694 15.8302 12.4975 15.5544 12.6045C15.3465 12.6858 15.0337 12.7818 14.4578 12.8081C13.8351 12.8364 13.6481 12.8426 12.071 12.8426C10.4938 12.8426 10.3069 12.8364 9.68426 12.8081C9.10837 12.7815 8.79581 12.6853 8.58748 12.6044C8.31184 12.4973 8.11496 12.3693 7.90823 12.1625C7.7015 11.9558 7.57352 11.7593 7.46622 11.4835C7.38537 11.2755 7.28902 10.9628 7.26281 10.3868C7.23451 9.76394 7.22885 9.57684 7.22885 7.99911C7.22885 6.42138 7.23451 6.23527 7.26281 5.61245C7.28914 5.0364 7.38537 4.72376 7.46622 4.51549C7.57327 4.23978 7.7015 4.04284 7.90823 3.83605C8.11496 3.62926 8.31184 3.50125 8.58748 3.39392C8.79569 3.31268 9.10837 3.21668 9.68426 3.19021C10.2291 3.16559 10.4403 3.15821 11.5411 3.15698V3.15846ZM15.2239 4.13946C15.0837 4.13946 14.9467 4.18105 14.8301 4.25896C14.7135 4.33688 14.6227 4.44762 14.569 4.57719C14.5154 4.70675 14.5014 4.84931 14.5287 4.98685C14.5561 5.12439 14.6236 5.25072 14.7228 5.34986C14.8219 5.449 14.9483 5.51651 15.0858 5.54383C15.2233 5.57116 15.3658 5.55709 15.4953 5.50339C15.6248 5.44969 15.7355 5.35878 15.8134 5.24216C15.8912 5.12553 15.9327 4.98843 15.9327 4.8482C15.9327 4.45678 15.6152 4.13922 15.2239 4.13922V4.13946ZM12.071 4.96784C10.3959 4.96784 9.03774 6.32635 9.03774 8.00194C9.03774 9.67753 10.3959 11.0354 12.071 11.0354C13.7461 11.0354 15.1039 9.67753 15.1039 8.00194C15.1039 6.32635 13.746 4.96784 12.0709 4.96784H12.071ZM12.071 6.03254C13.1583 6.03254 14.0399 6.91422 14.0399 8.00194C14.0399 9.08954 13.1583 9.97134 12.071 9.97134C10.9836 9.97134 10.1022 9.08954 10.1022 8.00194C10.1022 6.91422 10.9836 6.03254 12.071 6.03254V6.03254Z" fill="white"/>
</g>
<defs>
<filter id="filter0_d_354_49680" x="0.0722656" y="0" width="24" height="24" filterUnits="userSpaceOnUse" color-interpolation-filters="sRGB">
<feFlood flood-opacity="0" result="BackgroundImageFix"/>
<feColorMatrix in="SourceAlpha" type="matrix" values="0 0 0 0 0 0 0 0 0 0 0 0 0 0 0 0 0 0 127 0" result="hardAlpha"/>
<feOffset dy="4"/>
<feGaussianBlur stdDeviation="2"/>
<feComposite in2="hardAlpha" operator="out"/>
<feColorMatrix type="matrix" values="0 0 0 0 0 0 0 0 0 0 0 0 0 0 0 0 0 0 0.25 0"/>
<feBlend mode="normal" in2="BackgroundImageFix" result="effect1_dropShadow_354_49680"/>
<feBlend mode="normal" in="SourceGraphic" in2="effect1_dropShadow_354_49680" result="shape"/>
</filter>
<radialGradient id="paint0_radial_354_49680" cx="0" cy="0" r="1" gradientUnits="userSpaceOnUse" gradientTransform="translate(8.32229 17.2323) rotate(-90) scale(15.8572 14.7484)">
<stop stop-color="#FFDD55"/>
<stop offset="0.1" stop-color="#FFDD55"/>
<stop offset="0.5" stop-color="#FF543E"/>
<stop offset="1" stop-color="#C837AB"/>
</radialGradient>
<radialGradient id="paint1_radial_354_49680" cx="0" cy="0" r="1" gradientUnits="userSpaceOnUse" gradientTransform="translate(1.39218 1.15261) rotate(78.6806) scale(7.08823 29.218)">
<stop stop-color="#3771C8"/>
<stop offset="0.128" stop-color="#3771C8"/>
<stop offset="1" stop-color="#6600FF" stop-opacity="0"/>
</radialGradient>
</defs>
</svg>
