<svg width="43" height="36" viewBox="0 0 43 36" fill="none" xmlns="http://www.w3.org/2000/svg">
<mask id="mask0_19_43883" style="mask-type:luminance" maskUnits="userSpaceOnUse" x="0" y="4" width="42" height="28">
<path d="M42 4H0V32H42V4Z" fill="white"/>
</mask>
<g mask="url(#mask0_19_43883)">
<path d="M42 4H0V32H42V4Z" fill="#FF9933"/>
<path d="M42 13H0V22H42V13Z" fill="white"/>
<path d="M42 23H0V32H42V23Z" fill="#128807"/>
<path d="M20.5 21C22.433 21 24 19.433 24 17.5C24 15.567 22.433 14 20.5 14C18.5671 14 17 15.567 17 17.5C17 19.433 18.5671 21 20.5 21Z" fill="#4BA9FF"/>
<path d="M21.5 22C23.433 22 25 20.433 25 18.5C25 16.567 23.433 15 21.5 15C19.567 15 18 16.567 18 18.5C18 20.433 19.567 22 21.5 22Z" fill="white"/>
<path d="M20.5 18C20.7761 18 21 17.7761 21 17.5C21 17.2239 20.7761 17 20.5 17C20.2239 17 20 17.2239 20 17.5C20 17.7761 20.2239 18 20.5 18Z" fill="#4BA9FF"/>
<path d="M24.1423 18.3257C24.2317 18.3375 24.3139 18.2745 24.3257 18.185C24.3375 18.0954 24.2745 18.0132 24.185 18.0014C24.0954 17.9896 24.0132 18.0527 24.0014 18.1422C23.9896 18.2317 24.0527 18.3139 24.1423 18.3257Z" fill="#4BA9FF"/>
<path d="M21.112 21L21.224 18.9677L21.112 18L21 18.9677L21.112 21Z" fill="#4BA9FF"/>
<path d="M24.101 19.3146C24.1844 19.3493 24.2801 19.3096 24.3147 19.2261C24.3493 19.1426 24.3096 19.047 24.2261 19.0125C24.1428 18.9779 24.047 19.0176 24.0125 19.101C23.9779 19.1844 24.0176 19.2801 24.101 19.3146Z" fill="#4BA9FF"/>
<path d="M20 21L20.8219 18.9988L21 18L20.5329 18.9366L20 21Z" fill="#4BA9FF"/>
<path d="M23.064 20.2933C23.1357 20.3483 23.2384 20.3347 23.2933 20.2631C23.3483 20.1915 23.3347 20.0888 23.2632 20.0338C23.1915 19.9788 23.0888 19.9923 23.0338 20.064C22.9788 20.1356 22.9923 20.2384 23.064 20.2933Z" fill="#4BA9FF"/>
<path d="M19 21L19.7445 19.0348L20 18L19.6104 18.9007L19 21Z" fill="#4BA9FF"/>
<path d="M23.0338 20.2631C23.0887 20.3347 23.1914 20.3483 23.2631 20.2933C23.3348 20.2383 23.3483 20.1356 23.2933 20.064C23.2383 19.9923 23.1356 19.9788 23.0639 20.0338C22.9923 20.0888 22.9788 20.1915 23.0338 20.2631Z" fill="#4BA9FF"/>
<path d="M19 20L20.4323 18.7225L21 18L20.2775 18.5677L19 20Z" fill="#4BA9FF"/>
<path d="M22.0125 21.2261C22.047 21.3096 22.1427 21.3493 22.2262 21.3147C22.3096 21.2801 22.3493 21.1844 22.3147 21.101C22.2802 21.0176 22.1844 20.9779 22.1011 21.0125C22.0176 21.047 21.9779 21.1428 22.0125 21.2261Z" fill="#4BA9FF"/>
<path d="M18 19L20.0993 18.3897L21 18L19.9652 18.2555L18 19Z" fill="#4BA9FF"/>
<path d="M21.0014 21.1849C21.0132 21.2744 21.0953 21.3374 21.1849 21.3257C21.2744 21.3139 21.3374 21.2318 21.3257 21.1422C21.3139 21.0526 21.2318 20.9896 21.1422 21.0014C21.0526 21.0132 20.9896 21.0953 21.0014 21.1849Z" fill="#4BA9FF"/>
<path d="M18 19L20.0634 18.4671L21 18L20.0012 18.1781L18 19Z" fill="#4BA9FF"/>
<path d="M20.0014 21.1422C19.9896 21.2318 20.0526 21.3139 20.1422 21.3257C20.2317 21.3375 20.3139 21.2745 20.3257 21.185C20.3375 21.0954 20.2745 21.0132 20.185 21.0014C20.0954 20.9896 20.0132 21.0526 20.0014 21.1422Z" fill="#4BA9FF"/>
<path d="M18 18.1119L20.0323 18.224L21 18.1119L20.0323 18L18 18.1119Z" fill="#4BA9FF"/>
<path d="M20.0125 21.101C19.9779 21.1844 20.0176 21.2801 20.1011 21.3147C20.1844 21.3493 20.2802 21.3096 20.3147 21.2261C20.3493 21.1428 20.3096 21.047 20.2262 21.0125C20.1427 20.9779 20.047 21.0176 20.0125 21.101Z" fill="#4BA9FF"/>
<path d="M18 17L20.0012 17.8219L21 18L20.0634 17.5329L18 17Z" fill="#4BA9FF"/>
<path d="M19.0338 20.064C18.9789 20.1357 18.9923 20.2384 19.064 20.2933C19.1357 20.3483 19.2383 20.3347 19.2933 20.2632C19.3482 20.1915 19.3348 20.0888 19.2631 20.0338C19.1914 19.9788 19.0888 19.9923 19.0338 20.064Z" fill="#4BA9FF"/>
<path d="M18 16L19.9652 16.7445L21 17L20.0993 16.6103L18 16Z" fill="#4BA9FF"/>
<path d="M18.064 20.0338C17.9923 20.0888 17.9788 20.1914 18.0338 20.2631C18.0888 20.3348 18.1915 20.3483 18.2631 20.2933C18.3347 20.2383 18.3483 20.1357 18.2933 20.064C18.2384 19.9923 18.1356 19.9789 18.064 20.0338Z" fill="#4BA9FF"/>
<path d="M19 16L20.2774 17.4323L21 18L20.4323 17.2774L19 16Z" fill="#4BA9FF"/>
<path d="M18.101 19.0125C18.0176 19.047 17.9779 19.1427 18.0125 19.2261C18.047 19.3096 18.1428 19.3493 18.2261 19.3146C18.3096 19.2801 18.3493 19.1845 18.3147 19.101C18.2801 19.0175 18.1844 18.978 18.101 19.0125Z" fill="#4BA9FF"/>
<path d="M19 15L19.6104 17.0993L20 18L19.7445 16.9652L19 15Z" fill="#4BA9FF"/>
<path d="M18.1422 18.0014C18.0526 18.0132 17.9896 18.0954 18.0014 18.1849C18.0131 18.2745 18.0953 18.3375 18.1849 18.3257C18.2744 18.3139 18.3374 18.2318 18.3256 18.1423C18.3138 18.0527 18.2318 17.9897 18.1422 18.0014Z" fill="#4BA9FF"/>
<path d="M20 15L20.5331 17.0634L21 18L20.8219 17.0012L20 15Z" fill="#4BA9FF"/>
<path d="M18.1849 17.0014C18.0953 16.9896 18.0132 17.0526 18.0014 17.1422C17.9896 17.2317 18.0526 17.3139 18.1422 17.3257C18.2318 17.3375 18.3139 17.2745 18.3256 17.185C18.3374 17.0954 18.2744 17.0132 18.1849 17.0014Z" fill="#4BA9FF"/>
<path d="M21.1119 15L21 17.0323L21.1119 18L21.224 17.0323L21.1119 15Z" fill="#4BA9FF"/>
<path d="M18.2261 17.0125C18.1427 16.978 18.047 17.0175 18.0125 17.101C17.9779 17.1845 18.0176 17.2801 18.1011 17.3146C18.1844 17.3492 18.2802 17.3096 18.3147 17.2261C18.3493 17.1427 18.3096 17.047 18.2261 17.0125Z" fill="#4BA9FF"/>
<path d="M22 15L21.1781 17.0012L21 18L21.4671 17.0634L22 15Z" fill="#4BA9FF"/>
<path d="M18.2631 16.0338C18.1914 15.9788 18.0888 15.9923 18.0338 16.064C17.9789 16.1356 17.9923 16.2383 18.064 16.2933C18.1357 16.3483 18.2383 16.3347 18.2933 16.2631C18.3482 16.1915 18.3348 16.0888 18.2631 16.0338Z" fill="#4BA9FF"/>
<path d="M22 15L21.2555 16.9652L21 18L21.3897 17.0993L22 15Z" fill="#4BA9FF"/>
<path d="M19.2933 15.064C19.2383 14.9923 19.1356 14.9788 19.064 15.0338C18.9923 15.0888 18.9788 15.1915 19.0338 15.2631C19.0888 15.3347 19.1915 15.3483 19.2631 15.2933C19.3347 15.2383 19.3483 15.1356 19.2933 15.064Z" fill="#4BA9FF"/>
<path d="M23 16L21.5677 17.2774L21 18L21.7226 17.4322L23 16Z" fill="#4BA9FF"/>
<path d="M20.3147 15.101C20.2802 15.0175 20.1844 14.9779 20.1011 15.0125C20.0176 15.0471 19.9779 15.1427 20.0125 15.2262C20.0471 15.3096 20.1427 15.3492 20.2262 15.3147C20.3096 15.2801 20.3493 15.1844 20.3147 15.101Z" fill="#4BA9FF"/>
<path d="M24 16L21.9007 16.6104L21 17L22.0348 16.7445L24 16Z" fill="#4BA9FF"/>
<path d="M20.3256 15.1422C20.3138 15.0527 20.2317 14.9896 20.1422 15.0014C20.0526 15.0132 19.9896 15.0954 20.0014 15.1849C20.0131 15.2745 20.0953 15.3375 20.1849 15.3257C20.2744 15.3139 20.3374 15.2318 20.3256 15.1422Z" fill="#4BA9FF"/>
<path d="M24 17L21.9366 17.5331L21 18L21.9988 17.8219L24 17Z" fill="#4BA9FF"/>
<path d="M21.3257 15.1849C21.3375 15.0954 21.2745 15.0132 21.185 15.0014C21.0954 14.9896 21.0132 15.0527 21.0014 15.1422C20.9896 15.2317 21.0527 15.3139 21.1423 15.3257C21.2319 15.3375 21.3139 15.2745 21.3257 15.1849Z" fill="#4BA9FF"/>
<path d="M24 18.112L21.9677 18L21 18.112L21.9677 18.224L24 18.112Z" fill="#4BA9FF"/>
<path d="M22.3147 15.2262C22.3493 15.1427 22.3096 15.0471 22.2262 15.0125C22.1427 14.9779 22.0471 15.0175 22.0125 15.101C21.9779 15.1845 22.0176 15.2801 22.1011 15.3147C22.1844 15.3492 22.2802 15.3096 22.3147 15.2262Z" fill="#4BA9FF"/>
<path d="M24 19L21.9989 18.1782L21 18L21.9365 18.4671L24 19Z" fill="#4BA9FF"/>
<path d="M23.2933 15.2631C23.3483 15.1915 23.3348 15.0888 23.2631 15.0338C23.1914 14.9788 23.0887 14.9923 23.0338 15.064C22.9788 15.1356 22.9923 15.2383 23.0639 15.2933C23.1356 15.3483 23.2383 15.3347 23.2933 15.2631Z" fill="#4BA9FF"/>
<path d="M24 19L22.0348 18.2555L21 18L21.9007 18.3897L24 19Z" fill="#4BA9FF"/>
<path d="M23.2632 16.2933C23.3347 16.2383 23.3483 16.1357 23.2933 16.064C23.2384 15.9923 23.1356 15.9789 23.064 16.0338C22.9923 16.0888 22.9788 16.1914 23.0338 16.2631C23.0888 16.3348 23.1915 16.3482 23.2632 16.2933Z" fill="#4BA9FF"/>
<path d="M23 20L21.7226 18.5677L21 18L21.5677 18.7226L23 20Z" fill="#4BA9FF"/>
<path d="M24.2262 17.3146C24.3096 17.2801 24.3492 17.1844 24.3147 17.101C24.2801 17.0176 24.1845 16.9779 24.101 17.0125C24.0175 17.047 23.9779 17.1426 24.0125 17.2261C24.0471 17.3096 24.1427 17.3493 24.2262 17.3146Z" fill="#4BA9FF"/>
<path d="M22 21L21.3897 18.9007L21 18L21.2555 19.0348L22 21Z" fill="#4BA9FF"/>
<path d="M24.1849 17.3257C24.2744 17.3139 24.3375 17.2318 24.3257 17.1422C24.3139 17.0526 24.2317 16.9896 24.1422 17.0014C24.0526 17.0132 23.9896 17.0954 24.0014 17.1849C24.0132 17.2744 24.0953 17.3375 24.1849 17.3257Z" fill="#4BA9FF"/>
<path d="M22 21L21.4671 18.9366L21 18L21.1781 18.9988L22 21Z" fill="#4BA9FF"/>
</g>
</svg>
