<svg width="49" height="37" viewBox="0 0 49 37" fill="none" xmlns="http://www.w3.org/2000/svg">
<g clip-path="url(#clip0_464_48732)">
<path d="M0.556641 0.570312H48.5566V12.5703H0.556641V0.570312Z" fill="#FF9933"/>
<path d="M0.556641 12.5703H48.5566V24.5703H0.556641V12.5703Z" fill="white"/>
<path d="M0.556641 24.5703H48.5566V36.5703H0.556641V24.5703Z" fill="#128807"/>
<path d="M24.5578 23.3734C27.2088 23.3734 29.3578 21.2244 29.3578 18.5734C29.3578 15.9225 27.2088 13.7734 24.5578 13.7734C21.9068 13.7734 19.7578 15.9225 19.7578 18.5734C19.7578 21.2244 21.9068 23.3734 24.5578 23.3734Z" fill="#000088"/>
<path d="M24.5574 22.7711C26.877 22.7711 28.7574 20.8907 28.7574 18.5711C28.7574 16.2515 26.877 14.3711 24.5574 14.3711C22.2378 14.3711 20.3574 16.2515 20.3574 18.5711C20.3574 20.8907 22.2378 22.7711 24.5574 22.7711Z" fill="white"/>
<path d="M24.5568 19.4105C25.0207 19.4105 25.3968 19.0344 25.3968 18.5705C25.3968 18.1065 25.0207 17.7305 24.5568 17.7305C24.0929 17.7305 23.7168 18.1065 23.7168 18.5705C23.7168 19.0344 24.0929 19.4105 24.5568 19.4105Z" fill="#000088"/>
<path d="M28.6929 19.3354C28.8112 19.351 28.9197 19.2677 28.9353 19.1494C28.9508 19.0312 28.8676 18.9227 28.7493 18.9071C28.631 18.8915 28.5225 18.9748 28.507 19.0931C28.4914 19.2113 28.5746 19.3198 28.6929 19.3354Z" fill="#000088"/>
<path d="M24.5581 22.7708L24.7021 20.2508L24.5581 19.0508L24.4141 20.2508L24.5581 22.7708Z" fill="#000088"/>
<path d="M28.3565 20.3802C28.4667 20.4259 28.5931 20.3735 28.6387 20.2633C28.6844 20.1531 28.632 20.0267 28.5218 19.9811C28.4116 19.9354 28.2853 19.9878 28.2396 20.098C28.194 20.2082 28.2463 20.3346 28.3565 20.3802Z" fill="#000088"/>
<path d="M23.4712 22.6305L24.2625 20.2337L24.434 19.0373L23.9843 20.1591L23.4712 22.6305Z" fill="#000088"/>
<path d="M27.7599 21.3023C27.8546 21.375 27.9902 21.3571 28.0628 21.2625C28.1354 21.1678 28.1176 21.0322 28.0229 20.9596C27.9283 20.887 27.7927 20.9048 27.7201 20.9995C27.6474 21.0941 27.6653 21.2297 27.7599 21.3023Z" fill="#000088"/>
<path d="M22.46 22.2077L23.8447 20.0973L24.32 18.9861L23.5953 19.9533L22.46 22.2077Z" fill="#000088"/>
<path d="M26.9431 22.0359C27.0157 22.1306 27.1513 22.1484 27.2459 22.0758C27.3406 22.0032 27.3584 21.8676 27.2858 21.7729C27.2132 21.6783 27.0776 21.6604 26.9829 21.7331C26.8883 21.8057 26.8704 21.9413 26.9431 22.0359Z" fill="#000088"/>
<path d="M21.5905 21.5409L23.4743 19.8608L24.221 18.9104L23.2706 19.6571L21.5905 21.5409Z" fill="#000088"/>
<path d="M25.9648 22.5368C26.0104 22.647 26.1368 22.6993 26.247 22.6537C26.3572 22.608 26.4096 22.4816 26.3639 22.3714C26.3183 22.2612 26.1919 22.2089 26.0817 22.2545C25.9715 22.3002 25.9191 22.4265 25.9648 22.5368Z" fill="#000088"/>
<path d="M20.9207 20.6722L23.1751 19.5369L24.1423 18.8122L23.0311 19.2875L20.9207 20.6722Z" fill="#000088"/>
<path d="M24.8909 22.7627C24.9065 22.881 25.015 22.9643 25.1333 22.9487C25.2515 22.9331 25.3348 22.8246 25.3192 22.7063C25.3036 22.5881 25.1951 22.5048 25.0769 22.5204C24.9586 22.536 24.8753 22.6445 24.8909 22.7627Z" fill="#000088"/>
<path d="M20.5026 19.6566L22.974 19.1435L24.0959 18.6938L22.8995 18.8653L20.5026 19.6566Z" fill="#000088"/>
<path d="M23.7955 22.7046C23.7799 22.8229 23.8631 22.9314 23.9814 22.947C24.0997 22.9626 24.2082 22.8793 24.2238 22.761C24.2393 22.6428 24.1561 22.5343 24.0378 22.5187C23.9195 22.5031 23.811 22.5864 23.7955 22.7046Z" fill="#000088"/>
<path d="M20.3601 18.5698L22.8801 18.7138L24.0801 18.5698L22.8801 18.4258L20.3601 18.5698Z" fill="#000088"/>
<path d="M22.7506 22.3663C22.705 22.4765 22.7573 22.6028 22.8675 22.6485C22.9778 22.6941 23.1041 22.6418 23.1498 22.5316C23.1954 22.4214 23.1431 22.295 23.0329 22.2494C22.9227 22.2037 22.7963 22.2561 22.7506 22.3663Z" fill="#000088"/>
<path d="M20.5023 17.4849L22.8992 18.2762L24.0955 18.4477L22.9737 17.998L20.5023 17.4849Z" fill="#000088"/>
<path d="M21.8305 21.7717C21.7578 21.8663 21.7757 22.0019 21.8703 22.0745C21.965 22.1471 22.1006 22.1293 22.1732 22.0346C22.2458 21.94 22.228 21.8044 22.1333 21.7318C22.0387 21.6592 21.9031 21.677 21.8305 21.7717Z" fill="#000088"/>
<path d="M20.9212 16.4717L23.0316 17.8564L24.1428 18.3317L23.1756 17.607L20.9212 16.4717Z" fill="#000088"/>
<path d="M21.0949 20.9528C21.0003 21.0254 20.9825 21.161 21.0551 21.2557C21.1277 21.3503 21.2633 21.3682 21.3579 21.2956C21.4526 21.2229 21.4704 21.0873 21.3978 20.9927C21.3252 20.8981 21.1896 20.8802 21.0949 20.9528Z" fill="#000088"/>
<path d="M21.59 15.6003L23.2701 17.484L24.2204 18.2307L23.4737 17.2804L21.59 15.6003Z" fill="#000088"/>
<path d="M20.5941 19.9765C20.4839 20.0222 20.4316 20.1485 20.4772 20.2587C20.5229 20.3689 20.6492 20.4213 20.7594 20.3756C20.8696 20.33 20.922 20.2036 20.8763 20.0934C20.8307 19.9832 20.7043 19.9309 20.5941 19.9765Z" fill="#000088"/>
<path d="M22.4587 14.9324L23.5939 17.1868L24.3187 18.154L23.8434 17.0428L22.4587 14.9324Z" fill="#000088"/>
<path d="M20.3642 18.9007C20.246 18.9162 20.1627 19.0247 20.1783 19.143C20.1938 19.2613 20.3023 19.3445 20.4206 19.329C20.5389 19.3134 20.6221 19.2049 20.6066 19.0866C20.591 18.9684 20.4825 18.8851 20.3642 18.9007Z" fill="#000088"/>
<path d="M23.4704 14.5104L23.9835 16.9818L24.4332 18.1037L24.2617 16.9073L23.4704 14.5104Z" fill="#000088"/>
<path d="M20.4243 17.8091C20.306 17.7936 20.1975 17.8768 20.1819 17.9951C20.1663 18.1134 20.2496 18.2219 20.3679 18.2374C20.4862 18.253 20.5947 18.1697 20.6102 18.0515C20.6258 17.9332 20.5425 17.8247 20.4243 17.8091Z" fill="#000088"/>
<path d="M24.5591 14.3737L24.4151 16.8938L24.5591 18.0938L24.7031 16.8938L24.5591 14.3737Z" fill="#000088"/>
<path d="M20.7607 16.7643C20.6505 16.7187 20.5241 16.771 20.4785 16.8812C20.4328 16.9914 20.4852 17.1178 20.5954 17.1634C20.7056 17.2091 20.8319 17.1567 20.8776 17.0465C20.9232 16.9363 20.8709 16.81 20.7607 16.7643Z" fill="#000088"/>
<path d="M25.646 14.514L24.8547 16.9109L24.6832 18.1073L25.1328 16.9854L25.646 14.514Z" fill="#000088"/>
<path d="M21.3572 15.8422C21.2626 15.7696 21.127 15.7874 21.0544 15.8821C20.9818 15.9767 20.9996 16.1123 21.0943 16.1849C21.1889 16.2575 21.3245 16.2397 21.3971 16.145C21.4697 16.0504 21.4519 15.9148 21.3572 15.8422Z" fill="#000088"/>
<path d="M26.6572 14.9369L25.2725 17.0472L24.7972 18.1585L25.5219 17.1912L26.6572 14.9369Z" fill="#000088"/>
<path d="M22.1741 15.1086C22.1015 15.014 21.9659 14.9961 21.8713 15.0687C21.7766 15.1414 21.7588 15.277 21.8314 15.3716C21.904 15.4662 22.0396 15.4841 22.1343 15.4115C22.2289 15.3389 22.2467 15.2033 22.1741 15.1086Z" fill="#000088"/>
<path d="M27.5267 15.6037L25.6429 17.2838L24.8962 18.2341L25.8466 17.4874L27.5267 15.6037Z" fill="#000088"/>
<path d="M23.1524 14.6078C23.1067 14.4976 22.9804 14.4452 22.8702 14.4909C22.76 14.5365 22.7076 14.6629 22.7533 14.7731C22.7989 14.8833 22.9253 14.9356 23.0355 14.89C23.1457 14.8443 23.198 14.718 23.1524 14.6078Z" fill="#000088"/>
<path d="M28.1965 16.4723L25.9421 17.6076L24.9749 18.3323L26.0861 17.857L28.1965 16.4723Z" fill="#000088"/>
<path d="M24.2263 14.3818C24.2107 14.2635 24.1022 14.1803 23.9839 14.1958C23.8657 14.2114 23.7824 14.3199 23.798 14.4382C23.8135 14.5565 23.9221 14.6397 24.0403 14.6242C24.1586 14.6086 24.2419 14.5001 24.2263 14.3818Z" fill="#000088"/>
<path d="M28.6146 17.4879L26.1432 18.0011L25.0213 18.4508L26.2177 18.2793L28.6146 17.4879Z" fill="#000088"/>
<path d="M25.3217 14.4399C25.3373 14.3216 25.254 14.2131 25.1358 14.1975C25.0175 14.182 24.909 14.2652 24.8934 14.3835C24.8779 14.5018 24.9611 14.6103 25.0794 14.6258C25.1977 14.6414 25.3062 14.5582 25.3217 14.4399Z" fill="#000088"/>
<path d="M28.7571 18.5747L26.2371 18.4307L25.0371 18.5747L26.2371 18.7188L28.7571 18.5747Z" fill="#000088"/>
<path d="M26.3665 14.7783C26.4122 14.668 26.3599 14.5417 26.2496 14.496C26.1394 14.4504 26.0131 14.5027 25.9674 14.6129C25.9218 14.7232 25.9741 14.8495 26.0843 14.8952C26.1945 14.9408 26.3209 14.8885 26.3665 14.7783Z" fill="#000088"/>
<path d="M28.6149 19.6597L26.218 18.8683L25.0216 18.6968L26.1435 19.1465L28.6149 19.6597Z" fill="#000088"/>
<path d="M27.2867 15.369C27.3593 15.2743 27.3415 15.1387 27.2468 15.0661C27.1522 14.9935 27.0166 15.0113 26.944 15.106C26.8714 15.2006 26.8892 15.3362 26.9839 15.4088C27.0785 15.4815 27.2141 15.4636 27.2867 15.369Z" fill="#000088"/>
<path d="M28.196 20.6689L26.0856 19.2842L24.9743 18.8089L25.9416 19.5336L28.196 20.6689Z" fill="#000088"/>
<path d="M28.0222 16.1878C28.1169 16.1152 28.1347 15.9796 28.0621 15.8849C27.9895 15.7903 27.8539 15.7724 27.7593 15.8451C27.6646 15.9177 27.6468 16.0533 27.7194 16.1479C27.792 16.2426 27.9276 16.2604 28.0222 16.1878Z" fill="#000088"/>
<path d="M27.5272 21.5403L25.8471 19.6566L24.8967 18.9099L25.6434 19.8602L27.5272 21.5403Z" fill="#000088"/>
<path d="M28.5231 17.1641C28.6333 17.1185 28.6856 16.9921 28.64 16.8819C28.5943 16.7717 28.468 16.7193 28.3578 16.765C28.2475 16.8106 28.1952 16.937 28.2409 17.0472C28.2865 17.1574 28.4129 17.2098 28.5231 17.1641Z" fill="#000088"/>
<path d="M26.6585 22.2082L25.5232 19.9538L24.7985 18.9866L25.2738 20.0978L26.6585 22.2082Z" fill="#000088"/>
<path d="M28.753 18.24C28.8712 18.2244 28.9545 18.1159 28.9389 17.9976C28.9233 17.8793 28.8148 17.7961 28.6966 17.8117C28.5783 17.8272 28.495 17.9357 28.5106 18.054C28.5262 18.1723 28.6347 18.2555 28.753 18.24Z" fill="#000088"/>
<path d="M25.6468 22.6302L25.1337 20.1588L24.684 19.0369L24.8555 20.2333L25.6468 22.6302Z" fill="#000088"/>
</g>
<defs>
<clipPath id="clip0_464_48732">
<rect width="48" height="36" fill="white" transform="translate(0.556641 0.570312)"/>
</clipPath>
</defs>
</svg>
