<svg width="66" height="65" viewBox="0 0 66 65" fill="none" xmlns="http://www.w3.org/2000/svg">
<path d="M33.5 3C16.9582 3 3.5 16.457 3.5 33C3.5 49.543 16.9582 63 33.5 63C50.0418 63 63.5 49.543 63.5 33C63.5 28.5326 62.5108 24.2927 60.7512 20.4787C59.5446 22.4497 57.6676 23.9659 55.4319 24.6924C56.4154 27.2803 56.9783 30.0718 56.9783 33C56.9783 45.9457 46.4456 56.4783 33.5 56.4783C20.5543 56.4783 10.0217 45.9457 10.0217 33C10.0217 20.0544 20.5543 9.52176 33.5 9.52176C37.0217 9.52176 40.3514 10.3221 43.3514 11.7178C44.2318 9.55255 45.8659 7.77626 47.9268 6.70669C43.6433 4.34582 38.7265 3 33.5 3ZM52.413 8.21739C50.5104 8.21739 48.6857 8.97321 47.3403 10.3186C45.9949 11.664 45.2391 13.4887 45.2391 15.3913C45.2391 17.2939 45.9949 19.1187 47.3403 20.4641C48.6857 21.8094 50.5104 22.5652 52.413 22.5652C54.3157 22.5652 56.1404 21.8094 57.4858 20.4641C58.8312 19.1187 59.587 17.2939 59.587 15.3913C59.587 13.4887 58.8312 11.664 57.4858 10.3186C56.1404 8.97321 54.3157 8.21739 52.413 8.21739ZM33.5 19.9565C30.0407 19.9565 26.723 21.3307 24.2769 23.7768C21.8307 26.223 20.4565 29.5407 20.4565 33C20.4565 36.4593 21.8307 39.777 24.2769 42.2231C26.723 44.6692 30.0407 46.0435 33.5 46.0435C36.9593 46.0435 40.277 44.6692 42.7231 42.2231C45.1693 39.777 46.5435 36.4593 46.5435 33C46.5435 29.5407 45.1693 26.223 42.7231 23.7768C40.277 21.3307 36.9593 19.9565 33.5 19.9565Z" fill="#4BA9FF"/>
</svg>
