<svg width="95" height="62" viewBox="0 0 95 62" fill="none" xmlns="http://www.w3.org/2000/svg">
<path fill-rule="evenodd" clip-rule="evenodd" d="M60 1.79609V60.2046C60 61.192 59.2122 62 58.2476 62H45.7522C44.7878 62 44 61.192 44 60.2046V1.79609C44 0.806757 44.7878 0 45.7522 0H58.2476C59.2122 0 60 0.806757 60 1.79609Z" fill="#FFB901"/>
<path fill-rule="evenodd" clip-rule="evenodd" d="M11.5232 62H23.835C25.0479 62 26.5238 61.0829 27.0993 59.8699C27.1199 59.7973 27.1446 59.7235 27.172 59.6491L32.297 45.8625H44.4694C46.4241 45.8625 48.5531 44.4591 49.2131 42.7469L53.1217 32.598C53.7817 30.8858 52.7054 29.4821 50.7575 29.4821H38.3862L45.4144 10.5755C47.4416 5.12037 53.53 0.732768 59 0.0827712C58.7188 0.0289699 58.4225 0 58.1212 0H52.4239H48.9928H44.2473C38.4663 0 31.425 4.66221 29.1431 10.5755L21.8467 29.4821H8.84533C6.89768 29.4821 4.75785 30.896 4.10242 32.598L0.193804 42.7469C-0.462594 44.4513 0.603569 45.8625 2.55824 45.8625H15.5257L10.2053 59.6491C9.69899 60.9615 10.2375 62 11.5232 62Z" fill="#4385F6"/>
<path fill-rule="evenodd" clip-rule="evenodd" d="M93.4942 0H81.1762C79.963 0 78.4866 0.916337 77.9109 2.12944C77.8896 2.20271 77.8656 2.27648 77.8375 2.35097L59.59 51.4244C57.5613 56.8803 51.471 61.268 46 61.9172C46.2813 61.9718 46.5772 62 46.8784 62H52.5794H56.0116H60.7589C66.5415 62 73.5846 57.3385 75.8677 51.4244L94.811 2.35097C95.3182 1.03782 94.7795 0 93.4942 0Z" fill="#EA4436"/>
</svg>
