<svg width="16" height="16" viewBox="0 0 16 16" fill="none" xmlns="http://www.w3.org/2000/svg">
<path d="M4.53905 6.63102e-07C3.71475 6.63102e-07 2.95011 0.206074 2.24512 0.618222C1.56182 1.01952 1.01952 1.56182 0.618221 2.24512C0.206074 2.95011 0 3.71475 0 4.53905V10.461C0 11.2852 0.206074 12.0499 0.618221 12.7549C1.01952 13.4382 1.56182 13.9805 2.24512 14.3818C2.95011 14.7939 3.71475 15 4.53905 15H10.461C11.2852 15 12.0499 14.7939 12.7549 14.3818C13.4382 13.9805 13.9805 13.4382 14.3818 12.7549C14.7939 12.0499 15 11.2852 15 10.461V4.53905C15 3.71475 14.7939 2.95011 14.3818 2.24512C13.9805 1.56182 13.4382 1.01952 12.7549 0.618222C12.0499 0.206074 11.2852 6.63102e-07 10.461 6.63102e-07H4.53905ZM11.4534 2.76573C11.6703 2.76573 11.8547 2.84165 12.0065 2.99349C12.1584 3.14534 12.2343 3.32972 12.2343 3.54664C12.2343 3.76356 12.1584 3.95065 12.0065 4.10792C11.8547 4.26518 11.6703 4.34382 11.4534 4.34382C11.2364 4.34382 11.0493 4.26518 10.8921 4.10792C10.7348 3.95065 10.6562 3.76356 10.6562 3.54664C10.6562 3.32972 10.7348 3.14534 10.8921 2.99349C11.0493 2.84165 11.2364 2.76573 11.4534 2.76573ZM7.5 3.54664C8.21583 3.54664 8.87744 3.72289 9.48482 4.07538C10.0922 4.42787 10.5721 4.90781 10.9246 5.51518C11.2771 6.12256 11.4534 6.78417 11.4534 7.5C11.4534 8.21584 11.2771 8.87473 10.9246 9.47668C10.5721 10.0786 10.0922 10.5559 9.48482 10.9084C8.87744 11.2608 8.21583 11.4371 7.5 11.4371C6.78416 11.4371 6.12527 11.2608 5.52332 10.9084C4.92137 10.5559 4.44414 10.0786 4.09165 9.47668C3.73915 8.87473 3.56291 8.21584 3.56291 7.5C3.56291 6.78417 3.73915 6.12256 4.09165 5.51518C4.44414 4.90781 4.92137 4.42787 5.52332 4.07538C6.12527 3.72289 6.78416 3.54664 7.5 3.54664ZM7.5 4.73427C7.16377 4.73427 6.81128 4.80477 6.44252 4.94577C6.0846 5.10846 5.78362 5.31182 5.53959 5.55586C5.29555 5.79989 5.09761 6.09545 4.94577 6.44252C4.80477 6.81128 4.73427 7.16377 4.73427 7.5C4.73427 7.83623 4.80477 8.18872 4.94577 8.55748C5.10846 8.9154 5.30911 9.21367 5.54772 9.45228C5.78633 9.69089 6.0846 9.89154 6.44252 10.0542C6.81128 10.1952 7.16377 10.2657 7.5 10.2657C7.83623 10.2657 8.18872 10.1952 8.55748 10.0542C8.90455 9.90239 9.20011 9.70445 9.44414 9.46041C9.68818 9.21638 9.89154 8.9154 10.0542 8.55748C10.1952 8.18872 10.2657 7.83623 10.2657 7.5C10.2657 7.16377 10.1952 6.81128 10.0542 6.44252C9.91323 6.09545 9.71529 5.79447 9.46041 5.53959C9.20553 5.28471 8.90455 5.08677 8.55748 4.94577C8.18872 4.80477 7.83623 4.73427 7.5 4.73427Z" fill="#121212"/>
</svg>
