<svg width="55" height="65" viewBox="0 0 55 65" fill="none" xmlns="http://www.w3.org/2000/svg">
<path d="M52.8875 50.0962C51.9707 52.2358 50.8378 54.276 49.5069 56.1852C47.7289 58.7275 46.2687 60.4842 45.1496 61.4621C43.4113 63.0597 41.5438 63.8817 39.5473 63.9281C38.1169 63.9281 36.3885 63.5204 34.3754 62.6918C32.3557 61.8664 30.5015 61.4621 28.8029 61.4621C27.0249 61.4621 25.1177 61.8664 23.0748 62.6918C21.0352 63.5204 19.3863 63.9547 18.1248 63.9944C16.2143 64.0773 14.3038 63.2354 12.4 61.4621C11.1848 60.4014 9.66501 58.5783 7.84063 55.9996C5.88711 53.2517 4.28125 50.0531 3.02305 46.417C1.67545 42.4825 1 38.6773 1 34.9915C1 30.772 1.91054 27.1292 3.73493 24.0797C5.1148 21.6848 7.08753 19.686 9.46305 18.2758C11.8055 16.8693 14.4796 16.1119 17.2109 16.0816C18.734 16.0816 20.7306 16.5522 23.2039 17.4803C25.6773 18.4084 27.2666 18.8791 27.9586 18.8791C28.4817 18.8791 30.2399 18.3256 33.2331 17.2284C36.0574 16.2108 38.4414 15.7899 40.3949 15.9556C45.6926 16.3832 49.6691 18.4714 52.3147 22.2368C47.5799 25.1106 45.239 29.1312 45.2853 34.2921C45.325 38.3127 46.7852 41.6572 49.646 44.3122C50.9107 45.5238 52.3864 46.4932 54 47.1727C53.649 48.1903 53.2782 49.1615 52.8875 50.0962ZM40.7459 2.26287C40.7459 5.41176 39.5936 8.35515 37.3057 11.0765C34.5376 14.3116 31.1935 16.1843 27.5679 15.8893C27.5204 15.4933 27.4972 15.0948 27.4983 14.6961C27.4983 11.6698 28.8095 8.4347 31.1504 5.78632C32.3159 4.44721 33.7993 3.33018 35.5972 2.44186C37.3918 1.5668 39.087 1.08287 40.683 1C40.726 1.42427 40.7459 1.84523 40.7459 2.26287Z" fill="#4BA9FF"/>
</svg>
