<svg width="21" height="20" viewBox="0 0 21 20" fill="none" xmlns="http://www.w3.org/2000/svg">
<path d="M0.666016 1.43266C0.666016 0.641875 1.32805 0 2.14414 0H19.1879C20.0043 0 20.666 0.641875 20.666 1.43266V18.5676C20.666 19.3586 20.0043 20 19.1879 20H2.14414C1.32813 20 0.666016 19.3587 0.666016 18.5678V1.43242V1.43266Z" fill="#272D37"/>
<path d="M6.74344 16.7391V7.735H3.75062V16.7391H6.74375H6.74344ZM5.24766 6.50586C6.29109 6.50586 6.9407 5.81445 6.9407 4.95039C6.92117 4.06664 6.29109 3.39453 5.2675 3.39453C4.2432 3.39453 3.57422 4.06664 3.57422 4.95031C3.57422 5.81437 4.22359 6.50578 5.22805 6.50578H5.24742L5.24766 6.50586ZM8.4 16.7391H11.3926V11.7113C11.3926 11.4426 11.4121 11.1731 11.4912 10.9812C11.7074 10.4433 12.1998 9.88648 13.0268 9.88648C14.1095 9.88648 14.5428 10.7121 14.5428 11.9227V16.7391H17.5353V11.5764C17.5353 8.81086 16.0591 7.52391 14.0901 7.52391C12.4758 7.52391 11.7668 8.42617 11.3729 9.0407H11.3928V7.73531H8.40016C8.43922 8.58 8.39992 16.7394 8.39992 16.7394L8.4 16.7391Z" fill="white"/>
</svg>
