<svg width="271" height="64" viewBox="0 0 271 64" fill="none" xmlns="http://www.w3.org/2000/svg">
<path fill-rule="evenodd" clip-rule="evenodd" d="M125.499 11.2296L114.938 38H106L120.603 1H130.386L145 38H136.062L130.809 24.6991C129.447 21.2527 128.417 18.6501 125.499 11.2296ZM202 30H222.393C222.62 30 222.826 29.9608 223.009 29.8842C223.193 29.8068 223.367 29.6856 223.528 29.5214C223.621 29.4274 223.697 29.3379 223.753 29.2544C223.809 29.1729 223.856 29.0875 223.892 28.9999C223.927 28.913 223.955 28.8183 223.973 28.7191C223.99 28.6212 224 28.5066 224 28.3777V11.6306C224 11.4002 223.961 11.1911 223.886 11.005C223.81 10.8193 223.69 10.6422 223.528 10.4786C223.435 10.3842 223.346 10.3061 223.265 10.2497C223.187 10.1944 223.104 10.1489 223.021 10.1132C222.927 10.0752 222.831 10.0455 222.736 10.0282C222.636 10.0095 222.522 10 222.393 10H202V30ZM233 27.7832C233 28.4735 232.935 29.1479 232.807 29.8021C232.678 30.4568 232.484 31.0903 232.226 31.7007C231.972 32.3037 231.651 32.8855 231.266 33.4434C230.879 34.0026 230.439 34.5257 229.947 35.0093L229.715 35.2371H229.7C229.273 35.6327 228.822 35.9881 228.349 36.3025C227.786 36.6776 227.193 36.9914 226.575 37.2423C225.951 37.4952 225.307 37.6855 224.645 37.8104C223.978 37.9365 223.293 38 222.591 38H193V1H222.591C223.294 1 223.98 1.06328 224.646 1.1896C225.313 1.3164 225.959 1.50671 226.579 1.75959C227.193 2.00934 227.785 2.32501 228.353 2.703C228.921 3.0822 229.455 3.51528 229.947 3.99866C230.445 4.49334 230.887 5.01762 231.269 5.57077C231.653 6.12681 231.973 6.70715 232.226 7.30674C232.484 7.91643 232.678 8.55067 232.807 9.20535C232.935 9.86004 233 10.534 233 11.2243V27.7832ZM158 30H178.393C178.62 30 178.826 29.9608 179.009 29.8842C179.193 29.8068 179.367 29.6856 179.528 29.5214C179.621 29.4274 179.697 29.3379 179.753 29.2544C179.809 29.1729 179.856 29.0875 179.892 28.9999C179.927 28.913 179.955 28.8183 179.973 28.7191C179.99 28.6212 180 28.5066 180 28.3777V11.6306C180 11.4002 179.961 11.1911 179.886 11.005C179.81 10.8193 179.69 10.6422 179.528 10.4786C179.435 10.3842 179.346 10.3061 179.265 10.2497C179.187 10.1944 179.104 10.1489 179.021 10.1132C178.927 10.0752 178.831 10.0455 178.736 10.0282C178.637 10.0095 178.522 10 178.393 10H158V30ZM189 27.7832C189 28.4735 188.935 29.1479 188.807 29.8021C188.678 30.4568 188.484 31.0903 188.226 31.7007C187.972 32.3037 187.651 32.8855 187.266 33.4434C186.879 34.0026 186.439 34.5257 185.947 35.0093L185.715 35.2371H185.7C185.273 35.6327 184.822 35.9881 184.349 36.3025C183.786 36.6776 183.193 36.9914 182.575 37.2423C181.951 37.4952 181.307 37.6855 180.645 37.8104C179.978 37.9365 179.293 38 178.591 38H149V1H178.591C179.294 1 179.98 1.06328 180.646 1.1896C181.313 1.3164 181.959 1.50671 182.579 1.75959C183.193 2.00934 183.785 2.32501 184.353 2.703C184.921 3.0822 185.455 3.51528 185.947 3.99866C186.445 4.49334 186.887 5.01762 187.269 5.57077C187.653 6.12681 187.973 6.70715 188.226 7.30674C188.484 7.91643 188.678 8.55067 188.807 9.20535C188.935 9.86004 189 10.534 189 11.2243V27.7832Z" fill="#333333"/>
<path fill-rule="evenodd" clip-rule="evenodd" d="M248.535 37L234 0H239.278L251.729 31.7141H253.262L265.713 0H271L256.465 37H248.535Z" fill="#333333"/>
<path fill-rule="evenodd" clip-rule="evenodd" d="M60 1.79609V60.2046C60 61.192 59.2122 62 58.2476 62H45.7522C44.7878 62 44 61.192 44 60.2046V1.79609C44 0.806757 44.7878 0 45.7522 0H58.2476C59.2122 0 60 0.806757 60 1.79609Z" fill="#FFB901"/>
<path fill-rule="evenodd" clip-rule="evenodd" d="M11.5232 62H23.835C25.0479 62 26.5238 61.0829 27.0993 59.8699C27.1199 59.7973 27.1446 59.7235 27.172 59.6491L32.297 45.8625H44.4694C46.4241 45.8625 48.5531 44.4591 49.2131 42.7469L53.1217 32.598C53.7817 30.8858 52.7054 29.4821 50.7575 29.4821H38.3862L45.4144 10.5755C47.4416 5.12037 53.53 0.732768 59 0.0827712C58.7188 0.0289699 58.4225 0 58.1212 0H52.4239H48.9928H44.2473C38.4663 0 31.425 4.66221 29.1431 10.5755L21.8467 29.4821H8.84533C6.89768 29.4821 4.75785 30.896 4.10242 32.598L0.193804 42.7469C-0.462594 44.4513 0.603569 45.8625 2.55824 45.8625H15.5257L10.2053 59.6491C9.69899 60.9615 10.2375 62 11.5232 62Z" fill="#4385F6"/>
<path fill-rule="evenodd" clip-rule="evenodd" d="M93.4942 0H81.1762C79.963 0 78.4866 0.916337 77.9109 2.12944C77.8896 2.20271 77.8656 2.27648 77.8375 2.35097L59.59 51.4244C57.5613 56.8803 51.471 61.268 46 61.9172C46.2813 61.9718 46.5772 62 46.8784 62H52.5794H56.0116H60.7589C66.5415 62 73.5846 57.3385 75.8677 51.4244L94.811 2.35097C95.3182 1.03782 94.7795 0 93.4942 0Z" fill="#EA4436"/>
<path d="M122.368 52.636V61H121.276V57.208H117.016V61H115.924V52.636H117.016V56.308H121.276V52.636H122.368ZM125.325 53.524V56.32H128.373V57.22H125.325V60.1H128.733V61H124.233V52.624H128.733V53.524H125.325ZM135.329 59.14H131.681L131.009 61H129.857L132.881 52.684H134.141L137.153 61H136.001L135.329 59.14ZM135.017 58.252L133.505 54.028L131.993 58.252H135.017ZM139.563 60.112H142.491V61H138.471V52.636H139.563V60.112ZM148.799 52.636V53.524H146.519V61H145.427V53.524H143.135V52.636H148.799ZM156.587 52.636V61H155.495V57.208H151.235V61H150.143V52.636H151.235V56.308H155.495V52.636H156.587ZM166.799 52.636V53.524H164.519V61H163.427V53.524H161.135V52.636H166.799ZM169.235 53.524V56.32H172.283V57.22H169.235V60.1H172.643V61H168.143V52.624H172.643V53.524H169.235ZM173.887 56.812C173.887 55.996 174.071 55.264 174.439 54.616C174.807 53.96 175.307 53.448 175.939 53.08C176.579 52.712 177.287 52.528 178.063 52.528C178.975 52.528 179.771 52.748 180.451 53.188C181.131 53.628 181.627 54.252 181.939 55.06H180.631C180.399 54.556 180.063 54.168 179.623 53.896C179.191 53.624 178.671 53.488 178.063 53.488C177.479 53.488 176.955 53.624 176.491 53.896C176.027 54.168 175.663 54.556 175.399 55.06C175.135 55.556 175.003 56.14 175.003 56.812C175.003 57.476 175.135 58.06 175.399 58.564C175.663 59.06 176.027 59.444 176.491 59.716C176.955 59.988 177.479 60.124 178.063 60.124C178.671 60.124 179.191 59.992 179.623 59.728C180.063 59.456 180.399 59.068 180.631 58.564H181.939C181.627 59.364 181.131 59.984 180.451 60.424C179.771 60.856 178.975 61.072 178.063 61.072C177.287 61.072 176.579 60.892 175.939 60.532C175.307 60.164 174.807 59.656 174.439 59.008C174.071 58.36 173.887 57.628 173.887 56.812ZM190.009 52.636V61H188.917V57.208H184.657V61H183.565V52.636H184.657V56.308H188.917V52.636H190.009ZM197.724 61.084C197.172 61.084 196.676 60.988 196.236 60.796C195.804 60.596 195.464 60.324 195.216 59.98C194.968 59.628 194.84 59.224 194.832 58.768H195.996C196.036 59.16 196.196 59.492 196.476 59.764C196.764 60.028 197.18 60.16 197.724 60.16C198.244 60.16 198.652 60.032 198.948 59.776C199.252 59.512 199.404 59.176 199.404 58.768C199.404 58.448 199.316 58.188 199.14 57.988C198.964 57.788 198.744 57.636 198.48 57.532C198.216 57.428 197.86 57.316 197.412 57.196C196.86 57.052 196.416 56.908 196.08 56.764C195.752 56.62 195.468 56.396 195.228 56.092C194.996 55.78 194.88 55.364 194.88 54.844C194.88 54.388 194.996 53.984 195.228 53.632C195.46 53.28 195.784 53.008 196.2 52.816C196.624 52.624 197.108 52.528 197.652 52.528C198.436 52.528 199.076 52.724 199.572 53.116C200.076 53.508 200.36 54.028 200.424 54.676H199.224C199.184 54.356 199.016 54.076 198.72 53.836C198.424 53.588 198.032 53.464 197.544 53.464C197.088 53.464 196.716 53.584 196.428 53.824C196.14 54.056 195.996 54.384 195.996 54.808C195.996 55.112 196.08 55.36 196.248 55.552C196.424 55.744 196.636 55.892 196.884 55.996C197.14 56.092 197.496 56.204 197.952 56.332C198.504 56.484 198.948 56.636 199.284 56.788C199.62 56.932 199.908 57.16 200.148 57.472C200.388 57.776 200.508 58.192 200.508 58.72C200.508 59.128 200.4 59.512 200.184 59.872C199.968 60.232 199.648 60.524 199.224 60.748C198.8 60.972 198.3 61.084 197.724 61.084ZM205.907 61.084C205.131 61.084 204.423 60.904 203.783 60.544C203.143 60.176 202.635 59.668 202.259 59.02C201.891 58.364 201.707 57.628 201.707 56.812C201.707 55.996 201.891 55.264 202.259 54.616C202.635 53.96 203.143 53.452 203.783 53.092C204.423 52.724 205.131 52.54 205.907 52.54C206.691 52.54 207.403 52.724 208.043 53.092C208.683 53.452 209.187 53.956 209.555 54.604C209.923 55.252 210.107 55.988 210.107 56.812C210.107 57.636 209.923 58.372 209.555 59.02C209.187 59.668 208.683 60.176 208.043 60.544C207.403 60.904 206.691 61.084 205.907 61.084ZM205.907 60.136C206.491 60.136 207.015 60 207.479 59.728C207.951 59.456 208.319 59.068 208.583 58.564C208.855 58.06 208.991 57.476 208.991 56.812C208.991 56.14 208.855 55.556 208.583 55.06C208.319 54.556 207.955 54.168 207.491 53.896C207.027 53.624 206.499 53.488 205.907 53.488C205.315 53.488 204.787 53.624 204.323 53.896C203.859 54.168 203.491 54.556 203.219 55.06C202.955 55.556 202.823 56.14 202.823 56.812C202.823 57.476 202.955 58.06 203.219 58.564C203.491 59.068 203.859 59.456 204.323 59.728C204.795 60 205.323 60.136 205.907 60.136ZM212.641 60.112H215.569V61H211.549V52.636H212.641V60.112ZM217.797 52.636V57.928C217.797 58.672 217.977 59.224 218.337 59.584C218.705 59.944 219.213 60.124 219.861 60.124C220.501 60.124 221.001 59.944 221.361 59.584C221.729 59.224 221.913 58.672 221.913 57.928V52.636H223.005V57.916C223.005 58.612 222.865 59.2 222.585 59.68C222.305 60.152 221.925 60.504 221.445 60.736C220.973 60.968 220.441 61.084 219.849 61.084C219.257 61.084 218.721 60.968 218.241 60.736C217.769 60.504 217.393 60.152 217.113 59.68C216.841 59.2 216.705 58.612 216.705 57.916V52.636H217.797ZM229.974 52.636V53.524H227.694V61H226.602V53.524H224.31V52.636H229.974ZM232.411 52.636V61H231.319V52.636H232.411ZM238.064 61.084C237.288 61.084 236.58 60.904 235.94 60.544C235.3 60.176 234.792 59.668 234.416 59.02C234.048 58.364 233.864 57.628 233.864 56.812C233.864 55.996 234.048 55.264 234.416 54.616C234.792 53.96 235.3 53.452 235.94 53.092C236.58 52.724 237.288 52.54 238.064 52.54C238.848 52.54 239.56 52.724 240.2 53.092C240.84 53.452 241.344 53.956 241.712 54.604C242.08 55.252 242.264 55.988 242.264 56.812C242.264 57.636 242.08 58.372 241.712 59.02C241.344 59.668 240.84 60.176 240.2 60.544C239.56 60.904 238.848 61.084 238.064 61.084ZM238.064 60.136C238.648 60.136 239.172 60 239.636 59.728C240.108 59.456 240.476 59.068 240.74 58.564C241.012 58.06 241.148 57.476 241.148 56.812C241.148 56.14 241.012 55.556 240.74 55.06C240.476 54.556 240.112 54.168 239.648 53.896C239.184 53.624 238.656 53.488 238.064 53.488C237.472 53.488 236.944 53.624 236.48 53.896C236.016 54.168 235.648 54.556 235.376 55.06C235.112 55.556 234.98 56.14 234.98 56.812C234.98 57.476 235.112 58.06 235.376 58.564C235.648 59.068 236.016 59.456 236.48 59.728C236.952 60 237.48 60.136 238.064 60.136ZM250.281 61H249.189L244.797 54.34V61H243.705V52.624H244.797L249.189 59.272V52.624H250.281V61ZM254.795 61.084C254.243 61.084 253.747 60.988 253.307 60.796C252.875 60.596 252.535 60.324 252.287 59.98C252.039 59.628 251.911 59.224 251.903 58.768H253.067C253.107 59.16 253.267 59.492 253.547 59.764C253.835 60.028 254.251 60.16 254.795 60.16C255.315 60.16 255.723 60.032 256.019 59.776C256.323 59.512 256.475 59.176 256.475 58.768C256.475 58.448 256.387 58.188 256.211 57.988C256.035 57.788 255.815 57.636 255.551 57.532C255.287 57.428 254.931 57.316 254.483 57.196C253.931 57.052 253.487 56.908 253.151 56.764C252.823 56.62 252.539 56.396 252.299 56.092C252.067 55.78 251.951 55.364 251.951 54.844C251.951 54.388 252.067 53.984 252.299 53.632C252.531 53.28 252.855 53.008 253.271 52.816C253.695 52.624 254.179 52.528 254.723 52.528C255.507 52.528 256.147 52.724 256.643 53.116C257.147 53.508 257.431 54.028 257.495 54.676H256.295C256.255 54.356 256.087 54.076 255.791 53.836C255.495 53.588 255.103 53.464 254.615 53.464C254.159 53.464 253.787 53.584 253.499 53.824C253.211 54.056 253.067 54.384 253.067 54.808C253.067 55.112 253.151 55.36 253.319 55.552C253.495 55.744 253.707 55.892 253.955 55.996C254.211 56.092 254.567 56.204 255.023 56.332C255.575 56.484 256.019 56.636 256.355 56.788C256.691 56.932 256.979 57.16 257.219 57.472C257.459 57.776 257.579 58.192 257.579 58.72C257.579 59.128 257.471 59.512 257.255 59.872C257.039 60.232 256.719 60.524 256.295 60.748C255.871 60.972 255.371 61.084 254.795 61.084Z" fill="#333333"/>
</svg>
