<svg width="65" height="65" viewBox="0 0 65 65" fill="none" xmlns="http://www.w3.org/2000/svg">
<g clip-path="url(#clip0_19_32847)">
<mask id="mask0_19_32847" style="mask-type:luminance" maskUnits="userSpaceOnUse" x="0" y="0" width="65" height="65">
<path d="M65 0H0V65H65V0Z" fill="white"/>
</mask>
<g mask="url(#mask0_19_32847)">
<path d="M32.4104 65C14.9467 65 0.136922 50.2491 0.0008291 32.6727C-0.0296725 28.4332 0.781698 24.2298 2.3879 20.3063C3.99411 16.3828 6.36318 12.8171 9.35774 9.81599C12.3721 6.72886 15.9698 4.27138 19.9418 2.58628C23.9139 0.901188 28.1811 0.0220791 32.4958 1.23411e-05C36.7324 -0.00370172 40.928 0.830933 44.8406 2.45583C48.7533 4.08073 52.3059 6.46377 55.2935 9.4677C58.3297 12.4295 60.7504 15.9625 62.4162 19.8634C64.082 23.7642 64.96 27.9559 64.9998 32.1974C65.0811 50.1719 50.6368 64.8172 32.6745 65H32.4104ZM32.512 1.70119C28.4233 1.72503 24.3801 2.56077 20.6169 4.15987C16.8539 5.75898 13.4458 8.08962 10.5908 11.0165C7.75073 13.856 5.50256 17.231 3.97656 20.9459C2.45056 24.6606 1.67709 28.6414 1.70099 32.6574C1.82896 49.3137 15.8649 63.2816 32.4013 63.2816H32.6227C49.6548 63.1272 63.3636 49.2406 63.2976 32.2065C63.2204 24.0896 59.9074 16.3404 54.093 10.6753C51.2687 7.82563 47.9068 5.56497 44.2022 4.02433C40.4976 2.48369 36.5241 1.6937 32.512 1.70017V1.70119ZM7.292 42.0062V23.0191H11.9111V24.7203H9.46039V40.3386H11.9101V42.0397L7.292 42.0062ZM22.9682 32.3253C22.9682 35.7784 20.8658 37.7609 18.017 37.7609C15.1682 37.7609 13.2699 35.5408 13.2699 32.5041C13.2699 29.3313 15.2606 27.0938 18.1693 27.0938C21.0781 27.0938 22.9671 29.4247 22.9671 32.3243L22.9682 32.3253ZM15.2616 32.4777C15.2616 34.58 16.3179 36.2355 18.1287 36.2355C19.9396 36.2355 20.9786 34.5343 20.9786 32.3903C20.9786 30.4424 20.0177 28.6051 18.1287 28.6051C16.2396 28.6051 15.2342 30.3946 15.2342 32.5203L15.2616 32.4777ZM24.5779 27.4524C25.4825 27.2962 26.3991 27.2194 27.3171 27.2228C28.3479 27.1212 29.3849 27.3518 30.2776 27.8779C30.9581 28.2791 31.3695 29.0184 31.3491 29.8076C31.3372 30.3121 31.1663 30.8001 30.8609 31.2018C30.5554 31.6035 30.1309 31.8987 29.6479 32.045C30.8616 32.2918 31.733 33.3593 31.732 34.5972C31.7383 35.004 31.6519 35.4069 31.4795 35.7754C31.3071 36.1439 31.053 36.4683 30.7367 36.724C30.0054 37.3709 28.7887 37.6847 26.9077 37.6847C26.1345 37.6886 25.3617 37.6431 24.5942 37.5487L24.5779 27.4524ZM26.4498 31.5271H27.4105C28.7105 31.5271 29.4438 30.9146 29.4438 30.0381C29.4438 29.1616 28.7126 28.6163 27.5141 28.6163C27.1553 28.604 26.7962 28.6295 26.4426 28.6924L26.4498 31.5271ZM26.4498 36.2741C26.7808 36.3086 27.1129 36.3228 27.4451 36.3168C28.6638 36.3168 29.7251 35.8577 29.7251 34.6156C29.7251 33.3734 28.6871 32.9144 27.3861 32.9144H26.4518L26.4498 36.2741ZM35.438 27.3162H37.317V34.0194C37.317 36.8693 35.9387 37.8219 33.9146 37.8219C33.3733 37.8174 32.8362 37.7255 32.3241 37.5497L32.5536 36.0262C32.931 36.1441 33.3233 36.207 33.7186 36.2131C34.7901 36.2131 35.4198 35.7196 35.4198 33.9331L35.438 27.3162ZM42.6693 32.9053V34.2072H38.7561V32.9063L42.6693 32.9053ZM51.7967 37.3272C50.9507 37.6644 50.0437 37.8209 49.1337 37.7863C45.8583 37.7863 43.8677 35.7347 43.8677 32.6066C43.8291 31.8754 43.9457 31.1442 44.2098 30.4612C44.474 29.7781 44.8797 29.1587 45.4003 28.6437C45.921 28.1287 46.5446 27.7296 47.2304 27.4729C47.9163 27.216 48.6486 27.1073 49.3795 27.1537C50.2536 27.118 51.1249 27.2747 51.9317 27.6128L51.5255 29.1099C50.8857 28.838 50.1965 28.7017 49.5014 28.7097C47.399 28.7097 45.8858 30.028 45.8858 32.5122C45.8858 34.775 47.2213 36.2396 49.4841 36.2396C50.1867 36.2505 50.8843 36.1202 51.5357 35.8566L51.7967 37.3272ZM57.6995 22.9684V42.0062H53.0804V40.3051H55.5301V24.6797H53.0804V22.9785L57.6995 22.9684Z" fill="#4BA9FF"/>
</g>
</g>
<defs>
<clipPath id="clip0_19_32847">
<rect width="65" height="65" fill="white"/>
</clipPath>
</defs>
</svg>
