<svg width="48" height="48" viewBox="0 0 48 48" fill="none" xmlns="http://www.w3.org/2000/svg">
<g clip-path="url(#clip0_18_32201)">
<mask id="mask0_18_32201" style="mask-type:luminance" maskUnits="userSpaceOnUse" x="0" y="0" width="48" height="48">
<path d="M48 0H0V48H48V0Z" fill="white"/>
</mask>
<g mask="url(#mask0_18_32201)">
<path d="M48 0H0V48H48V0Z" fill="#F6F6F6"/>
<path d="M24 48C37.2548 48 48 37.2548 48 24C48 10.7452 37.2548 0 24 0C10.7452 0 0 10.7452 0 24C0 37.2548 10.7452 48 24 48Z" fill="#F6F6F6"/>
<path d="M19.5745 24.5792C20.6054 26.7081 22.3268 28.4251 24.4584 29.4506C24.6156 29.525 24.7895 29.5571 24.963 29.544C25.1364 29.5308 25.3035 29.4727 25.4477 29.3754L28.5784 27.2841C28.7168 27.1902 28.8766 27.133 29.043 27.1177C29.2095 27.1024 29.3771 27.1294 29.5301 27.1964L35.3908 29.7135C35.5911 29.7969 35.7585 29.9438 35.8671 30.1316C35.9757 30.3194 36.0196 30.5377 35.9919 30.7529C35.8062 32.2027 35.0985 33.5352 34.0014 34.501C32.9042 35.4667 31.4927 35.9996 30.0311 36C25.5141 36 21.1822 34.2056 17.9883 31.0117C14.7944 27.8178 13 23.4858 13 18.9689C13.0003 17.5073 13.5333 16.0958 14.499 14.9986C15.4648 13.9015 16.7972 13.1938 18.2471 13.0081C18.4623 12.9804 18.6806 13.0243 18.8684 13.1329C19.0562 13.2415 19.2031 13.4088 19.2865 13.6092L21.8036 19.4824C21.869 19.633 21.8964 19.7975 21.8833 19.9613C21.8702 20.1251 21.817 20.2831 21.7284 20.4216L19.6371 23.6024C19.544 23.7463 19.4893 23.9116 19.4784 24.0826C19.4674 24.2536 19.5006 24.4246 19.5745 24.5792Z" stroke="#121212" stroke-width="2" stroke-linecap="round" stroke-linejoin="round"/>
</g>
</g>
<defs>
<clipPath id="clip0_18_32201">
<rect width="48" height="48" fill="white"/>
</clipPath>
</defs>
</svg>
