<svg width="378" height="235" viewBox="0 0 378 235" fill="none" xmlns="http://www.w3.org/2000/svg">
<g clip-path="url(#clip0_18_31853)">
<path d="M0 1H378V236H0V1Z" fill="#6C38FF"/>
<path d="M224.828 36H121.172C115.554 36 111 40.5784 111 46.2262V149.774C111 155.422 115.554 160 121.172 160H224.828C230.446 160 235 155.422 235 149.774V46.2262C235 40.5784 230.446 36 224.828 36Z" stroke="#1C1F23"/>
<path d="M238.019 49H140.981C135.469 49 131 53.4699 131 58.9838V171.016C131 176.53 135.469 181 140.981 181H238.019C243.531 181 248 176.53 248 171.016V58.9838C248 53.4699 243.531 49 238.019 49Z" fill="white"/>
<path d="M229.072 61H151.928C147.549 61 144 64.5937 144 69.0268V115.973C144 120.406 147.549 124 151.928 124H229.072C233.451 124 237 120.406 237 115.973V69.0268C237 64.5937 233.451 61 229.072 61Z" fill="#F9FAFC"/>
<path d="M163.886 70H158.114C155.842 70 154 71.8006 154 74.0219V109.978C154 112.199 155.842 114 158.114 114H163.886C166.158 114 168 112.199 168 109.978V74.0219C168 71.8006 166.158 70 163.886 70Z" fill="#DFE5EE"/>
<path d="M183.886 82H178.114C175.842 82 174 83.792 174 86.0026V109.997C174 112.208 175.842 114 178.114 114H183.886C186.158 114 188 112.208 188 109.997V86.0026C188 83.792 186.158 82 183.886 82Z" fill="#DFE5EE"/>
<path d="M203.886 76H198.114C195.842 76 194 77.7871 194 79.9916V110.008C194 112.213 195.842 114 198.114 114H203.886C206.158 114 208 112.213 208 110.008V79.9916C208 77.7871 206.158 76 203.886 76Z" fill="#DFE5EE"/>
<path d="M224.886 98H219.114C216.842 98 215 99.7688 215 101.951V110.049C215 112.231 216.842 114 219.114 114H224.886C227.158 114 229 112.231 229 110.049V101.951C229 99.7688 227.158 98 224.886 98Z" fill="#DFE5EE"/>
<path d="M145 131H238" stroke="#1C1F23" stroke-linecap="round"/>
<path d="M145 139H238" stroke="#1C1F23" stroke-linecap="round"/>
<path d="M163 146H220" stroke="#1C1F23" stroke-linecap="round"/>
<path d="M176 166C179.314 166 182 163.314 182 160C182 156.686 179.314 154 176 154C172.686 154 170 156.686 170 160C170 163.314 172.686 166 176 166Z" fill="#4BA9FF"/>
<path d="M191 166C194.314 166 197 163.314 197 160C197 156.686 194.314 154 191 154C187.686 154 185 156.686 185 160C185 163.314 187.686 166 191 166Z" fill="#6C38FF"/>
<path d="M207 166C210.314 166 213 163.314 213 160C213 156.686 210.314 154 207 154C203.686 154 201 156.686 201 160C201 163.314 203.686 166 207 166Z" fill="#6C38FF"/>
<path d="M280.017 188.031C283.557 182.059 284.795 175 283.499 168.179C282.203 161.36 278.462 155.247 272.979 150.989C267.495 146.732 260.646 144.622 253.717 145.056C246.788 145.49 240.257 148.438 235.347 153.347C230.438 158.256 227.49 164.788 227.056 171.717C226.621 178.646 228.732 185.495 232.989 190.979C237.247 196.462 243.36 200.202 250.18 201.499C257.001 202.795 264.06 201.557 270.032 198.016L279.898 200.811C280.302 200.928 280.731 200.936 281.139 200.831C281.547 200.727 281.919 200.515 282.217 200.216C282.516 199.919 282.727 199.547 282.832 199.139C282.936 198.731 282.929 198.302 282.81 197.898L280.017 188.031Z" stroke="#1C1F23" stroke-linecap="round" stroke-linejoin="round"/>
<path d="M98.9831 109.031C95.4433 103.059 94.2051 96.0004 95.501 89.18C96.7969 82.3596 100.538 76.2468 106.021 71.9891C111.505 67.7314 118.354 65.6216 125.283 66.0558C132.212 66.49 138.743 69.4385 143.653 74.3474C148.562 79.2565 151.51 85.7885 151.944 92.7173C152.379 99.6461 150.268 106.496 146.011 111.979C141.753 117.462 135.64 121.202 128.82 122.499C121.999 123.795 114.94 122.557 108.968 119.017L99.102 121.81C98.6977 121.929 98.2691 121.936 97.8611 121.831C97.453 121.727 97.0806 121.515 96.7828 121.217C96.485 120.919 96.2728 120.547 96.1684 120.139C96.064 119.731 96.0713 119.302 96.1895 118.898L98.9831 109.031Z" stroke="#1C1F23" stroke-linecap="round" stroke-linejoin="round"/>
</g>
<defs>
<clipPath id="clip0_18_31853">
<rect width="378" height="235" fill="white" transform="translate(0 1)"/>
</clipPath>
</defs>
</svg>
