<svg width="65" height="65" viewBox="0 0 65 65" fill="none" xmlns="http://www.w3.org/2000/svg">
<path d="M33 36C35.7614 36 38 33.7614 38 31C38 28.2386 35.7614 26 33 26C30.2386 26 28 28.2386 28 31C28 33.7614 30.2386 36 33 36Z" fill="#4BA9FF"/>
<path d="M18.5196 40L17.454 39.7299C9.53974 37.7487 5 34.3797 5 30.5C5 26.6176 9.54244 23.2513 17.454 21.2701L18.5196 21.0027L18.819 22.0481C19.6189 24.7853 20.6437 27.4529 21.8833 30.0241L22.1125 30.5L21.8833 30.9759C20.6424 33.5508 19.6147 36.2193 18.819 38.9572L18.5196 40ZM16.9632 23.7032C10.9506 25.3824 7.25775 27.9439 7.25775 30.5C7.25775 33.0508 10.9479 35.615 16.9632 37.2914C17.6996 34.9706 18.5897 32.7005 19.6201 30.5C18.5822 28.2958 17.6945 26.025 16.9632 23.7032ZM45.4804 40L45.1836 38.9519C44.3817 36.2142 43.356 33.5458 42.1167 30.9733L41.8875 30.5L42.1167 30.0214C43.3575 27.4519 44.3798 24.7807 45.1836 22.0428L45.4804 21L46.5459 21.2674C54.4629 23.2487 59 26.615 59 30.5C59 34.3824 54.4602 37.7487 46.5459 39.7299L45.4804 40ZM44.3745 30.5C45.4535 32.8155 46.3516 35.0936 47.0368 37.2914C53.0521 35.615 56.7449 33.0508 56.7449 30.5C56.7449 27.9439 53.0548 25.385 47.0368 23.7032C46.3012 26.0243 45.4118 28.2949 44.3745 30.5Z" fill="#4BA9FF"/>
<path d="M17.5759 23.1292L17.2817 22.0782C15.0724 14.2414 15.7411 8.62789 19.1192 6.67139C22.4225 4.74453 27.7372 7.02173 33.3033 12.7754L34.0629 13.5623L33.3033 14.3465C31.3264 16.4181 29.5194 18.6477 27.9003 21.0137L27.5981 21.4503L27.0738 21.4934C24.2269 21.7187 21.4028 22.1775 18.6298 22.8651L17.5759 23.1292ZM21.8073 8.22905C21.2082 8.22905 20.6786 8.3611 20.2319 8.61981C18.0172 9.90528 17.6267 14.3815 19.1513 20.4235C21.5345 19.8926 23.9391 19.5126 26.3624 19.2997C27.7653 17.2949 29.2958 15.3838 30.9442 13.5784C27.459 10.164 24.1691 8.22905 21.8073 8.22905ZM43.197 53.9994C40.0195 53.9994 35.9379 51.5848 31.7011 47.2028L30.9442 46.4186L31.7011 45.6371C33.6784 43.5622 35.4862 41.3299 37.1067 38.9618L37.4063 38.5306L37.9252 38.4794C40.7732 38.2581 43.5983 37.8011 46.3719 37.1131L47.4285 36.8436L47.7253 37.8973C49.924 45.7287 49.258 51.3503 45.8851 53.3068C45.0662 53.7745 44.1383 54.0136 43.197 53.9994ZM34.0629 46.3998C37.5454 49.8142 40.8379 51.7518 43.197 51.7518C43.7989 51.7518 44.3285 51.6171 44.7725 51.3611C46.9898 50.0729 47.383 45.5886 45.853 39.5466C43.4725 40.0802 41.0653 40.4629 38.6367 40.6758C37.2397 42.6838 35.7118 44.5961 34.0629 46.3998Z" fill="#4BA9FF"/>
<path d="M47.4244 23.1283L46.3681 22.8615C43.595 22.1716 40.7704 21.7128 37.9226 21.4897L37.4037 21.4439L37.1042 21.0073C35.4862 18.64 33.6785 16.4101 31.6994 14.3399L30.9426 13.5556L31.6994 12.7741C37.262 7.02301 42.5732 4.74573 45.8814 6.66996C49.2564 8.62922 49.9276 14.2429 47.7213 22.0772L47.4244 23.1283ZM38.6339 19.2987C41.1852 19.5277 43.6028 19.9131 45.8493 20.4225C47.3763 14.3803 46.9859 9.90391 44.7688 8.61575C42.5652 7.33023 38.4173 9.29754 34.0608 13.5772C35.7082 15.3828 37.2379 17.2909 38.6339 19.2987ZM21.8071 53.9995C20.8661 54.013 19.9384 53.774 19.1194 53.3068C15.7417 51.3503 15.0731 45.7312 17.2794 37.8968L17.5683 36.8431L18.6246 37.1126C21.2027 37.7675 24.0428 38.2283 27.0702 38.479L27.589 38.5302L27.8912 38.9614C29.5065 41.3276 31.3143 43.5618 33.2933 45.637L34.0528 46.4184L33.2933 47.2028C29.0598 51.5875 24.9788 53.9995 21.8071 53.9995ZM19.1515 39.5489C17.6271 45.5911 18.0176 50.0755 20.2319 51.3637C22.4382 52.6304 26.5727 50.6765 30.9426 46.3996C29.2951 44.5936 27.7649 42.6825 26.3615 40.6781C23.9361 40.4619 21.5275 40.0847 19.1515 39.5489Z" fill="#4BA9FF"/>
<path d="M32.5027 41C30.6314 41 28.711 40.9217 26.7825 40.7623L26.2486 40.7164L25.9408 40.2788C24.8533 38.7281 23.8301 37.1341 22.8737 35.5005C21.9243 33.8626 21.042 32.1875 20.2288 30.4791L20 30.001L20.2288 29.5175C21.0433 27.8104 21.9231 26.1357 22.8737 24.4988C23.8189 22.8889 24.8513 21.2791 25.9408 19.7178L26.2486 19.2856L26.7825 19.237C30.5875 18.921 34.4125 18.921 38.2175 19.237L38.7459 19.2883L39.0537 19.7205C41.2323 22.8235 43.1457 26.1014 44.7739 29.5202L45 30.0037L44.7739 30.4818C43.1501 33.903 41.2366 37.1813 39.0537 40.2815L38.7459 40.7191L38.2175 40.765C36.2944 40.919 34.3713 41 32.5027 41ZM27.5071 38.5582C30.8711 38.8094 34.1343 38.8094 37.4956 38.5582C39.3721 35.8334 41.0402 32.973 42.4858 30.001C41.0453 27.0264 39.377 24.1657 37.4956 21.4438C34.171 21.1899 30.8316 21.1899 27.5071 21.4438C25.6241 24.1647 23.9557 27.0256 22.5169 30.001C23.9656 32.9714 25.6336 35.8315 27.5071 38.5582Z" fill="#4BA9FF"/>
</svg>
