<svg width="64" height="64" viewBox="0 0 64 64" fill="none" xmlns="http://www.w3.org/2000/svg">
<path d="M55.9865 26.0015C54.7493 26.005 53.5435 26.391 52.5343 27.1067C51.5252 27.8224 50.7621 28.8326 50.3497 29.999H47.8511C47.405 26.4812 45.8021 23.2115 43.2945 20.7041C40.7869 18.1967 37.5169 16.5939 33.9989 16.1478V13.6494C35.3326 13.1779 36.4566 12.2502 37.1724 11.0301C37.8881 9.81008 38.1495 8.37631 37.9103 6.98221C37.6711 5.58811 36.9467 4.32344 35.8652 3.41174C34.7836 2.50004 33.4146 2 32 2C30.5854 2 29.2164 2.50004 28.1349 3.41174C27.0533 4.32344 26.3289 5.58811 26.0897 6.98221C25.8505 8.37631 26.1119 9.81008 26.8276 11.0301C27.5434 12.2502 28.6674 13.1779 30.0011 13.6494V16.1478C26.4831 16.5939 23.2131 18.1967 20.7055 20.7041C18.1979 23.2115 16.595 26.4812 16.1489 29.999H13.6503C13.1788 28.6654 12.251 27.5414 11.0308 26.8257C9.81068 26.11 8.3768 25.8487 6.98259 26.0879C5.58838 26.3271 4.32362 27.0514 3.41185 28.1328C2.50008 29.2143 2 30.5832 2 31.9977C2 33.4122 2.50008 34.7811 3.41185 35.8625C4.32362 36.944 5.58838 37.6683 6.98259 37.9075C8.3768 38.1467 9.81068 37.8853 11.0308 37.1697C12.251 36.454 13.1788 35.33 13.6503 33.9964H16.1489C16.449 36.3571 17.2723 38.621 18.5587 40.6231C19.8451 42.6252 21.5622 44.3149 23.5847 45.569L18.5675 50.6058C17.4503 50.0963 16.2062 49.9326 14.9951 50.1356C13.7841 50.3386 12.6614 50.8991 11.7714 51.7451V51.7451C10.9899 52.5196 10.4366 53.4942 10.172 54.5621C9.90745 55.63 9.94184 56.7502 10.2714 57.7999C10.601 58.8496 11.2131 59.7884 12.0406 60.5135C12.8681 61.2386 13.8792 61.7221 14.9632 61.911C16.0471 62.0999 17.1622 61.9869 18.1862 61.5844C19.2103 61.182 20.1039 60.5056 20.7691 59.6292C21.4344 58.7529 21.8457 57.7104 21.958 56.6159C22.0703 55.5215 21.8794 54.4172 21.406 53.424L27.4026 47.4278C28.9002 47.8345 30.4486 48.023 32 47.9875C33.5574 47.986 35.1062 47.7571 36.5974 47.3079L42.714 53.424C42.2406 54.4172 42.0496 55.5215 42.1619 56.6159C42.2742 57.7104 42.6855 58.7529 43.3508 59.6292C44.0161 60.5056 44.9096 61.182 45.9337 61.5844C46.9577 61.9869 48.0728 62.0999 49.1568 61.911C50.2407 61.7221 51.2518 61.2386 52.0793 60.5135C52.9069 59.7884 53.5189 58.8496 53.8485 57.7999C54.1781 56.7502 54.2125 55.63 53.9479 54.5621C53.6834 53.4942 53.1301 52.5196 52.3486 51.7451V51.7451C51.471 50.872 50.3448 50.2918 49.1244 50.0843C47.904 49.8767 46.6493 50.0519 45.5324 50.5858L40.4752 45.529C42.4818 44.2726 44.1843 42.5863 45.4598 40.5919C46.7354 38.5975 47.5521 36.3448 47.8511 33.9964H50.3497C50.7164 35.0335 51.3613 35.9498 52.2139 36.6449C53.0665 37.34 54.0939 37.7872 55.1837 37.9376C56.2735 38.0879 57.3836 37.9356 58.3926 37.4974C59.4016 37.0591 60.2706 36.3517 60.9045 35.4527C61.5383 34.5536 61.9127 33.4976 61.9865 32.4C62.0603 31.3025 61.8308 30.2058 61.323 29.23C60.8152 28.2542 60.0488 27.4368 59.1076 26.8674C58.1663 26.298 57.0866 25.9984 55.9865 26.0015V26.0015ZM17.4282 57.4015C17.2424 57.5888 17.0213 57.7375 16.7777 57.839C16.5341 57.9404 16.2729 57.9927 16.009 57.9927C15.7451 57.9927 15.4838 57.9404 15.2403 57.839C14.9967 57.7375 14.7756 57.5888 14.5898 57.4015C14.4024 57.2157 14.2537 56.9946 14.1522 56.751C14.0508 56.5075 13.9985 56.2462 13.9985 55.9824C13.9985 55.7185 14.0508 55.4573 14.1522 55.2137C14.2537 54.9701 14.4024 54.7491 14.5898 54.5633V54.5633C14.7756 54.3759 14.9967 54.2272 15.2403 54.1258C15.4838 54.0243 15.7451 53.9721 16.009 53.9721C16.2729 53.9721 16.5341 54.0243 16.7777 54.1258C17.0213 54.2272 17.2424 54.3759 17.4282 54.5633C17.6155 54.7491 17.7642 54.9701 17.8657 55.2137C17.9672 55.4573 18.0195 55.7185 18.0195 55.9824C18.0195 56.2462 17.9672 56.5075 17.8657 56.751C17.7642 56.9946 17.6155 57.2157 17.4282 57.4015V57.4015ZM48.111 53.9836C48.5732 53.9863 49.0203 54.1491 49.3761 54.4444C49.7318 54.7396 49.9742 55.149 50.0619 55.6029C50.1497 56.0568 50.0774 56.527 49.8574 56.9336C49.6374 57.3401 49.2832 57.6579 48.8552 57.8327C48.4272 58.0075 47.9519 58.0285 47.5101 57.8922C47.0684 57.756 46.6875 57.4708 46.4324 57.0853C46.1773 56.6998 46.0637 56.2377 46.111 55.7779C46.1583 55.3181 46.3635 54.8888 46.6917 54.5633C46.8785 54.378 47.1 54.2315 47.3436 54.132C47.5871 54.0325 47.8479 53.9821 48.111 53.9836ZM32 6.01429C32.3953 6.01429 32.7818 6.13151 33.1105 6.35114C33.4392 6.57076 33.6954 6.88292 33.8467 7.24813C33.998 7.61335 34.0376 8.01523 33.9605 8.40294C33.8833 8.79066 33.693 9.1468 33.4134 9.42632C33.1339 9.70585 32.7777 9.89621 32.39 9.97333C32.0022 10.0505 31.6003 10.0109 31.2351 9.85959C30.8698 9.70831 30.5576 9.45213 30.338 9.12344C30.1184 8.79476 30.0011 8.40832 30.0011 8.01301C30.0011 7.48292 30.2117 6.97454 30.5866 6.5997C30.9614 6.22487 31.4699 6.01429 32 6.01429V6.01429ZM32 20.0054C35.1808 20.0054 38.2313 21.2688 40.4805 23.5178C42.7297 25.7668 43.9933 28.8171 43.9933 31.9977C43.9935 33.0169 43.8591 34.0317 43.5935 35.0158C42.1571 33.505 40.4392 32.2896 38.5363 31.4381C38.9406 30.3788 39.0813 29.2372 38.9464 28.1115C38.8114 26.9857 38.4049 25.9097 37.7617 24.976C37.1186 24.0422 36.2581 23.2788 35.2544 22.7514C34.2507 22.224 33.1339 21.9484 32 21.9484C30.8662 21.9484 29.7493 22.224 28.7456 22.7514C27.7419 23.2788 26.8814 24.0422 26.2383 24.976C25.5951 25.9097 25.1886 26.9857 25.0537 28.1115C24.9187 29.2372 25.0594 30.3788 25.4637 31.4381C23.5608 32.2896 21.8429 33.505 20.4065 35.0158C20.1409 34.0317 20.0065 33.0169 20.0067 31.9977C20.0067 28.8171 21.2703 25.7668 23.5195 23.5178C25.7687 21.2688 28.8192 20.0054 32 20.0054V20.0054ZM34.9983 28.9996C34.9983 29.5926 34.8225 30.1722 34.493 30.6653C34.1635 31.1583 33.6953 31.5426 33.1474 31.7695C32.5995 31.9964 31.9967 32.0558 31.4151 31.9401C30.8334 31.8244 30.2992 31.5389 29.8799 31.1196C29.4606 30.7003 29.175 30.1661 29.0593 29.5845C28.9436 29.0029 29.003 28.4001 29.2299 27.8523C29.4569 27.3045 29.8412 26.8362 30.3342 26.5068C30.8273 26.1774 31.407 26.0015 32 26.0015C32.7952 26.0015 33.5578 26.3174 34.1201 26.8796C34.6824 27.4419 34.9983 28.2045 34.9983 28.9996ZM8.01348 33.9964C7.61814 33.9964 7.23167 33.8792 6.90296 33.6596C6.57425 33.4399 6.31804 33.1278 6.16675 32.7626C6.01546 32.3973 5.97588 31.9955 6.05301 31.6078C6.13013 31.22 6.32051 30.8639 6.60006 30.5844C6.8796 30.3049 7.23577 30.1145 7.62351 30.0374C8.01126 29.9603 8.41317 29.9998 8.77841 30.1511C9.14366 30.3024 9.45584 30.5586 9.67548 30.8873C9.89512 31.2159 10.0124 31.6024 10.0124 31.9977C10.0124 32.5278 9.80176 33.0362 9.4269 33.411C9.05203 33.7858 8.54361 33.9964 8.01348 33.9964ZM28.0022 43.3105C27.7604 43.1541 27.4877 43.0518 27.2027 43.0107C25.2025 42.1606 23.474 40.7779 22.2055 39.0132C23.6508 37.0197 25.6746 35.5194 28.0022 34.716C29.1732 35.5382 30.5692 35.9794 32 35.9794C33.4308 35.9794 34.8268 35.5382 35.9978 34.716C38.2861 35.5318 40.2727 37.0234 41.6946 38.9932C40.3998 40.7651 38.6437 42.1478 36.6174 42.9907C36.4514 43.0329 36.2905 43.0932 36.1377 43.1706C34.8177 43.686 33.4168 43.9634 32 43.99C30.6379 43.9997 29.2847 43.7697 28.0022 43.3105V43.3105ZM55.9865 33.9964C55.5912 33.9964 55.2047 33.8792 54.876 33.6596C54.5473 33.4399 54.2911 33.1278 54.1398 32.7626C53.9885 32.3973 53.9489 31.9955 54.0261 31.6078C54.1032 31.22 54.2936 30.8639 54.5731 30.5844C54.8527 30.3049 55.2088 30.1145 55.5966 30.0374C55.9843 29.9603 56.3862 29.9998 56.7515 30.1511C57.1167 30.3024 57.4289 30.5586 57.6485 30.8873C57.8682 31.2159 57.9854 31.6024 57.9854 31.9977C57.9854 32.5278 57.7748 33.0362 57.3999 33.411C57.0251 33.7858 56.5167 33.9964 55.9865 33.9964Z" fill="#1BCFF6"/>
</svg>
