<svg width="21" height="20" viewBox="0 0 21 20" fill="none" xmlns="http://www.w3.org/2000/svg">
<g clip-path="url(#clip0_12_39023)">
<path d="M10.666 20C16.1889 20 20.666 15.5228 20.666 10C20.666 4.47715 16.1889 0 10.666 0C5.14317 0 0.666016 4.47715 0.666016 10C0.666016 15.5228 5.14317 20 10.666 20Z" fill="#272D37"/>
<path fill-rule="evenodd" clip-rule="evenodd" d="M5.19188 9.89397C8.10708 8.62386 10.051 7.78653 11.0237 7.38197C13.8008 6.22688 14.3778 6.02623 14.7539 6.0196C14.8367 6.01814 15.0216 6.03865 15.1414 6.13587C15.2426 6.21796 15.2704 6.32885 15.2838 6.40668C15.2971 6.48451 15.3137 6.66181 15.3005 6.80034C15.15 8.38158 14.4988 12.2188 14.1675 13.9898C14.0274 14.7392 13.7513 14.9905 13.4841 15.0151C12.9034 15.0685 12.4624 14.6313 11.9 14.2626C11.0199 13.6857 10.5226 13.3265 9.66832 12.7635C8.681 12.1129 9.32104 11.7553 9.8837 11.1709C10.031 11.018 12.5896 8.69066 12.6391 8.47954C12.6453 8.45313 12.6511 8.35471 12.5926 8.30274C12.5341 8.25077 12.4478 8.26854 12.3856 8.28267C12.2973 8.30271 10.8913 9.23203 8.1675 11.0706C7.76841 11.3447 7.40692 11.4782 7.08304 11.4712C6.72599 11.4635 6.03917 11.2693 5.52858 11.1034C4.90233 10.8998 4.4046 10.7922 4.44794 10.4465C4.47052 10.2664 4.7185 10.0822 5.19188 9.89397Z" fill="white"/>
</g>
<defs>
<clipPath id="clip0_12_39023">
<rect width="20" height="20" fill="white" transform="translate(0.666016)"/>
</clipPath>
</defs>
</svg>
