<svg width="21" height="20" viewBox="0 0 21 20" fill="none" xmlns="http://www.w3.org/2000/svg">
<g clip-path="url(#clip0_12_39020)">
<path d="M6.95562 18.126C14.5028 18.126 18.6308 11.8732 18.6308 6.45084C18.6308 6.27324 18.6308 6.09644 18.6188 5.92044C19.4219 5.33957 20.1151 4.62034 20.666 3.79644C19.9172 4.12844 19.1227 4.34607 18.3092 4.44204C19.1659 3.92928 19.807 3.12269 20.1132 2.17244C19.3078 2.65045 18.4265 2.9873 17.5076 3.16844C16.8889 2.51059 16.0707 2.07497 15.1795 1.92901C14.2883 1.78305 13.3739 1.93487 12.5777 2.36098C11.7814 2.7871 11.1479 3.46375 10.775 4.28623C10.4021 5.10871 10.3106 6.03116 10.5148 6.91084C8.88343 6.82901 7.28748 6.40503 5.83056 5.66644C4.37364 4.92786 3.08832 3.89116 2.05802 2.62364C1.53329 3.52697 1.37258 4.59633 1.6086 5.61399C1.84462 6.63165 2.45963 7.5211 3.32842 8.10124C2.67538 8.08211 2.03656 7.90594 1.46602 7.58764V7.63964C1.46627 8.58702 1.79422 9.50514 2.39424 10.2383C2.99426 10.9714 3.8294 11.4744 4.75802 11.662C4.15392 11.8268 3.52008 11.8509 2.90522 11.7324C3.16753 12.5477 3.67804 13.2606 4.36538 13.7716C5.05272 14.2825 5.88254 14.5658 6.73882 14.582C5.88805 15.2508 4.91378 15.7452 3.87174 16.037C2.82971 16.3289 1.74036 16.4124 0.666016 16.2828C2.54254 17.487 4.72595 18.1258 6.95562 18.1228" fill="#272D37"/>
</g>
<defs>
<clipPath id="clip0_12_39020">
<rect width="20" height="20" fill="white" transform="translate(0.666016)"/>
</clipPath>
</defs>
</svg>
