<svg width="24" height="24" viewBox="0 0 24 24" fill="none" xmlns="http://www.w3.org/2000/svg">
<path d="M19.8457 5.59641C19.8457 4.79878 19.1993 4.15473 18.4046 4.15473C17.6099 4.15473 16.9629 4.79878 16.9629 5.59641C16.9629 6.39111 17.6099 7.03516 18.4046 7.03516C19.1993 7.03516 19.8457 6.39111 19.8457 5.59641" fill="url(#paint0_linear_354_49675)"/>
<path d="M21.7666 16.8484C21.7132 18.0185 21.5175 18.6543 21.355 19.0765C21.1367 19.6364 20.8764 20.0367 20.4542 20.4565C20.0367 20.8764 19.6364 21.1362 19.0765 21.352C18.6543 21.5169 18.0161 21.7132 16.8461 21.769C15.5811 21.8247 15.2063 21.8366 11.9985 21.8366C8.7937 21.8366 8.4159 21.8247 7.15094 21.769C5.98089 21.7132 5.34573 21.5169 4.92345 21.352C4.36067 21.1362 3.96334 20.8764 3.54347 20.4565C3.12061 20.0367 2.86028 19.6364 2.645 19.0765C2.48248 18.6543 2.28384 18.0185 2.2334 16.8484C2.17175 15.5835 2.16045 15.2027 2.16045 12.0015C2.16045 8.7937 2.17175 8.4159 2.2334 7.15094C2.28384 5.98088 2.48248 5.34573 2.645 4.9199C2.86028 4.36067 3.12061 3.96272 3.54347 3.54284C3.96334 3.12359 4.36067 2.86321 4.92345 2.645C5.34573 2.47954 5.98089 2.28619 7.15094 2.23046C8.4159 2.17469 8.7937 2.16045 11.9985 2.16045C15.2063 2.16045 15.5811 2.17469 16.8461 2.23046C18.0161 2.28619 18.6543 2.47954 19.0765 2.645C19.6364 2.86321 20.0367 3.12359 20.4542 3.54284C20.8764 3.96272 21.1367 4.36067 21.355 4.9199C21.5175 5.34573 21.7132 5.98088 21.7666 7.15094C21.8253 8.4159 21.8395 8.7937 21.8395 12.0015C21.8395 15.2027 21.8253 15.5835 21.7666 16.8484V16.8484ZM23.9271 7.05251C23.8683 5.77388 23.6667 4.90033 23.3672 4.13948C23.0624 3.35012 22.6538 2.68116 21.9848 2.01221C21.3188 1.34623 20.6499 0.937608 19.8605 0.629238C19.0967 0.3327 18.2261 0.128677 16.9469 0.0729457C15.6677 0.0112541 15.2591 -7.97907e-07 11.9985 -7.97907e-07C8.74091 -7.97907e-07 8.32935 0.0112541 7.05015 0.0729457C5.77388 0.128677 4.90388 0.3327 4.1365 0.629238C3.35012 0.937608 2.68116 1.34623 2.01519 2.01221C1.34623 2.68116 0.937606 3.35012 0.629815 4.13948C0.333277 4.90033 0.131656 5.77388 0.0699646 7.05251C0.0142331 8.33171 0 8.74091 0 12.0015C0 15.2591 0.0142331 15.6677 0.0699646 16.9469C0.131656 18.2231 0.333277 19.0961 0.629815 19.8605C0.937606 20.6469 1.34623 21.3188 2.01519 21.9848C2.68116 22.6508 3.35012 23.0624 4.1365 23.3702C4.90388 23.6667 5.77388 23.8683 7.05015 23.9271C8.32935 23.9858 8.74091 24 11.9985 24C15.2591 24 15.6677 23.9858 16.9469 23.9271C18.2261 23.8683 19.0967 23.6667 19.8605 23.3702C20.6499 23.0624 21.3188 22.6508 21.9848 21.9848C22.6538 21.3188 23.0624 20.6469 23.3672 19.8605C23.6667 19.0961 23.8683 18.2231 23.9271 16.9469C23.9858 15.6677 24 15.2591 24 12.0015C24 8.74091 23.9858 8.33171 23.9271 7.05251V7.05251Z" fill="url(#paint1_linear_354_49675)"/>
<path d="M11.9978 15.9967C9.78993 15.9967 7.99834 14.2081 7.99834 12.0002C7.99834 9.78869 9.78993 7.99772 11.9978 7.99772C14.2064 7.99772 16.0003 9.78869 16.0003 12.0002C16.0003 14.2081 14.2064 15.9967 11.9978 15.9967V15.9967ZM11.9978 5.83429C8.59435 5.83429 5.83789 8.59666 5.83789 12.0002C5.83789 15.4007 8.59435 18.1602 11.9978 18.1602C15.4013 18.1602 18.1608 15.4007 18.1608 12.0002C18.1608 8.59666 15.4013 5.83429 11.9978 5.83429Z" fill="url(#paint2_linear_354_49675)"/>
<defs>
<linearGradient id="paint0_linear_354_49675" x1="0.215893" y1="23.7535" x2="22.0005" y2="1.96898" gradientUnits="userSpaceOnUse">
<stop stop-color="#FFD521"/>
<stop offset="0.05" stop-color="#FFD521"/>
<stop offset="0.501119" stop-color="#F50000"/>
<stop offset="0.95" stop-color="#B900B4"/>
<stop offset="0.950079" stop-color="#B900B4"/>
<stop offset="1" stop-color="#B900B4"/>
</linearGradient>
<linearGradient id="paint1_linear_354_49675" x1="0.216477" y1="23.7817" x2="22.0189" y2="1.97929" gradientUnits="userSpaceOnUse">
<stop stop-color="#FFD521"/>
<stop offset="0.05" stop-color="#FFD521"/>
<stop offset="0.501119" stop-color="#F50000"/>
<stop offset="0.95" stop-color="#B900B4"/>
<stop offset="0.950079" stop-color="#B900B4"/>
<stop offset="1" stop-color="#B900B4"/>
</linearGradient>
<linearGradient id="paint2_linear_354_49675" x1="0.221465" y1="23.781" x2="22.0187" y2="1.98382" gradientUnits="userSpaceOnUse">
<stop stop-color="#FFD521"/>
<stop offset="0.05" stop-color="#FFD521"/>
<stop offset="0.501119" stop-color="#F50000"/>
<stop offset="0.95" stop-color="#B900B4"/>
<stop offset="0.950079" stop-color="#B900B4"/>
<stop offset="1" stop-color="#B900B4"/>
</linearGradient>
</defs>
</svg>
