<svg width="23" height="23" viewBox="0 0 23 23" fill="none" xmlns="http://www.w3.org/2000/svg">
<path d="M17.2385 16.3446C17.1 16.4528 16.9172 16.5044 16.713 16.4686C16.3183 16.3992 16.0149 16.0109 16.0431 15.6111L16.5812 7.9734L9.04023 6.64782C8.64548 6.57843 8.34211 6.19013 8.37028 5.79032C8.39844 5.39052 8.74844 5.11707 9.14318 5.18646L17.4056 6.63886C17.8003 6.70826 18.1037 7.09655 18.0755 7.49636L17.4859 15.8647C17.4714 16.0715 17.3771 16.2364 17.2385 16.3446Z" fill="#4385F6"/>
<path d="M18.8312 7.90458L5.80778 18.0796C5.49052 18.3275 4.94832 18.1758 4.61176 17.745C4.27519 17.3143 4.25919 16.7515 4.57646 16.5036L17.5999 6.32856C17.9172 6.08068 18.4594 6.23236 18.7959 6.66314C19.1325 7.09391 19.1485 7.6567 18.8312 7.90458Z" fill="#4385F6"/>
</svg>
