<svg width="66" height="57" viewBox="0 0 66 57" fill="none" xmlns="http://www.w3.org/2000/svg">
<g clip-path="url(#clip0_19_32857)">
<path d="M19.7356 0C17.9801 0.00366899 16.2617 0.985783 15.3779 2.48403L1.63295 26.016C0.762975 27.5183 0.762975 29.4818 1.63295 30.9841L15.3779 54.516C16.2617 56.0143 17.9801 56.9966 19.7356 57H47.2254C48.9809 56.9964 50.6993 56.0143 51.5831 54.516L65.328 30.9841C66.198 29.4818 66.1979 27.5183 65.328 26.016L51.5831 2.48403C50.6993 0.985783 48.9809 0.00339382 47.2254 0H19.7356ZM19.9851 13.7665C20.0228 13.7628 20.0625 13.7628 20.1003 13.7665H24.8419C25.0518 13.7707 25.2553 13.8903 25.3602 14.0699L33.4037 28.1966C33.4442 28.2665 33.4703 28.3443 33.4802 28.4241C33.4901 28.3443 33.5161 28.2665 33.5566 28.1966L41.5809 14.0699C41.689 13.8848 41.9022 13.7646 42.1184 13.7665H46.86C47.2798 13.7701 47.5942 14.2913 47.3975 14.6577L39.5461 28.5L47.3975 42.3234C47.6129 42.6919 47.2907 43.2372 46.86 43.2336H42.1184C41.8984 43.2317 41.684 43.1032 41.5809 42.9112L33.5566 28.7844C33.5161 28.7146 33.4901 28.6368 33.4802 28.5569C33.4703 28.6368 33.4442 28.7147 33.4037 28.7844L25.3602 42.9112C25.2601 43.0978 25.0555 43.2251 24.8419 43.2336H20.1003C19.6695 43.2372 19.3475 42.6919 19.5629 42.3234L27.4143 28.5L19.5629 14.6577C19.3746 14.3235 19.6043 13.8378 19.9851 13.7665Z" fill="#4BA9FF"/>
</g>
<defs>
<clipPath id="clip0_19_32857">
<rect width="65" height="57" fill="white" transform="translate(0.980469)"/>
</clipPath>
</defs>
</svg>
